<?xml version="1.0" encoding="UTF-8" standalone="no"?>
<!-- Created with Inkscape (http://www.inkscape.org/) -->

<svg
   xmlns:dc="http://purl.org/dc/elements/1.1/"
   xmlns:cc="http://creativecommons.org/ns#"
   xmlns:rdf="http://www.w3.org/1999/02/22-rdf-syntax-ns#"
   xmlns:svg="http://www.w3.org/2000/svg"
   xmlns="http://www.w3.org/2000/svg"
   xmlns:sodipodi="http://sodipodi.sourceforge.net/DTD/sodipodi-0.dtd"
   xmlns:inkscape="http://www.inkscape.org/namespaces/inkscape"
   sodipodi:docname="acquired_robustness.svg"
   viewBox="0 0 419.51944 345.7764"
   height="345.7764"
   width="419.51944"
   xml:space="preserve"
   inkscape:version="0.91 r13725"
   version="1.1"
   id="svg2"
   inkscape:export-filename="/home/jon/lucile/share/Dropbox/sci/2015-10-fimort-agepat/doc/2016-09-01-epc2016-the_gestational_age_pattern_of_human_mortality/fig/acquired_robustness.png"
   inkscape:export-xdpi="429.06"
   inkscape:export-ydpi="429.06"><metadata
     id="metadata8"><rdf:RDF><cc:Work
         rdf:about=""><dc:format>image/svg+xml</dc:format><dc:type
           rdf:resource="http://purl.org/dc/dcmitype/StillImage" /><dc:title></dc:title></cc:Work></rdf:RDF></metadata><defs
     id="defs6" /><sodipodi:namedview
     inkscape:current-layer="g10"
     inkscape:window-maximized="1"
     inkscape:window-y="24"
     inkscape:window-x="0"
     inkscape:cy="164.26329"
     inkscape:cx="278.06909"
     inkscape:zoom="1.365044"
     showgrid="false"
     id="namedview4"
     inkscape:window-height="1416"
     inkscape:window-width="3440"
     inkscape:pageshadow="2"
     inkscape:pageopacity="0"
     guidetolerance="10"
     gridtolerance="10"
     objecttolerance="10"
     borderopacity="1"
     bordercolor="#666666"
     pagecolor="#ffffff" /><g
     id="g10"
     inkscape:groupmode="layer"
     inkscape:label="acquired_robustness"
     transform="matrix(1.25,0,0,-1.25,0,345.7764)"><g
       id="g12"
       style="fill:#cccccc"><path
         d="m 308.859,216.387 c 0,-5.989 -2.347,-11.426 -6.164,-15.473 -0.652,-8.543 -6.066,-15.758 -13.613,-19.008 l 0,-0.078 c -9.219,-5.367 -14.727,-14.527 -16.402,-25.512 l -8.516,0 0,25.485 c 0.055,7.945 2.555,13.035 7.793,16.172 1.914,1.101 3.652,2.363 5.137,3.761 3.89,-1.398 7.332,-4.136 9.519,-8.031 0.453,-0.762 1.27,-1.199 2.075,-1.199 0.394,0 0.8,0.098 1.167,0.312 1.165,0.641 1.583,2.09 0.926,3.243 l -0.015,0 c -2.454,4.359 -6.176,7.578 -10.414,9.492 2.171,3.34 3.378,7.316 3.324,12.09 0,0.023 0.035,0.05 0.035,0.082 0,2.156 -0.324,4.254 -0.899,6.226 4.981,0.953 9.364,3.473 12.586,7.035 0.895,0.977 0.829,2.485 -0.16,3.364 -0.98,0.886 -2.468,0.808 -3.347,-0.153 -2.809,-3.058 -6.602,-5.148 -10.914,-5.722 -3.465,6.418 -9.911,10.976 -17.461,11.808 0.5,4.071 2.336,7.703 5.105,10.469 0.906,0.926 0.906,2.441 0,3.359 -0.933,0.93 -2.465,0.93 -3.391,0 -3.535,-3.543 -5.898,-8.269 -6.492,-13.535 -8.867,1.117 -15.707,8.649 -15.722,17.817 0,1.3 -1.078,2.386 -2.352,2.386 -1.352,0 -2.406,-1.086 -2.406,-2.386 0,-1.547 0.156,-3.028 0.449,-4.481 -3.363,-2.906 -7.543,-4.375 -11.738,-4.375 -2.071,0 -4.145,0.367 -6.098,1.078 0,0 -0.031,0.008 -0.059,0.016 -2.414,0.867 -4.624,2.254 -6.539,4.168 -0.918,0.93 -2.433,0.93 -3.371,0 -0.933,-0.926 -0.933,-2.43 0,-3.363 1.969,-1.957 4.18,-3.473 6.532,-4.567 -0.469,-5.933 -3.922,-11.035 -8.743,-13.902 -2.789,4.234 -6.976,7.586 -12.129,9.226 -1.289,0.399 -2.621,-0.293 -3.023,-1.55 -0.355,-1.254 0.285,-2.59 1.555,-2.981 3.828,-1.211 6.902,-3.566 9.113,-6.57 -1.488,-0.399 -3.016,-0.613 -4.637,-0.613 l -0.289,0 c -6.109,0 -11.734,-2.438 -15.82,-6.422 -0.973,-0.918 -0.992,-2.43 -0.039,-3.364 0.453,-0.48 1.078,-0.718 1.719,-0.718 0.547,0 1.148,0.222 1.609,0.675 3.246,3.161 7.668,5.067 12.539,5.067 l 0.285,0 c 11.469,0 20.988,8.539 22.485,19.605 1.629,-0.351 3.253,-0.543 4.91,-0.543 4.656,0 9.347,1.446 13.301,4.301 1.449,-3.297 3.734,-6.176 6.5,-8.414 -2.829,-3.48 -4.489,-7.617 -4.926,-11.848 -1.192,0.192 -2.442,0.293 -3.696,0.293 -3.593,0 -7.242,-0.851 -10.636,-2.668 -1.168,-0.613 -1.606,-2.058 -0.992,-3.226 0.437,-0.789 1.273,-1.254 2.125,-1.254 0.394,0 0.742,0.09 1.085,0.289 2.735,1.43 5.59,2.109 8.418,2.109 1.258,0 2.504,-0.136 3.696,-0.39 0.519,-4.821 2.601,-9.543 6.187,-13.297 0.481,-0.496 1.098,-0.731 1.715,-0.731 0.578,0 1.184,0.215 1.656,0.653 0.977,0.918 1,2.41 0.071,3.363 l -0.012,0 c -3.188,3.367 -4.871,7.652 -4.984,11.977 0,0.062 0.019,0.109 0,0.183 l 0,0.262 c 0,4.203 1.453,8.355 4.328,11.691 3.031,-1.504 6.476,-2.386 10.125,-2.386 0,0 0.015,-0.008 0.039,-0.008 l 0.039,0 c 9.887,-0.028 17.887,-8.02 17.926,-17.903 -1.875,0.5 -3.805,0.75 -5.789,0.75 -2.833,0 -5.707,-0.519 -8.473,-1.66 -1.234,-0.504 -1.82,-1.879 -1.324,-3.097 0.504,-1.215 1.871,-1.805 3.09,-1.313 2.226,0.887 4.484,1.32 6.707,1.32 1.796,0 3.578,-0.273 5.246,-0.789 -0.582,-2.668 -1.719,-4.808 -3.496,-6.711 -0.137,-0.117 -0.262,-0.25 -0.368,-0.414 -1.351,-1.332 -2.984,-2.562 -5,-3.785 -6.89,-4.023 -10.191,-11.32 -10.125,-20.265 l 0,-25.489 -8.129,0 0,24.239 c 0,8.902 -5.578,17.343 -12.601,20.347 -3.36,1.301 -6.856,3.481 -9.402,6.332 -3.633,-2.465 -7.997,-3.922 -12.68,-3.922 -4.707,0 -9.067,1.43 -12.672,3.879 -3.594,-2.363 -7.93,-3.742 -12.57,-3.742 -12.754,-0.004 -23.059,10.332 -23.059,23.07 0,9.516 5.758,17.684 14,21.2 2.223,10.16 11.223,17.761 22.051,17.761 0.578,0 1.101,-0.05 1.637,-0.082 4.078,5.965 10.941,9.879 18.707,9.879 3.847,0 7.461,-0.961 10.628,-2.668 3.575,2.379 7.86,3.758 12.461,3.758 5.918,0 11.313,-2.305 15.352,-6.051 1.687,0.407 3.437,0.645 5.266,0.645 9.14,0 17.047,-5.5 20.578,-13.383 9.281,-2.809 16.035,-11.418 16.035,-21.605 0,-2.047 -0.274,-4.02 -0.777,-5.895 2.894,-3.801 4.632,-8.547 4.632,-13.695 z"
         style="fill:#cccccc;fill-opacity:1;fill-rule:nonzero;stroke:none"
         id="path14"
         inkscape:connector-curvature="0" /><path
         d="m 178.461,86.129 c -5.539,28.496 -36.406,20.578 -47.289,17.019 -9.672,-3.164 -11.473,2.965 -11.473,2.965 -2.66,4.953 -3.703,23.403 -4.058,41.778 l -12.278,0 c -0.011,-11.61 0.157,-23.629 0.703,-33.266 1.582,-27.898 18.399,-28.496 8.114,-47.488 C 101.891,48.145 79.734,51.707 71.426,43.395 69.832,41.805 68.582,39.074 67.59,35.719 l 9.336,-8.43 c 2.683,11.715 16.855,8.195 16.855,8.195 60.742,-19.98 90.215,22.161 84.68,50.645 z m -51.758,9.984 c 2.863,0 5.195,-2.324 5.195,-5.199 0,-2.867 -2.332,-5.191 -5.195,-5.191 -2.871,0 -5.199,2.324 -5.199,5.191 0,2.871 2.324,5.199 5.199,5.199 z m -19.137,28.239 c 0,1.597 1.297,2.89 2.891,2.89 1.598,0 2.891,-1.293 2.891,-2.89 0,-1.598 -1.293,-2.891 -2.891,-2.891 -1.594,0 -2.891,1.293 -2.891,2.891 z m 7.918,-28.707 c -1.851,0 -3.355,1.503 -3.355,3.351 0,1.856 1.504,3.352 3.355,3.352 1.852,0 3.352,-1.5 3.352,-3.352 0,-1.848 -1.5,-3.351 -3.352,-3.351 z m 45.645,-40.207 c -8.27,-10.079 -20.828,-19.067 -42.317,-17.911 -21.484,1.161 -12.656,11.078 -7.257,15.391 7.8,6.227 9.507,13.832 9.507,13.832 0,0 0.821,4.066 4.778,4.629 3.965,0.566 5.726,-3.457 9.359,-3.262 3.633,0.199 4.196,2.61 9.617,3.317 5.422,0.711 6.668,-4.094 10.301,-3.707 3.625,0.39 5.195,5.003 9.223,5.101 4.019,0.102 5.062,-7.308 -3.211,-17.39 z"
         style="fill:#cccccc;fill-opacity:1;fill-rule:nonzero;stroke:none"
         id="path16"
         inkscape:connector-curvature="0" /><path
         d="m 114.203,256.281 c 5.613,0 10.168,4.559 10.168,10.172 0,5.606 -4.555,10.168 -10.168,10.168 -5.609,0 -10.16,-4.562 -10.16,-10.168 0,-5.613 4.551,-10.172 10.16,-10.172 z"
         style="fill:#cccccc;fill-opacity:1;fill-rule:nonzero;stroke:none"
         id="path18"
         inkscape:connector-curvature="0" /><path
         d="m 92.188,210.777 c 3.234,0 5.855,2.621 5.855,5.856 l 0,27.445 2.301,0 0,-85.156 c 0,-3.231 2.621,-5.856 5.855,-5.856 3.231,0 5.856,2.625 5.856,5.856 l 0,45.012 4.308,0 0,-45.012 c 0,-3.231 2.621,-5.856 5.856,-5.856 3.23,0 5.855,2.625 5.855,5.856 l 0,85.156 2.301,0 0,-27.445 c 0,-3.235 2.621,-5.856 5.855,-5.856 3.231,0 5.856,2.621 5.856,5.856 l 0,25.004 c 0,5.976 -3.027,11.336 -9.512,11.336 l -36.734,0 c -7.078,0 -9.508,-6.16 -9.508,-11.336 l 0,-25.004 c 0,-3.235 2.621,-5.856 5.856,-5.856 z"
         style="fill:#cccccc;fill-opacity:1;fill-rule:nonzero;stroke:none"
         id="path20"
         inkscape:connector-curvature="0" /><path
         d="m 59.172,235.703 c 4.492,0 8.14,3.649 8.14,8.141 0,4.488 -3.648,8.144 -8.14,8.144 -4.492,0 -8.137,-3.652 -8.137,-8.144 0,-4.492 3.645,-8.141 8.137,-8.141 z"
         style="fill:#cccccc;fill-opacity:1;fill-rule:nonzero;stroke:none"
         id="path22"
         inkscape:connector-curvature="0" /><path
         d="m 41.543,199.27 c 2.594,0 4.687,2.097 4.687,4.687 l 0,21.977 1.844,0 0,-68.176 c 0,-2.59 2.098,-4.688 4.688,-4.688 2.586,0 4.687,2.098 4.687,4.688 l 0,36.035 3.453,0 0,-36.039 c 0,-2.59 2.098,-4.688 4.688,-4.688 2.59,0 4.687,2.098 4.687,4.688 l 0,68.18 1.84,0 0,-21.977 c 0,-2.586 2.098,-4.687 4.688,-4.687 2.59,0 4.687,2.101 4.687,4.687 l 0,20.02 c 0,4.785 -2.426,9.078 -7.613,9.078 l -29.41,0 c -5.664,0 -7.614,-4.93 -7.614,-9.078 l 0,-20.02 c 0,-2.586 2.102,-4.687 4.688,-4.687 z"
         style="fill:#cccccc;fill-opacity:1;fill-rule:nonzero;stroke:none"
         id="path24"
         inkscape:connector-curvature="0" /><path
         d="m 14.41,206.426 c 2.899,0 5.254,2.355 5.254,5.258 0,2.898 -2.355,5.257 -5.254,5.257 -2.902,0 -5.254,-2.359 -5.254,-5.257 0,-2.903 2.352,-5.258 5.254,-5.258 z"
         style="fill:#cccccc;fill-opacity:1;fill-rule:nonzero;stroke:none"
         id="path26"
         inkscape:connector-curvature="0" /><path
         d="m 3.027,182.902 c 1.676,0 3.028,1.352 3.028,3.024 l 0,14.187 1.187,0 0,-44.019 c 0,-1.672 1.356,-3.028 3.028,-3.028 1.671,0 3.027,1.356 3.027,3.028 l 0,18.902 2.226,0 0,-18.898 c 0,-1.676 1.356,-3.028 3.028,-3.028 1.672,0 3.027,1.352 3.027,3.028 l 0,44.015 1.188,0 0,-14.187 c 0,-1.672 1.355,-3.024 3.027,-3.024 1.672,0 3.027,1.352 3.027,3.024 l 0,12.929 c 0,3.086 -1.562,5.86 -4.914,5.86 l -18.988,0 C 1.258,204.715 0,201.531 0,198.855 l 0,-12.929 c 0,-1.672 1.355,-3.024 3.027,-3.024 z"
         style="fill:#cccccc;fill-opacity:1;fill-rule:nonzero;stroke:none"
         id="path28"
         inkscape:connector-curvature="0" /><path
         d="m 307.73,57.703 c 0,-21.101 -17.109,-38.211 -38.21,-38.211 -21.106,0 -38.211,17.11 -38.211,38.211 0,21.106 17.105,38.211 38.211,38.211 21.101,0 38.21,-17.105 38.21,-38.211 z"
         style="fill:#cccccc;fill-opacity:1;fill-rule:nonzero;stroke:none"
         id="path30"
         inkscape:connector-curvature="0" /><path
         d="m 255.121,101.207 4.84,1.586 3.57,-10.891 -4.84,-1.586 -3.57,10.891 z"
         style="fill:#cccccc;fill-opacity:1;fill-rule:nonzero;stroke:none"
         id="path32"
         inkscape:connector-curvature="0" /><path
         d="m 233.652,89.723 4.243,2.82 L 244.242,83 240,80.176 l -6.348,9.547 z"
         style="fill:#cccccc;fill-opacity:1;fill-rule:nonzero;stroke:none"
         id="path34"
         inkscape:connector-curvature="0" /><path
         d="m 223.305,67.656 0.89,5.02 11.289,-2.004 -0.89,-5.016 -11.289,2 z"
         style="fill:#cccccc;fill-opacity:1;fill-rule:nonzero;stroke:none"
         id="path36"
         inkscape:connector-curvature="0" /><path
         d="m 233.184,51.32 1.839,-4.75 -10.687,-4.14 -1.84,4.75 10.688,4.14 z"
         style="fill:#cccccc;fill-opacity:1;fill-rule:nonzero;stroke:none"
         id="path38"
         inkscape:connector-curvature="0" /><path
         d="m 312.848,52.277 c 0,0 -0.118,-0.742 -0.286,-1.855 -0.105,-0.551 -0.136,-1.215 -0.324,-1.891 -0.176,-0.679 -0.363,-1.406 -0.55,-2.133 -0.211,-0.714 -0.321,-1.468 -0.586,-2.117 -0.247,-0.66 -0.473,-1.277 -0.668,-1.804 l -0.633,-1.762 13.344,-5.633 c 0,0 0.343,0.938 0.867,2.344 0.254,0.707 0.554,1.527 0.875,2.41 0.34,0.875 0.523,1.863 0.793,2.824 0.246,0.969 0.496,1.938 0.726,2.848 0.235,0.906 0.309,1.781 0.442,2.519 0.222,1.481 0.375,2.469 0.375,2.469 l -14.375,1.781 z"
         style="fill:#cccccc;fill-opacity:1;fill-rule:nonzero;stroke:none"
         id="path40"
         inkscape:connector-curvature="0" /><path
         d="m 316.473,37.898 c -1.836,0.782 -3.25,2.2 -4.09,3.723 -0.844,1.539 -1.035,3.16 -0.695,4.781 0.203,0.801 0.597,1.512 1.144,2.141 0.516,0.633 1.094,1.199 1.84,1.652 1.465,0.907 3.379,1.43 5.363,1.192 1.981,-0.239 3.656,-1.262 4.738,-2.86 0.532,-0.793 0.961,-1.73 1.118,-2.73 0.129,-0.992 0.062,-2.067 -0.211,-3.137 -0.485,-2.164 -2.012,-3.789 -3.711,-4.633 -1.711,-0.855 -3.66,-0.91 -5.496,-0.129 z"
         style="fill:#cccccc;fill-opacity:1;fill-rule:evenodd;stroke:none"
         id="path42"
         inkscape:connector-curvature="0" /><path
         d="m 304.324,31.359 c 0,0 -0.453,-0.601 -1.125,-1.504 -0.758,-0.832 -1.769,-1.945 -2.777,-3.054 -1.113,-1.012 -2.223,-2.02 -3.055,-2.778 -0.906,-0.675 -1.508,-1.125 -1.508,-1.125 l 8.754,-11.543 c 0,0 0.793,0.606 1.989,1.512 1.109,1.004 2.586,2.348 4.062,3.692 1.344,1.476 2.684,2.953 3.691,4.062 0.907,1.192 1.508,1.988 1.508,1.988 l -11.539,8.75 z"
         style="fill:#cccccc;fill-opacity:1;fill-rule:nonzero;stroke:none"
         id="path44"
         inkscape:connector-curvature="0" /><path
         d="m 300.238,17.125 c -1.203,1.598 -1.691,3.496 -1.613,5.184 0.02,1.777 0.563,3.39 1.797,4.492 1.098,1.234 2.715,1.777 4.492,1.797 1.688,0.078 3.586,-0.41 5.18,-1.618 1.594,-1.199 2.554,-2.941 2.722,-4.89 0.094,-1.871 -0.656,-3.902 -2.152,-5.531 -1.625,-1.496 -3.66,-2.25 -5.531,-2.157 -1.949,0.172 -3.692,1.129 -4.895,2.723 z"
         style="fill:#cccccc;fill-opacity:1;fill-rule:evenodd;stroke:none"
         id="path46"
         inkscape:connector-curvature="0" /><path
         d="m 286.504,17.422 c 0,0 -0.703,-0.254 -1.762,-0.633 -0.527,-0.195 -1.14,-0.422 -1.801,-0.668 -0.652,-0.266 -1.402,-0.375 -2.117,-0.586 -0.726,-0.187 -1.453,-0.375 -2.133,-0.551 -0.675,-0.187 -1.339,-0.222 -1.894,-0.324 -1.109,-0.168 -1.852,-0.285 -1.852,-0.285 L 276.727,0 c 0,0 0.988,0.152 2.468,0.379 0.739,0.129 1.614,0.203 2.52,0.437 0.91,0.235 1.879,0.481 2.847,0.727 0.961,0.273 1.95,0.453 2.825,0.793 0.883,0.32 1.703,0.617 2.41,0.879 1.406,0.519 2.344,0.867 2.344,0.867 l -5.637,13.34 z"
         style="fill:#cccccc;fill-opacity:1;fill-rule:nonzero;stroke:none"
         id="path48"
         inkscape:connector-curvature="0" /><path
         d="m 275.836,7.188 c -0.238,1.984 0.289,3.898 1.195,5.359 0.453,0.746 1.02,1.328 1.653,1.844 0.625,0.547 1.339,0.941 2.14,1.144 1.621,0.34 3.242,0.145 4.778,-0.695 1.523,-0.844 2.941,-2.254 3.726,-4.094 0.781,-1.832 0.727,-3.785 -0.129,-5.492 -0.844,-1.699 -2.469,-3.227 -4.633,-3.711 -1.07,-0.277 -2.14,-0.34 -3.136,-0.211 -1,0.156 -1.938,0.586 -2.731,1.113 -1.601,1.082 -2.625,2.758 -2.863,4.743 z"
         style="fill:#cccccc;fill-opacity:1;fill-rule:evenodd;stroke:none"
         id="path50"
         inkscape:connector-curvature="0" /><path
         d="m 264.09,14.375 c 0,0 -0.742,0.117 -1.852,0.285 -0.554,0.102 -1.215,0.137 -1.894,0.324 -0.68,0.176 -1.403,0.364 -2.129,0.551 -0.719,0.211 -1.469,0.32 -2.121,0.586 -0.656,0.246 -1.274,0.473 -1.801,0.668 -1.059,0.379 -1.762,0.633 -1.762,0.633 L 246.898,4.078 c 0,0 0.938,-0.344 2.344,-0.867 0.703,-0.254 1.528,-0.555 2.406,-0.875 0.875,-0.34 1.868,-0.523 2.825,-0.793 0.972,-0.246 1.937,-0.496 2.847,-0.727 0.91,-0.234 1.785,-0.308 2.52,-0.441 C 261.324,0.148 262.312,0 262.312,0 l 1.778,14.375 z"
         style="fill:#cccccc;fill-opacity:1;fill-rule:nonzero;stroke:none"
         id="path52"
         inkscape:connector-curvature="0" /><path
         d="m 249.711,10.75 c 0.781,1.836 2.203,3.25 3.727,4.09 1.539,0.844 3.156,1.035 4.777,0.695 0.801,-0.203 1.512,-0.597 2.14,-1.144 0.633,-0.516 1.2,-1.094 1.653,-1.84 0.906,-1.465 1.433,-3.379 1.191,-5.363 -0.238,-1.981 -1.261,-3.657 -2.855,-4.739 -0.797,-0.531 -1.735,-0.961 -2.735,-1.117 -0.992,-0.129 -2.062,-0.066 -3.132,0.211 -2.168,0.484 -3.793,2.012 -4.637,3.711 -0.856,1.711 -0.91,3.66 -0.129,5.496 z"
         style="fill:#cccccc;fill-opacity:1;fill-rule:evenodd;stroke:none"
         id="path54"
         inkscape:connector-curvature="0" /><path
         d="m 243.176,22.898 c 0,0 -0.602,0.454 -1.504,1.125 -0.832,0.758 -1.945,1.77 -3.059,2.778 -1.008,1.113 -2.019,2.222 -2.777,3.058 -0.672,0.903 -1.121,1.504 -1.121,1.504 l -11.543,-8.754 c 0,0 0.601,-0.793 1.508,-1.988 1.008,-1.109 2.351,-2.586 3.691,-4.062 1.477,-1.344 2.957,-2.684 4.063,-3.692 1.195,-0.906 1.992,-1.508 1.992,-1.508 l 8.75,11.539 z"
         style="fill:#cccccc;fill-opacity:1;fill-rule:nonzero;stroke:none"
         id="path56"
         inkscape:connector-curvature="0" /><path
         d="m 228.941,26.984 c 1.594,1.204 3.493,1.692 5.18,1.614 1.781,-0.02 3.395,-0.563 4.496,-1.797 1.235,-1.102 1.778,-2.715 1.797,-4.492 0.074,-1.688 -0.414,-3.586 -1.617,-5.18 -1.199,-1.594 -2.942,-2.555 -4.891,-2.723 -1.871,-0.093 -3.902,0.657 -5.531,2.153 -1.496,1.625 -2.25,3.66 -2.156,5.531 0.168,1.949 1.129,3.691 2.722,4.894 z"
         style="fill:#cccccc;fill-opacity:1;fill-rule:evenodd;stroke:none"
         id="path58"
         inkscape:connector-curvature="0" /><path
         d="m 229.238,40.715 c 0,0 -0.258,0.707 -0.636,1.765 -0.196,0.524 -0.422,1.141 -0.664,1.801 -0.27,0.649 -0.379,1.403 -0.586,2.117 -0.192,0.727 -0.379,1.454 -0.555,2.133 -0.184,0.676 -0.219,1.34 -0.32,1.891 -0.172,1.113 -0.286,1.855 -0.286,1.855 l -14.375,-1.781 c 0,0 0.149,-0.988 0.375,-2.469 0.133,-0.738 0.207,-1.613 0.442,-2.519 0.23,-0.91 0.476,-1.879 0.726,-2.848 0.27,-0.961 0.453,-1.949 0.793,-2.824 0.321,-0.883 0.618,-1.703 0.875,-2.41 0.52,-1.406 0.868,-2.344 0.868,-2.344 l 13.343,5.633 z"
         style="fill:#cccccc;fill-opacity:1;fill-rule:nonzero;stroke:none"
         id="path60"
         inkscape:connector-curvature="0" /><path
         d="m 219,51.387 c 1.984,0.238 3.898,-0.289 5.359,-1.196 0.746,-0.453 1.329,-1.019 1.844,-1.652 0.547,-0.629 0.942,-1.34 1.145,-2.141 0.34,-1.621 0.148,-3.242 -0.696,-4.777 -0.84,-1.523 -2.254,-2.941 -4.09,-3.723 -1.835,-0.785 -3.785,-0.73 -5.496,0.125 -1.699,0.844 -3.226,2.465 -3.711,4.633 -0.277,1.071 -0.339,2.141 -0.21,3.137 0.156,1 0.585,1.937 1.113,2.73 1.086,1.602 2.762,2.625 4.742,2.864 z"
         style="fill:#cccccc;fill-opacity:1;fill-rule:evenodd;stroke:none"
         id="path62"
         inkscape:connector-curvature="0" /><path
         d="m 226.191,63.133 c 0,0 0.114,0.738 0.286,1.851 0.101,0.555 0.136,1.215 0.32,1.895 0.176,0.68 0.363,1.402 0.555,2.129 0.207,0.719 0.316,1.469 0.586,2.121 0.242,0.656 0.468,1.273 0.664,1.801 0.378,1.054 0.636,1.761 0.636,1.761 l -13.343,5.637 c 0,0 -0.348,-0.937 -0.868,-2.344 -0.257,-0.707 -0.554,-1.527 -0.879,-2.41 -0.339,-0.875 -0.519,-1.863 -0.793,-2.824 -0.246,-0.969 -0.492,-1.937 -0.726,-2.848 -0.231,-0.906 -0.305,-1.781 -0.438,-2.519 -0.226,-1.485 -0.375,-2.469 -0.375,-2.469 l 14.375,-1.781 z"
         style="fill:#cccccc;fill-opacity:1;fill-rule:nonzero;stroke:none"
         id="path64"
         inkscape:connector-curvature="0" /><path
         d="m 222.562,77.512 c 1.84,-0.785 3.25,-2.203 4.09,-3.727 0.844,-1.539 1.036,-3.156 0.7,-4.777 -0.207,-0.801 -0.602,-1.516 -1.145,-2.141 -0.519,-0.633 -1.098,-1.199 -1.844,-1.652 -1.465,-0.906 -3.379,-1.434 -5.359,-1.192 -1.984,0.239 -3.66,1.262 -4.742,2.856 -0.528,0.793 -0.957,1.734 -1.114,2.734 -0.128,0.992 -0.066,2.067 0.211,3.133 0.481,2.168 2.012,3.793 3.711,4.637 1.707,0.855 3.657,0.91 5.492,0.129 z"
         style="fill:#cccccc;fill-opacity:1;fill-rule:evenodd;stroke:none"
         id="path66"
         inkscape:connector-curvature="0" /><path
         d="m 234.715,84.047 c 0,0 0.449,0.601 1.121,1.504 0.758,0.832 1.769,1.945 2.777,3.058 1.114,1.008 2.227,2.02 3.059,2.778 0.902,0.672 1.504,1.121 1.504,1.121 l -8.754,11.543 c 0,0 -0.793,-0.606 -1.988,-1.508 -1.11,-1.008 -2.586,-2.352 -4.063,-3.691 -1.344,-1.481 -2.683,-2.957 -3.691,-4.063 -0.907,-1.195 -1.508,-1.988 -1.508,-1.988 l 11.543,-8.754 z"
         style="fill:#cccccc;fill-opacity:1;fill-rule:nonzero;stroke:none"
         id="path68"
         inkscape:connector-curvature="0" /><path
         d="m 238.797,98.281 c 1.203,-1.593 1.691,-3.492 1.613,-5.179 -0.015,-1.782 -0.562,-3.395 -1.797,-4.497 -1.101,-1.234 -2.711,-1.777 -4.492,-1.796 -1.687,-0.079 -3.586,0.414 -5.18,1.617 -1.593,1.199 -2.554,2.941 -2.722,4.89 -0.094,1.872 0.66,3.903 2.152,5.532 1.629,1.496 3.664,2.25 5.535,2.156 1.949,-0.168 3.692,-1.129 4.891,-2.723 z"
         style="fill:#cccccc;fill-opacity:1;fill-rule:evenodd;stroke:none"
         id="path70"
         inkscape:connector-curvature="0" /><path
         d="m 252.531,97.984 c 0,0 0.703,0.254 1.762,0.637 0.527,0.195 1.141,0.422 1.801,0.664 0.652,0.27 1.402,0.379 2.121,0.586 0.723,0.188 1.449,0.379 2.129,0.555 0.679,0.183 1.34,0.219 1.89,0.32 1.114,0.172 1.856,0.285 1.856,0.285 l -1.781,14.375 c 0,0 -0.989,-0.152 -2.469,-0.375 -0.738,-0.133 -1.613,-0.207 -2.52,-0.441 -0.91,-0.231 -1.879,-0.477 -2.847,-0.727 -0.961,-0.269 -1.95,-0.453 -2.825,-0.793 -0.878,-0.32 -1.703,-0.617 -2.41,-0.875 -1.406,-0.519 -2.343,-0.867 -2.343,-0.867 l 5.636,-13.344 z"
         style="fill:#cccccc;fill-opacity:1;fill-rule:nonzero;stroke:none"
         id="path72"
         inkscape:connector-curvature="0" /><path
         d="m 263.199,108.223 c 0.242,-1.985 -0.285,-3.899 -1.191,-5.364 -0.453,-0.742 -1.02,-1.324 -1.653,-1.839 -0.628,-0.547 -1.339,-0.942 -2.144,-1.145 -1.617,-0.34 -3.238,-0.148 -4.777,0.695 -1.524,0.84 -2.942,2.254 -3.723,4.09 -0.781,1.836 -0.727,3.785 0.129,5.496 0.844,1.699 2.465,3.227 4.633,3.711 1.07,0.274 2.14,0.336 3.136,0.211 1,-0.156 1.938,-0.586 2.731,-1.113 1.598,-1.086 2.621,-2.762 2.859,-4.742 z"
         style="fill:#cccccc;fill-opacity:1;fill-rule:evenodd;stroke:none"
         id="path74"
         inkscape:connector-curvature="0" /><path
         d="m 274.945,101.031 c 0,0 0.743,-0.113 1.852,-0.285 0.555,-0.101 1.219,-0.137 1.894,-0.32 0.68,-0.176 1.407,-0.367 2.133,-0.555 0.715,-0.207 1.465,-0.316 2.117,-0.586 0.661,-0.242 1.274,-0.469 1.801,-0.664 1.059,-0.383 1.762,-0.637 1.762,-0.637 l 5.637,13.344 c 0,0 -0.938,0.348 -2.344,0.867 -0.707,0.258 -1.527,0.555 -2.41,0.879 -0.875,0.34 -1.864,0.52 -2.825,0.793 -0.968,0.246 -1.937,0.492 -2.847,0.727 -0.906,0.23 -1.781,0.304 -2.52,0.437 -1.48,0.227 -2.468,0.375 -2.468,0.375 l -1.782,-14.375 z"
         style="fill:#cccccc;fill-opacity:1;fill-rule:nonzero;stroke:none"
         id="path76"
         inkscape:connector-curvature="0" /><path
         d="m 289.324,104.66 c -0.781,-1.84 -2.199,-3.25 -3.722,-4.09 -1.54,-0.843 -3.161,-1.035 -4.782,-0.699 -0.8,0.207 -1.511,0.602 -2.14,1.145 -0.633,0.519 -1.2,1.097 -1.653,1.843 -0.906,1.461 -1.429,3.379 -1.191,5.36 0.238,1.984 1.262,3.66 2.859,4.742 0.789,0.527 1.731,0.957 2.731,1.113 0.992,0.129 2.066,0.067 3.136,-0.211 2.165,-0.484 3.79,-2.011 4.633,-3.711 0.856,-1.707 0.91,-3.656 0.129,-5.492 z"
         style="fill:#cccccc;fill-opacity:1;fill-rule:evenodd;stroke:none"
         id="path78"
         inkscape:connector-curvature="0" /><path
         d="m 295.863,92.508 c 0,0 0.602,-0.449 1.504,-1.121 0.832,-0.758 1.945,-1.77 3.055,-2.778 1.012,-1.113 2.019,-2.222 2.777,-3.058 0.676,-0.903 1.125,-1.504 1.125,-1.504 l 11.543,8.754 c 0,0 -0.605,0.793 -1.508,1.988 -1.007,1.109 -2.351,2.586 -3.695,4.063 -1.476,1.339 -2.953,2.683 -4.062,3.691 -1.192,0.902 -1.989,1.508 -1.989,1.508 l -8.75,-11.543 z"
         style="fill:#cccccc;fill-opacity:1;fill-rule:nonzero;stroke:none"
         id="path80"
         inkscape:connector-curvature="0" /><path
         d="m 310.098,88.426 c -1.598,-1.203 -3.496,-1.692 -5.184,-1.613 -1.777,0.015 -3.394,0.562 -4.492,1.796 -1.234,1.098 -1.777,2.711 -1.797,4.493 -0.078,1.687 0.41,3.586 1.613,5.179 1.203,1.594 2.946,2.551 4.895,2.723 1.871,0.094 3.902,-0.66 5.531,-2.152 1.496,-1.629 2.25,-3.664 2.156,-5.532 -0.172,-1.953 -1.129,-3.695 -2.722,-4.894 z"
         style="fill:#cccccc;fill-opacity:1;fill-rule:evenodd;stroke:none"
         id="path82"
         inkscape:connector-curvature="0" /><path
         d="m 309.801,74.691 0.633,-1.761 c 0.195,-0.528 0.421,-1.145 0.668,-1.801 0.265,-0.652 0.375,-1.402 0.586,-2.121 0.183,-0.727 0.374,-1.453 0.55,-2.129 0.188,-0.68 0.219,-1.344 0.324,-1.895 0.168,-1.113 0.286,-1.851 0.286,-1.851 l 14.375,1.781 c 0,0 -0.153,0.988 -0.379,2.469 -0.129,0.738 -0.203,1.613 -0.438,2.519 -0.234,0.911 -0.48,1.879 -0.726,2.848 -0.274,0.961 -0.453,1.949 -0.793,2.824 -0.321,0.883 -0.621,1.703 -0.875,2.41 -0.524,1.407 -0.871,2.344 -0.871,2.344 l -13.34,-5.637 z"
         style="fill:#cccccc;fill-opacity:1;fill-rule:nonzero;stroke:none"
         id="path84"
         inkscape:connector-curvature="0" /><path
         d="m 320.035,64.023 c -1.984,-0.242 -3.898,0.286 -5.363,1.192 -0.742,0.453 -1.324,1.019 -1.84,1.652 -0.547,0.629 -0.941,1.34 -1.144,2.145 -0.34,1.617 -0.145,3.238 0.695,4.777 0.844,1.524 2.254,2.938 4.094,3.723 1.832,0.781 3.785,0.726 5.492,-0.129 1.699,-0.844 3.226,-2.469 3.711,-4.633 0.277,-1.07 0.34,-2.141 0.211,-3.137 -0.157,-1 -0.586,-1.937 -1.114,-2.73 -1.082,-1.598 -2.757,-2.621 -4.742,-2.86 z"
         style="fill:#cccccc;fill-opacity:1;fill-rule:evenodd;stroke:none"
         id="path86"
         inkscape:connector-curvature="0" /><path
         d="m 256.656,23.699 5,-0.98 -2.207,-11.25 -5,0.98 2.207,11.25 z"
         style="fill:#cccccc;fill-opacity:1;fill-rule:nonzero;stroke:none"
         id="path88"
         inkscape:connector-curvature="0" /><path
         d="m 241.969,35.07 3.898,-3.281 -7.383,-8.769 -3.898,3.281 7.383,8.769 z"
         style="fill:#cccccc;fill-opacity:1;fill-rule:nonzero;stroke:none"
         id="path90"
         inkscape:connector-curvature="0" /><path
         d="m 277.137,22.531 4.945,1.227 2.758,-11.129 -4.945,-1.223 -2.758,11.125 z"
         style="fill:#cccccc;fill-opacity:1;fill-rule:nonzero;stroke:none"
         id="path92"
         inkscape:connector-curvature="0" /><path
         d="m 294.902,33.84 4.325,2.691 6.054,-9.734 -4.324,-2.692 -6.055,9.735 z"
         style="fill:#cccccc;fill-opacity:1;fill-rule:nonzero;stroke:none"
         id="path94"
         inkscape:connector-curvature="0" /><path
         d="m 279.348,104.086 4.765,-1.801 -4.051,-10.722 -4.765,1.8 4.051,10.723 z"
         style="fill:#cccccc;fill-opacity:1;fill-rule:nonzero;stroke:none"
         id="path96"
         inkscape:connector-curvature="0" /><path
         d="m 304.004,48.195 2.101,4.641 10.446,-4.727 -2.102,-4.64 -10.445,4.726 z"
         style="fill:#cccccc;fill-opacity:1;fill-rule:nonzero;stroke:none"
         id="path98"
         inkscape:connector-curvature="0" /><path
         d="m 314.637,71.766 1.906,-4.727 -10.633,-4.285 -1.906,4.726 10.633,4.286 z"
         style="fill:#cccccc;fill-opacity:1;fill-rule:nonzero;stroke:none"
         id="path100"
         inkscape:connector-curvature="0" /><path
         d="m 301.043,93.5 3.617,-3.59 -8.074,-8.137 -3.617,3.59 8.074,8.137 z"
         style="fill:#cccccc;fill-opacity:1;fill-rule:nonzero;stroke:none"
         id="path102"
         inkscape:connector-curvature="0" /><path
         d="m 150.727,117.598 0,94.851"
         style="fill:#cccccc;stroke:#000000;stroke-width:0.80000001;stroke-linecap:butt;stroke-linejoin:miter;stroke-miterlimit:4;stroke-dasharray:none;stroke-opacity:1"
         id="path114"
         inkscape:connector-curvature="0" /><g
         id="g116"
         transform="matrix(0,-1,1,0,0,276.62112)"
         style="fill:#cccccc"><path
           d="m 72.723,154.277 -9.614,-3.535 9.614,-3.539 c -1.536,2.09 -1.528,4.945 0,7.074 z"
           style="fill:#000000;fill-opacity:1;fill-rule:evenodd;stroke:#000000;stroke-width:0.55000001;stroke-linecap:butt;stroke-linejoin:round;stroke-miterlimit:4;stroke-dasharray:none;stroke-opacity:1"
           id="path118"
           inkscape:connector-curvature="0" /></g><path
         d="m 144.23,123.441 137.731,0"
         style="fill:#cccccc;stroke:#000000;stroke-width:0.80000001;stroke-linecap:butt;stroke-linejoin:miter;stroke-miterlimit:4;stroke-dasharray:none;stroke-opacity:1"
         id="path120"
         inkscape:connector-curvature="0" /><g
         id="g122"
         transform="matrix(-1,0,0,-1,0,276.62112)"
         style="fill:#cccccc"><path
           d="m -273.41,156.727 -9.613,-3.536 9.613,-3.535 c -1.535,2.086 -1.528,4.946 0,7.071 z"
           style="fill:#000000;fill-opacity:1;fill-rule:evenodd;stroke:#000000;stroke-width:0.55000001;stroke-linecap:butt;stroke-linejoin:round;stroke-miterlimit:4;stroke-dasharray:none;stroke-opacity:1"
           id="path124"
           inkscape:connector-curvature="0" /></g><path
         d="M 154.324,198.855 276.465,130.637"
         style="fill:#cccccc;stroke:#000000;stroke-width:0.80000001;stroke-linecap:butt;stroke-linejoin:miter;stroke-miterlimit:4;stroke-dasharray:none;stroke-opacity:1"
         id="path126"
         inkscape:connector-curvature="0" /><text
         transform="matrix(0,1,1,0,143.52695,126.03153)"
         style="font-variant:normal;font-weight:normal;font-size:12px;font-family:'Linux Libertine';-inkscape-font-specification:LinLibertine;writing-mode:lr-tb;fill:#cccccc;fill-opacity:1;fill-rule:nonzero;stroke:none"
         id="text128"><tspan
           sodipodi:role="line"
           id="tspan130"
           x="0"
           y="0" /></text>
</g><text
       xml:space="preserve"
       style="font-style:normal;font-variant:normal;font-weight:normal;font-stretch:normal;font-size:16px;line-height:125%;font-family:Roboto;-inkscape-font-specification:Roboto;text-align:center;letter-spacing:0px;word-spacing:0px;text-anchor:middle;fill:#000000;fill-opacity:1;stroke:none;stroke-width:1px;stroke-linecap:butt;stroke-linejoin:miter;stroke-opacity:1"
       x="72.085587"
       y="-202.77736"
       id="text4290"
       sodipodi:linespacing="125%"
       transform="scale(1,-1)"><tspan
         sodipodi:role="line"
         id="tspan4292"
         x="72.085587"
         y="-202.77736">Growth</tspan></text>
<text
       xml:space="preserve"
       style="font-style:normal;font-variant:normal;font-weight:normal;font-stretch:normal;font-size:16px;line-height:125%;font-family:Roboto;-inkscape-font-specification:Roboto;text-align:center;letter-spacing:0px;word-spacing:0px;text-anchor:middle;fill:#000000;fill-opacity:1;stroke:none;stroke-width:1px;stroke-linecap:butt;stroke-linejoin:miter;stroke-opacity:1"
       x="243.21559"
       y="-227.39194"
       id="text4294"
       sodipodi:linespacing="125%"
       transform="scale(1,-1)"><tspan
         sodipodi:role="line"
         id="tspan4296"
         x="243.21559"
         y="-227.39194">Learning</tspan></text>
<text
       xml:space="preserve"
       style="font-style:normal;font-variant:normal;font-weight:normal;font-stretch:normal;font-size:16px;line-height:125%;font-family:Roboto;-inkscape-font-specification:Roboto;text-align:center;letter-spacing:0px;word-spacing:0px;text-anchor:middle;fill:#000000;fill-opacity:1;stroke:none;stroke-width:1px;stroke-linecap:butt;stroke-linejoin:miter;stroke-opacity:1"
       x="269.00232"
       y="-52.745567"
       id="text4298"
       sodipodi:linespacing="125%"
       transform="scale(1,-1)"><tspan
         sodipodi:role="line"
         id="tspan4300"
         x="269.00232"
         y="-52.745567">Immune System</tspan></text>
<text
       xml:space="preserve"
       style="font-style:normal;font-variant:normal;font-weight:normal;font-stretch:normal;font-size:16px;line-height:125%;font-family:Roboto;-inkscape-font-specification:Roboto;text-align:center;letter-spacing:0px;word-spacing:0px;text-anchor:middle;fill:#000000;fill-opacity:1;stroke:none;stroke-width:1px;stroke-linecap:butt;stroke-linejoin:miter;stroke-opacity:1"
       x="134.79419"
       y="-69.155289"
       id="text4302"
       sodipodi:linespacing="125%"
       transform="scale(1,-1)"><tspan
         sodipodi:role="line"
         id="tspan4304"
         x="134.79419"
         y="-69.155289">Digestive System</tspan></text>
<text
       xml:space="preserve"
       style="font-style:normal;font-weight:normal;font-size:10px;line-height:125%;font-family:sans-serif;text-align:center;letter-spacing:0px;word-spacing:0px;text-anchor:middle;fill:#000000;fill-opacity:1;stroke:none;stroke-width:1px;stroke-linecap:butt;stroke-linejoin:miter;stroke-opacity:1"
       x="104.26105"
       y="-254.9825"
       id="text4472"
       sodipodi:linespacing="125%"
       transform="matrix(0.8660254,-0.5,-0.5,-0.8660254,0,0)"><tspan
         sodipodi:role="line"
         id="tspan4474"
         x="104.26105"
         y="-254.9825"
         style="font-style:normal;font-variant:normal;font-weight:normal;font-stretch:normal;font-family:'Roboto Condensed';-inkscape-font-specification:'Roboto Condensed, '">log µ(x) = a - bx</tspan></text>
<text
       xml:space="preserve"
       style="font-style:normal;font-weight:normal;font-size:10px;line-height:125%;font-family:sans-serif;text-align:center;letter-spacing:0px;word-spacing:0px;text-anchor:middle;fill:#000000;fill-opacity:1;stroke:none;stroke-width:1px;stroke-linecap:butt;stroke-linejoin:miter;stroke-opacity:1"
       x="208.56287"
       y="-113.53778"
       id="text4476"
       sodipodi:linespacing="125%"
       transform="scale(1,-1)"><tspan
         sodipodi:role="line"
         id="tspan4478"
         x="208.56287"
         y="-113.53778"
         style="font-style:normal;font-variant:normal;font-weight:normal;font-stretch:normal;font-family:Roboto;-inkscape-font-specification:Roboto">Age of gestation</tspan></text>
<text
       xml:space="preserve"
       style="font-style:normal;font-weight:normal;font-size:10px;line-height:125%;font-family:sans-serif;text-align:center;letter-spacing:0px;word-spacing:0px;text-anchor:middle;fill:#000000;fill-opacity:1;stroke:none;stroke-width:1px;stroke-linecap:butt;stroke-linejoin:miter;stroke-opacity:1"
       x="164.68311"
       y="146.82962"
       id="text4484"
       sodipodi:linespacing="125%"
       transform="matrix(0,1,1,0,0,0)"><tspan
         sodipodi:role="line"
         id="tspan4486"
         x="164.68311"
         y="146.82962"
         style="font-style:normal;font-variant:normal;font-weight:normal;font-stretch:normal;font-family:Roboto;-inkscape-font-specification:Roboto">Hazard of death</tspan></text>
</g></svg>