<?xml version="1.0" encoding="UTF-8" standalone="no"?>
<!-- Created with Inkscape (http://www.inkscape.org/) -->

<svg
   xmlns:dc="http://purl.org/dc/elements/1.1/"
   xmlns:cc="http://creativecommons.org/ns#"
   xmlns:rdf="http://www.w3.org/1999/02/22-rdf-syntax-ns#"
   xmlns:svg="http://www.w3.org/2000/svg"
   xmlns="http://www.w3.org/2000/svg"
   xmlns:sodipodi="http://sodipodi.sourceforge.net/DTD/sodipodi-0.dtd"
   xmlns:inkscape="http://www.inkscape.org/namespaces/inkscape"
   id="svg14364"
   version="1.1"
   inkscape:version="0.91 r13725"
   xml:space="preserve"
   width="507.54242"
   height="349.86774"
   viewBox="0 0 507.54242 349.86774"
   sodipodi:docname="fi_hx_doc.svg"><sodipodi:namedview
     pagecolor="#ffffff"
     bordercolor="#666666"
     borderopacity="1"
     objecttolerance="10"
     gridtolerance="10"
     guidetolerance="10"
     inkscape:pageopacity="0"
     inkscape:pageshadow="2"
     inkscape:window-width="3440"
     inkscape:window-height="1416"
     id="namedview14366"
     showgrid="false"
     inkscape:zoom="2.6202899"
     inkscape:cx="455.79754"
     inkscape:cy="186.83977"
     inkscape:window-x="0"
     inkscape:window-y="24"
     inkscape:window-maximized="1"
     inkscape:current-layer="g14372"
     fit-margin-top="0"
     fit-margin-left="0"
     fit-margin-right="0"
     fit-margin-bottom="0" /><metadata
     id="metadata14370"><rdf:RDF><cc:Work
         rdf:about=""><dc:format>image/svg+xml</dc:format><dc:type
           rdf:resource="http://purl.org/dc/dcmitype/StillImage" /><dc:title></dc:title></cc:Work></rdf:RDF></metadata><defs
     id="defs14368"><clipPath
       id="clipPath14404"
       clipPathUnits="userSpaceOnUse"><path
         inkscape:connector-curvature="0"
         id="path14406"
         d="m 52.24,31.34 356.53,0 0,233.43 -356.53,0 0,-233.43 z" /></clipPath></defs><g
     transform="matrix(1.25,0,0,-1.25,-3.4200716,357.21012)"
     inkscape:label="fi_hx_doc"
     inkscape:groupmode="layer"
     id="g14372"><g
       id="g14374" /><g
       id="g14376" /><g
       id="g14378" /><g
       id="g14380" /><g
       id="g14382" /><g
       id="g14384" /><g
       id="g14386" /><g
       id="g14388" /><g
       id="g14390" /><g
       id="g14392" /><g
       id="g14394" /><g
       id="g14396" /><g
       id="g14398" /><g
       id="g14400"><g
         clip-path="url(#clipPath14404)"
         id="g14402"><path
           inkscape:connector-curvature="0"
           id="path14408"
           style="fill:none;stroke:#e5e5e5;stroke-width:1.07000005;stroke-linecap:butt;stroke-linejoin:round;stroke-miterlimit:10;stroke-dasharray:none;stroke-opacity:1"
           d="m 52.24,64.72 356.53,0" /><path
           inkscape:connector-curvature="0"
           id="path14410"
           style="fill:none;stroke:#e5e5e5;stroke-width:1.07000005;stroke-linecap:butt;stroke-linejoin:round;stroke-miterlimit:10;stroke-dasharray:none;stroke-opacity:1"
           d="m 52.24,128.61 356.53,0" /><path
           inkscape:connector-curvature="0"
           id="path14412"
           style="fill:none;stroke:#e5e5e5;stroke-width:1.07000005;stroke-linecap:butt;stroke-linejoin:round;stroke-miterlimit:10;stroke-dasharray:none;stroke-opacity:1"
           d="m 52.24,192.5 356.53,0" /><path
           inkscape:connector-curvature="0"
           id="path14414"
           style="fill:none;stroke:#e5e5e5;stroke-width:1.07000005;stroke-linecap:butt;stroke-linejoin:round;stroke-miterlimit:10;stroke-dasharray:none;stroke-opacity:1"
           d="m 52.24,256.39 356.53,0" /><path
           inkscape:connector-curvature="0"
           id="path14416"
           style="fill:none;stroke:#e5e5e5;stroke-width:1.07000005;stroke-linecap:butt;stroke-linejoin:round;stroke-miterlimit:10;stroke-dasharray:none;stroke-opacity:1"
           d="m 68.44,31.34 0,233.43" /><path
           inkscape:connector-curvature="0"
           id="path14418"
           style="fill:none;stroke:#e5e5e5;stroke-width:1.07000005;stroke-linecap:butt;stroke-linejoin:round;stroke-miterlimit:10;stroke-dasharray:none;stroke-opacity:1"
           d="m 101.33,31.34 0,233.43" /><path
           inkscape:connector-curvature="0"
           id="path14420"
           style="fill:none;stroke:#e5e5e5;stroke-width:1.07000005;stroke-linecap:butt;stroke-linejoin:round;stroke-miterlimit:10;stroke-dasharray:none;stroke-opacity:1"
           d="m 148.3,31.34 0,233.43" /><path
           inkscape:connector-curvature="0"
           id="path14422"
           style="fill:none;stroke:#e5e5e5;stroke-width:1.07000005;stroke-linecap:butt;stroke-linejoin:round;stroke-miterlimit:10;stroke-dasharray:none;stroke-opacity:1"
           d="m 195.27,31.34 0,233.43" /><path
           inkscape:connector-curvature="0"
           id="path14424"
           style="fill:none;stroke:#e5e5e5;stroke-width:1.07000005;stroke-linecap:butt;stroke-linejoin:round;stroke-miterlimit:10;stroke-dasharray:none;stroke-opacity:1"
           d="m 242.25,31.34 0,233.43" /><path
           inkscape:connector-curvature="0"
           id="path14426"
           style="fill:none;stroke:#e5e5e5;stroke-width:1.07000005;stroke-linecap:butt;stroke-linejoin:round;stroke-miterlimit:10;stroke-dasharray:none;stroke-opacity:1"
           d="m 289.22,31.34 0,233.43" /><path
           inkscape:connector-curvature="0"
           id="path14428"
           style="fill:none;stroke:#e5e5e5;stroke-width:1.07000005;stroke-linecap:butt;stroke-linejoin:round;stroke-miterlimit:10;stroke-dasharray:none;stroke-opacity:1"
           d="m 336.2,31.34 0,233.43" /><path
           inkscape:connector-curvature="0"
           id="path14430"
           style="fill:none;stroke:#e5e5e5;stroke-width:1.07000005;stroke-linecap:butt;stroke-linejoin:round;stroke-miterlimit:10;stroke-dasharray:none;stroke-opacity:1"
           d="m 383.17,31.34 0,233.43" /><path
           inkscape:connector-curvature="0"
           id="path14432"
           style="fill:#bdbdbd;fill-opacity:1;fill-rule:nonzero;stroke:none"
           d="m 68.44,254.16 4.7,0 0,-2.74 4.7,0 0,-7.23 4.7,0 0,0.1 4.69,0 0,-4.97 4.7,0 0,-2.27 4.7,0 0,-3.52 4.7,0 0,2.54 4.69,0 0,-2.93 4.7,0 0,0.01 4.7,0 0,2 4.7,0 0,0.82 4.69,0 0,1.87 4.7,0 0,0.33 4.7,0 0,2.65 4.7,0 0,3.67 4.69,0 0,0.64 4.7,0 0,0.3 4.7,0 0,-6.68 4.7,0 0,-9.91 4.69,0 0,-5.7 4.7,0 0,-5.75 4.7,0 0,-3.38 4.69,0 0,0.2 4.7,0 0,0 4.7,0 0,-2.33 4.7,0 0,0.56 4.69,0 0,-2.13 4.7,0 0,1.59 4.7,0 0,-7.5 4.7,0 0,-2.1 4.69,0 0,-2.06 4.7,0 0,0.53 4.7,0 0,-5.59 4.7,0 0,-4.2 4.69,0 0,-1.4 4.7,0 0,-2.34 4.7,0 0,-5.18 4.7,0 0,-0.43 4.69,0 0,-1.09 4.7,0 0,-0.92 4.7,0 0,-0.23 4.7,0 0,-5.16 4.69,0 0,0.84 4.7,0 0,-4.5 4.7,0 0,-5.04 4.7,0 0,8.13 4.69,0 0,-6.21 4.7,0 0,2.12 4.7,0 0,-7.42 4.7,0 0,-1.87 4.69,0 0,4.86 4.7,0 0,0.8 4.7,0 0,-6.61 4.7,0 0,0.53 4.69,0 0,-2.57 4.7,0 0,-8.27 4.7,0 0,8.9 4.69,0 0,-5.93 4.7,0 0,-2.78 4.7,0 0,-2.26 4.7,0 0,6.7 4.69,0 0,-0.44 4.7,0 0,-7.27 4.7,0 0,5.39 4.7,0 0,-6.72 4.69,0 0,5.35 4.7,0 0,-8.28 4.7,0 0,10.04 4.7,0 0,-3.62 0,-43.35 0,20.1 -4.7,0 0,-11.86 -4.7,0 0,15.39 -4.7,0 0,-7.28 -4.69,0 0,10.51 -4.7,0 0,-7.69 -4.7,0 0,10.75 -4.7,0 0,0.7 -4.69,0 0,-9.58 -4.7,0 0,3.37 -4.7,0 0,4.01 -4.7,0 0,8.25 -4.69,0 0,-12.46 -4.7,0 0,11.63 -4.7,0 0,3.47 -4.69,0 0,-0.7 -4.7,0 0,8.71 -4.7,0 0,-1.04 -4.7,0 0,-6.38 -4.69,0 0,2.48 -4.7,0 0,9.57 -4.7,0 0,-2.7 -4.7,0 0,7.82 -4.69,0 0,-10.28 -4.7,0 0,6.42 -4.7,0 0,5.61 -4.7,0 0,-1.04 -4.69,0 0,6.32 -4.7,0 0,0.28 -4.7,0 0,1.1 -4.7,0 0,1.32 -4.69,0 0,0.51 -4.7,0 0,6.16 -4.7,0 0,2.74 -4.7,0 0,1.64 -4.69,0 0,4.86 -4.7,0 0,6.38 -4.7,0 0,-0.6 -4.7,0 0,2.33 -4.69,0 0,2.37 -4.7,0 0,8.36 -4.7,0 0,-1.76 -4.7,0 0,2.36 -4.69,0 0,-0.62 -4.7,0 0,2.57 -4.7,0 0,0 -4.7,0 0,-0.22 -4.69,0 0,3.71 -4.7,0 0,6.28 -4.7,0 0,6.15 -4.69,0 0,10.6 -4.7,0 0,7.08 -4.7,0 0,-0.32 -4.7,0 0,-0.67 -4.69,0 0,-3.88 -4.7,0 0,-2.82 -4.7,0 0,-0.35 -4.7,0 0,-1.99 -4.69,0 0,-0.87 -4.7,0 0,-2.13 -4.7,0 0,-0.02 -4.7,0 0,3.13 -4.69,0 0,-2.71 -4.7,0 0,3.76 -4.7,0 0,2.41 -4.7,0 0,5.27 -4.69,0 0,-0.11 -4.7,0 0,7.61 -4.7,0 0,2.88 -4.7,0 0,2.52 z" /><path
           inkscape:connector-curvature="0"
           id="path14434"
           style="fill:#bdbdbd;fill-opacity:1;fill-rule:nonzero;stroke:none"
           d="m 68.44,249.74 4.7,0 0,-6.5 4.7,0 0,-6.16 4.7,0 0,-2.2 4.69,0 0,-4.68 4.7,0 0,0.41 4.7,0 0,-1.83 4.7,0 0,-2.24 4.69,0 0,0.05 4.7,0 0,-1.17 4.7,0 0,1.14 4.7,0 0,4.24 4.69,0 0,-2.15 4.7,0 0,4.96 4.7,0 0,0.39 4.7,0 0,1.3 4.69,0 0,-1.4 4.7,0 0,-6.97 4.7,0 0,-9.23 4.7,0 0,-8.32 4.69,0 0,-6.78 4.7,0 0,-1.54 4.7,0 0,-4.87 4.69,0 0,0.88 4.7,0 0,0.73 4.7,0 0,-4.42 4.7,0 0,0.15 4.69,0 0,0.14 4.7,0 0,-1.73 4.7,0 0,-2.83 4.7,0 0,3.57 4.69,0 0,-11.19 4.7,0 0,1.08 4.7,0 0,-4.87 4.7,0 0,-1.84 4.69,0 0,1.07 4.7,0 0,-1.9 4.7,0 0,-1.15 4.7,0 0,-2.8 4.69,0 0,0.01 4.7,0 0,-5.04 4.7,0 0,-1.64 4.7,0 0,1.24 4.69,0 0,-9.64 4.7,0 0,1.69 4.7,0 0,1.08 4.7,0 0,-2.19 4.69,0 0,1.12 4.7,0 0,-6.15 4.7,0 0,2.64 4.7,0 0,2.95 4.69,0 0,-4.9 4.7,0 0,0.67 4.7,0 0,0.03 4.7,0 0,-7.58 4.69,0 0,-1.8 4.7,0 0,-4.1 4.7,0 0,7.75 4.69,0 0,-12.58 4.7,0 0,11.01 4.7,0 0,2.65 4.7,0 0,-5.18 4.69,0 0,-6.55 4.7,0 0,-2.37 4.7,0 0,8.09 4.7,0 0,-2.35 4.69,0 0,-6.53 4.7,0 0,-15.96 4.7,0 0,18.76 0,-52.84 0,-41.42 -4.7,0 0,57.65 -4.7,0 0,13.46 -4.69,0 0,4.52 -4.7,0 0,-13.13 -4.7,0 0,4.38 -4.7,0 0,10.77 -4.69,0 0,7.92 -4.7,0 0,-3.89 -4.7,0 0,-17.68 -4.7,0 0,20.1 -4.69,0 0,-11.94 -4.7,0 0,6.47 -4.7,0 0,2.77 -4.69,0 0,11.06 -4.7,0 0,-0.03 -4.7,0 0,-0.95 -4.7,0 0,6.82 -4.69,0 0,-4.08 -4.7,0 0,-3.72 -4.7,0 0,8.55 -4.7,0 0,-1.52 -4.69,0 0,2.98 -4.7,0 0,-1.46 -4.7,0 0,-2.32 -4.7,0 0,12.86 -4.69,0 0,-1.61 -4.7,0 0,2.13 -4.7,0 0,6.42 -4.7,0 0,0 -4.69,0 0,3.49 -4.7,0 0,1.43 -4.7,0 0,2.34 -4.7,0 0,-1.32 -4.69,0 0,2.26 -4.7,0 0,5.9 -4.7,0 0,-1.3 -4.7,0 0,13.21 -4.69,0 0,-4.16 -4.7,0 0,3.3 -4.7,0 0,2.01 -4.7,0 0,-0.17 -4.69,0 0,-0.16 -4.7,0 0,5.08 -4.7,0 0,-0.84 -4.7,0 0,-1.01 -4.69,0 0,5.56 -4.7,0 0,1.75 -4.7,0 0,7.6 -4.69,0 0,9.18 -4.7,0 0,10.04 -4.7,0 0,7.49 -4.7,0 0,1.5 -4.69,0 0,-1.39 -4.7,0 0,-0.41 -4.7,0 0,-5.33 -4.7,0 0,2.32 -4.69,0 0,-4.56 -4.7,0 0,-1.24 -4.7,0 0,1.26 -4.7,0 0,-0.05 -4.69,0 0,2.42 -4.7,0 0,1.97 -4.7,0 0,-0.44 -4.7,0 0,5.01 -4.69,0 0,2.35 -4.7,0 0,6.54 -4.7,0 0,6.86 -4.7,0 0,2.77 z" /><path
           inkscape:connector-curvature="0"
           id="path14436"
           style="fill:none;stroke:#6c5d53;stroke-width:1.0704;stroke-linecap:butt;stroke-linejoin:miter;stroke-miterlimit:10;stroke-dasharray:none;stroke-opacity:1"
           d="m 68.44,252.93 4.7,0 0,-2.81 4.7,0 0,-7.41 4.7,0 0,0.1 4.69,0 0,-5.1 4.7,0 0,-2.34 4.7,0 0,-3.64 4.7,0 0,2.63 4.69,0 0,-3.02 4.7,0 0,0.01 4.7,0 0,2.06 4.7,0 0,0.85 4.69,0 0,1.91 4.7,0 0,0.35 4.7,0 0,2.73 4.7,0 0,3.76 4.69,0 0,0.66 4.7,0 0,0.31 4.7,0 0,-6.87 4.7,0 0,-10.23 4.69,0 0,-5.91 4.7,0 0,-5.99 4.7,0 0,-3.53 4.69,0 0,0.21 4.7,0 0,0 4.7,0 0,-2.44 4.7,0 0,0.59 4.69,0 0,-2.23 4.7,0 0,1.66 4.7,0 0,-7.88 4.7,0 0,-2.22 4.69,0 0,-2.18 4.7,0 0,0.56 4.7,0 0,-5.94 4.7,0 0,-4.48 4.69,0 0,-1.5 4.7,0 0,-2.5 4.7,0 0,-5.59 4.7,0 0,-0.46 4.69,0 0,-1.19 4.7,0 0,-0.99 4.7,0 0,-0.25 4.7,0 0,-5.63 4.69,0 0,0.93 4.7,0 0,-4.94 4.7,0 0,-5.57 4.7,0 0,8.96 4.69,0 0,-6.84 4.7,0 0,2.35 4.7,0 0,-8.23 4.7,0 0,-2.1 4.69,0 0,5.42 4.7,0 0,0.89 4.7,0 0,-7.38 4.7,0 0,0.59 4.69,0 0,-2.89 4.7,0 0,-9.42 4.7,0 0,10.12 4.69,0 0,-6.74 4.7,0 0,-3.18 4.7,0 0,-2.62 4.7,0 0,7.65 4.69,0 0,-0.53 4.7,0 0,-8.4 4.7,0 0,6.13 4.7,0 0,-7.92 4.69,0 0,5.95 4.7,0 0,-10.33 4.7,0 0,10.53 4.7,0 0,-7.27" /><path
           inkscape:connector-curvature="0"
           id="path14438"
           style="fill:none;stroke:#000000;stroke-width:1.0704;stroke-linecap:butt;stroke-linejoin:miter;stroke-miterlimit:10;stroke-dasharray:none;stroke-opacity:1"
           d="m 68.44,248.39 4.7,0 0,-6.67 4.7,0 0,-6.34 4.7,0 0,-2.27 4.69,0 0,-4.83 4.7,0 0,0.42 4.7,0 0,-1.89 4.7,0 0,-2.33 4.69,0 0,0.05 4.7,0 0,-1.21 4.7,0 0,1.19 4.7,0 0,4.39 4.69,0 0,-2.23 4.7,0 0,5.12 4.7,0 0,0.41 4.7,0 0,1.34 4.69,0 0,-1.45 4.7,0 0,-7.21 4.7,0 0,-9.6 4.7,0 0,-8.7 4.69,0 0,-7.15 4.7,0 0,-1.63 4.7,0 0,-5.17 4.69,0 0,0.93 4.7,0 0,0.78 4.7,0 0,-4.7 4.7,0 0,0.15 4.69,0 0,0.15 4.7,0 0,-1.84 4.7,0 0,-3.03 4.7,0 0,3.82 4.69,0 0,-12.04 4.7,0 0,1.17 4.7,0 0,-5.28 4.7,0 0,-2.02 4.69,0 0,1.17 4.7,0 0,-2.07 4.7,0 0,-1.26 4.7,0 0,-3.07 4.69,0 0,0 4.7,0 0,-5.57 4.7,0 0,-1.81 4.7,0 0,1.37 4.69,0 0,-10.8 4.7,0 0,1.91 4.7,0 0,1.21 4.7,0 0,-2.47 4.69,0 0,1.26 4.7,0 0,-6.97 4.7,0 0,3 4.7,0 0,3.35 4.69,0 0,-5.57 4.7,0 0,0.77 4.7,0 0,0.03 4.7,0 0,-8.71 4.69,0 0,-2.1 4.7,0 0,-4.8 4.7,0 0,9.01 4.69,0 0,-14.75 4.7,0 0,12.92 4.7,0 0,3.04 4.7,0 0,-6.03 4.69,0 0,-7.75 4.7,0 0,-2.89 4.7,0 0,9.46 4.7,0 0,-2.97 4.69,0 0,-8.26 4.7,0 0,-21.38 4.7,0 0,20.84 4.7,0 0,-3.49" /></g></g><g
       id="g14440" /><g
       id="g14442" /><g
       id="g14444" /><g
       id="g14446" /><g
       id="g14448" /><g
       id="g14468" /><g
       id="g14470" /><g
       id="g14472" /><g
       id="g14474" /><g
       id="g14476" /><g
       id="g14478" /><g
       id="g14480" /><g
       id="g14482" /><g
       id="g14484" /><g
       id="g14486" /><g
       id="g14488" /><g
       id="g14490"><text
         id="text14492"
         style="font-variant:normal;font-weight:normal;font-size:10px;font-family:Roboto;-inkscape-font-specification:Roboto;writing-mode:lr-tb;fill:#000000;fill-opacity:1;fill-rule:nonzero;stroke:none"
         transform="matrix(1,0,0,-1,62.88,21.77)"><tspan
           id="tspan14494"
           sodipodi:role="line"
           y="0"
           x="0">23</tspan></text>
<text
         id="text14496"
         style="font-variant:normal;font-weight:normal;font-size:10px;font-family:Roboto;-inkscape-font-specification:Roboto;writing-mode:lr-tb;fill:#000000;fill-opacity:1;fill-rule:nonzero;stroke:none"
         transform="matrix(1,0,0,-1,95.77,21.77)"><tspan
           id="tspan14498"
           sodipodi:role="line"
           y="0"
           x="0">30</tspan></text>
<text
         id="text14500"
         style="font-variant:normal;font-weight:normal;font-size:10px;font-family:Roboto;-inkscape-font-specification:Roboto;writing-mode:lr-tb;fill:#000000;fill-opacity:1;fill-rule:nonzero;stroke:none"
         transform="matrix(1,0,0,-1,142.74,21.77)"><tspan
           id="tspan14502"
           sodipodi:role="line"
           y="0"
           x="0">40</tspan></text>
<text
         id="text14504"
         style="font-variant:normal;font-weight:normal;font-size:10px;font-family:Roboto;-inkscape-font-specification:Roboto;writing-mode:lr-tb;fill:#000000;fill-opacity:1;fill-rule:nonzero;stroke:none"
         transform="matrix(1,0,0,-1,189.71,21.77)"><tspan
           id="tspan14506"
           sodipodi:role="line"
           y="0"
           x="0">50</tspan></text>
<text
         id="text14508"
         style="font-variant:normal;font-weight:normal;font-size:10px;font-family:Roboto;-inkscape-font-specification:Roboto;writing-mode:lr-tb;fill:#000000;fill-opacity:1;fill-rule:nonzero;stroke:none"
         transform="matrix(1,0,0,-1,236.69,21.77)"><tspan
           id="tspan14510"
           sodipodi:role="line"
           y="0"
           x="0">60</tspan></text>
<text
         id="text14512"
         style="font-variant:normal;font-weight:normal;font-size:10px;font-family:Roboto;-inkscape-font-specification:Roboto;writing-mode:lr-tb;fill:#000000;fill-opacity:1;fill-rule:nonzero;stroke:none"
         transform="matrix(1,0,0,-1,283.66,21.77)"><tspan
           id="tspan14514"
           sodipodi:role="line"
           y="0"
           x="0">70</tspan></text>
<text
         id="text14516"
         style="font-variant:normal;font-weight:normal;font-size:10px;font-family:Roboto;-inkscape-font-specification:Roboto;writing-mode:lr-tb;fill:#000000;fill-opacity:1;fill-rule:nonzero;stroke:none"
         transform="matrix(1,0,0,-1,330.64,21.77)"><tspan
           id="tspan14518"
           sodipodi:role="line"
           y="0"
           x="0">80</tspan></text>
<text
         id="text14520"
         style="font-variant:normal;font-weight:normal;font-size:10px;font-family:Roboto;-inkscape-font-specification:Roboto;writing-mode:lr-tb;fill:#000000;fill-opacity:1;fill-rule:nonzero;stroke:none"
         transform="matrix(1,0,0,-1,377.61,21.77)"><tspan
           id="tspan14522"
           sodipodi:role="line"
           y="0"
           x="0">90</tspan></text>
</g><g
       id="g14524" /><g
       id="g14526" /><g
       id="g14528" /><g
       id="g14530"><text
         id="text14532"
         style="font-variant:normal;font-weight:normal;font-size:12px;font-family:Roboto;-inkscape-font-specification:Roboto;writing-mode:lr-tb;fill:#000000;fill-opacity:1;fill-rule:nonzero;stroke:none"
         transform="matrix(1,0,0,-1,163.32,8.37)"><tspan
           id="tspan14534"
           sodipodi:role="line"
           y="0"
           x="0">Weeks of gestational age</tspan></text>
</g><g
       id="g14536" /><g
       id="g14544" /><g
       id="g14546" /><g
       id="g14548" /><g
       id="g14550" /><text
       y="-61.63913"
       x="37.398663"
       id="text12520"
       style="font-variant:normal;font-weight:normal;font-size:10px;font-family:Roboto;-inkscape-font-specification:Roboto;writing-mode:lr-tb;fill:#000000;fill-opacity:1;fill-rule:nonzero;stroke:none"
       transform="scale(1,-1)"><tspan
         id="tspan12522"
         sodipodi:role="line"
         x="37.398663"
         y="-61.63913">.01</tspan></text>
<text
       id="text12524"
       style="font-variant:normal;font-weight:normal;font-size:10px;font-family:Roboto;-inkscape-font-specification:Roboto;writing-mode:lr-tb;fill:#000000;fill-opacity:1;fill-rule:nonzero;stroke:none"
       x="43.023655"
       y="-125.29881"
       transform="scale(1,-1)"><tspan
         id="tspan12526"
         sodipodi:role="line"
         x="43.023655"
         y="-125.29881">.1</tspan></text>
<text
       id="text12528"
       style="font-variant:normal;font-weight:normal;font-size:10px;font-family:Roboto;-inkscape-font-specification:Roboto;writing-mode:lr-tb;fill:#000000;fill-opacity:1;fill-rule:nonzero;stroke:none"
       x="45.66037"
       y="-188.92186"
       transform="scale(1,-1)"><tspan
         id="tspan12530"
         sodipodi:role="line"
         x="45.66037"
         y="-188.92186">1</tspan></text>
<text
       id="text12532"
       style="font-variant:normal;font-weight:normal;font-size:10px;font-family:Roboto;-inkscape-font-specification:Roboto;writing-mode:lr-tb;fill:#000000;fill-opacity:1;fill-rule:nonzero;stroke:none"
       x="38.54612"
       y="-252.58887"
       transform="scale(1,-1)"><tspan
         id="tspan12534"
         sodipodi:role="line"
         x="38.54612"
         y="-252.58887">10</tspan></text>
<text
       xml:space="preserve"
       style="font-style:normal;font-variant:normal;font-weight:normal;font-stretch:normal;font-size:10px;line-height:100%;font-family:Roboto;-inkscape-font-specification:Roboto;text-align:center;letter-spacing:0px;word-spacing:0px;text-anchor:middle;fill:#000000;fill-opacity:1;stroke:none;stroke-width:1px;stroke-linecap:butt;stroke-linejoin:miter;stroke-opacity:1"
       x="42.194065"
       y="-278.2681"
       id="text7319"
       sodipodi:linespacing="100%"
       transform="scale(1,-1)"><tspan
         sodipodi:role="line"
         x="42.194065"
         y="-278.2681"
         id="tspan7323">Deaths per 10,000</tspan><tspan
         sodipodi:role="line"
         x="42.194065"
         y="-268.2681"
         id="tspan7327">person-weeks</tspan></text>
<path
       style="fill:none;fill-rule:evenodd;stroke:#000000;stroke-width:0.80000001px;stroke-linecap:butt;stroke-linejoin:miter;stroke-opacity:1"
       d="m 247.89978,186.92258 9.76991,6.71682"
       id="path15368"
       inkscape:connector-curvature="0" /><text
       xml:space="preserve"
       style="font-style:normal;font-weight:normal;font-size:10px;line-height:125%;font-family:sans-serif;text-align:center;letter-spacing:0px;word-spacing:0px;text-anchor:middle;fill:#000000;fill-opacity:1;stroke:none;stroke-width:1px;stroke-linecap:butt;stroke-linejoin:miter;stroke-opacity:1"
       x="262.55466"
       y="-195.16594"
       id="text15370"
       sodipodi:linespacing="125%"
       transform="scale(1,-1)"><tspan
         sodipodi:role="line"
         id="tspan15372"
         x="262.55466"
         y="-195.16594"
         style="font-style:normal;font-variant:normal;font-weight:normal;font-stretch:normal;font-family:Roboto;-inkscape-font-specification:Roboto">1989</tspan></text>
<path
       style="fill:none;fill-rule:evenodd;stroke:#000000;stroke-width:0.80000001px;stroke-linecap:butt;stroke-linejoin:miter;stroke-opacity:1"
       d="m 235.38207,159.44471 -8.54867,-6.71682"
       id="path15374"
       inkscape:connector-curvature="0" /><text
       xml:space="preserve"
       style="font-style:normal;font-weight:normal;font-size:10px;line-height:125%;font-family:sans-serif;text-align:center;letter-spacing:0px;word-spacing:0px;text-anchor:middle;fill:#000000;fill-opacity:1;stroke:none;stroke-width:1px;stroke-linecap:butt;stroke-linejoin:miter;stroke-opacity:1"
       x="215.23164"
       y="-145.40047"
       id="text15376"
       sodipodi:linespacing="125%"
       transform="scale(1,-1)"><tspan
         sodipodi:role="line"
         id="tspan15378"
         x="215.23164"
         y="-145.40047"
         style="font-style:normal;font-variant:normal;font-weight:normal;font-stretch:normal;font-family:Roboto;-inkscape-font-specification:Roboto">2009</tspan></text>
</g></svg>