<?xml version="1.0" encoding="UTF-8" standalone="no"?>
<!-- Created with Inkscape (http://www.inkscape.org/) -->

<svg
   xmlns:dc="http://purl.org/dc/elements/1.1/"
   xmlns:cc="http://creativecommons.org/ns#"
   xmlns:rdf="http://www.w3.org/1999/02/22-rdf-syntax-ns#"
   xmlns:svg="http://www.w3.org/2000/svg"
   xmlns="http://www.w3.org/2000/svg"
   xmlns:sodipodi="http://sodipodi.sourceforge.net/DTD/sodipodi-0.dtd"
   xmlns:inkscape="http://www.inkscape.org/namespaces/inkscape"
   id="svg6305"
   version="1.1"
   inkscape:version="0.91 r13725"
   xml:space="preserve"
   width="500.35089"
   height="349.65042"
   viewBox="0 0 500.35089 349.65042"
   sodipodi:docname="fi_hx.svg"><sodipodi:namedview
     pagecolor="#ffffff"
     bordercolor="#666666"
     borderopacity="1"
     objecttolerance="10"
     gridtolerance="10"
     guidetolerance="10"
     inkscape:pageopacity="0"
     inkscape:pageshadow="2"
     inkscape:window-width="3440"
     inkscape:window-height="1416"
     id="namedview6307"
     showgrid="false"
     inkscape:zoom="2.4193237"
     inkscape:cx="35.682334"
     inkscape:cy="161.40762"
     inkscape:window-x="0"
     inkscape:window-y="24"
     inkscape:window-maximized="1"
     inkscape:current-layer="g6313"
     fit-margin-top="0"
     fit-margin-left="0"
     fit-margin-right="0"
     fit-margin-bottom="0" /><metadata
     id="metadata6311"><rdf:RDF><cc:Work
         rdf:about=""><dc:format>image/svg+xml</dc:format><dc:type
           rdf:resource="http://purl.org/dc/dcmitype/StillImage" /><dc:title></dc:title></cc:Work></rdf:RDF></metadata><defs
     id="defs6309"><clipPath
       id="clipPath6345"
       clipPathUnits="userSpaceOnUse"><path
         inkscape:connector-curvature="0"
         id="path6347"
         d="m 52.24,31.34 356.53,0 0,233.43 -356.53,0 0,-233.43 z" /></clipPath></defs><g
     transform="matrix(1.25,0,0,-1.25,-10.611596,356.9928)"
     inkscape:label="fi_hx"
     inkscape:groupmode="layer"
     id="g6313"><g
       id="g6315" /><g
       id="g6317" /><g
       id="g6319" /><g
       id="g6321" /><g
       id="g6323" /><g
       id="g6325" /><g
       id="g6327" /><g
       id="g6329" /><g
       id="g6331" /><g
       id="g6333" /><g
       id="g6335" /><g
       id="g6337" /><g
       id="g6339" /><g
       id="g6341"><g
         clip-path="url(#clipPath6345)"
         id="g6343"><path
           inkscape:connector-curvature="0"
           id="path6349"
           style="fill:none;stroke:#e5e5e5;stroke-width:1.07000005;stroke-linecap:butt;stroke-linejoin:round;stroke-miterlimit:10;stroke-dasharray:none;stroke-opacity:1"
           d="m 52.24,42.18 356.53,0" /><path
           inkscape:connector-curvature="0"
           id="path6351"
           style="fill:none;stroke:#e5e5e5;stroke-width:1.07000005;stroke-linecap:butt;stroke-linejoin:round;stroke-miterlimit:10;stroke-dasharray:none;stroke-opacity:1"
           d="m 52.24,69.12 356.53,0" /><path
           inkscape:connector-curvature="0"
           id="path6353"
           style="fill:none;stroke:#e5e5e5;stroke-width:1.07000005;stroke-linecap:butt;stroke-linejoin:round;stroke-miterlimit:10;stroke-dasharray:none;stroke-opacity:1"
           d="m 52.24,96.06 356.53,0" /><path
           inkscape:connector-curvature="0"
           id="path6355"
           style="fill:none;stroke:#e5e5e5;stroke-width:1.07000005;stroke-linecap:butt;stroke-linejoin:round;stroke-miterlimit:10;stroke-dasharray:none;stroke-opacity:1"
           d="m 52.24,122.99 356.53,0" /><path
           inkscape:connector-curvature="0"
           id="path6357"
           style="fill:none;stroke:#e5e5e5;stroke-width:1.07000005;stroke-linecap:butt;stroke-linejoin:round;stroke-miterlimit:10;stroke-dasharray:none;stroke-opacity:1"
           d="m 52.24,149.93 356.53,0" /><path
           inkscape:connector-curvature="0"
           id="path6359"
           style="fill:none;stroke:#e5e5e5;stroke-width:1.07000005;stroke-linecap:butt;stroke-linejoin:round;stroke-miterlimit:10;stroke-dasharray:none;stroke-opacity:1"
           d="m 52.24,176.86 356.53,0" /><path
           inkscape:connector-curvature="0"
           id="path6361"
           style="fill:none;stroke:#e5e5e5;stroke-width:1.07000005;stroke-linecap:butt;stroke-linejoin:round;stroke-miterlimit:10;stroke-dasharray:none;stroke-opacity:1"
           d="m 52.24,203.8 356.53,0" /><path
           inkscape:connector-curvature="0"
           id="path6363"
           style="fill:none;stroke:#e5e5e5;stroke-width:1.07000005;stroke-linecap:butt;stroke-linejoin:round;stroke-miterlimit:10;stroke-dasharray:none;stroke-opacity:1"
           d="m 52.24,230.73 356.53,0" /><path
           inkscape:connector-curvature="0"
           id="path6365"
           style="fill:none;stroke:#e5e5e5;stroke-width:1.07000005;stroke-linecap:butt;stroke-linejoin:round;stroke-miterlimit:10;stroke-dasharray:none;stroke-opacity:1"
           d="m 52.24,257.67 356.53,0" /><path
           inkscape:connector-curvature="0"
           id="path6367"
           style="fill:none;stroke:#e5e5e5;stroke-width:1.07000005;stroke-linecap:butt;stroke-linejoin:round;stroke-miterlimit:10;stroke-dasharray:none;stroke-opacity:1"
           d="m 68.44,31.34 0,233.43" /><path
           inkscape:connector-curvature="0"
           id="path6369"
           style="fill:none;stroke:#e5e5e5;stroke-width:1.07000005;stroke-linecap:butt;stroke-linejoin:round;stroke-miterlimit:10;stroke-dasharray:none;stroke-opacity:1"
           d="m 101.33,31.34 0,233.43" /><path
           inkscape:connector-curvature="0"
           id="path6371"
           style="fill:none;stroke:#e5e5e5;stroke-width:1.07000005;stroke-linecap:butt;stroke-linejoin:round;stroke-miterlimit:10;stroke-dasharray:none;stroke-opacity:1"
           d="m 148.3,31.34 0,233.43" /><path
           inkscape:connector-curvature="0"
           id="path6373"
           style="fill:none;stroke:#e5e5e5;stroke-width:1.07000005;stroke-linecap:butt;stroke-linejoin:round;stroke-miterlimit:10;stroke-dasharray:none;stroke-opacity:1"
           d="m 195.27,31.34 0,233.43" /><path
           inkscape:connector-curvature="0"
           id="path6375"
           style="fill:none;stroke:#e5e5e5;stroke-width:1.07000005;stroke-linecap:butt;stroke-linejoin:round;stroke-miterlimit:10;stroke-dasharray:none;stroke-opacity:1"
           d="m 242.25,31.34 0,233.43" /><path
           inkscape:connector-curvature="0"
           id="path6377"
           style="fill:none;stroke:#e5e5e5;stroke-width:1.07000005;stroke-linecap:butt;stroke-linejoin:round;stroke-miterlimit:10;stroke-dasharray:none;stroke-opacity:1"
           d="m 289.22,31.34 0,233.43" /><path
           inkscape:connector-curvature="0"
           id="path6379"
           style="fill:none;stroke:#e5e5e5;stroke-width:1.07000005;stroke-linecap:butt;stroke-linejoin:round;stroke-miterlimit:10;stroke-dasharray:none;stroke-opacity:1"
           d="m 336.2,31.34 0,233.43" /><path
           inkscape:connector-curvature="0"
           id="path6381"
           style="fill:none;stroke:#e5e5e5;stroke-width:1.07000005;stroke-linecap:butt;stroke-linejoin:round;stroke-miterlimit:10;stroke-dasharray:none;stroke-opacity:1"
           d="m 383.17,31.34 0,233.43" /><path
           inkscape:connector-curvature="0"
           id="path6383"
           style="fill:#bdbdbd;fill-opacity:1;fill-rule:nonzero;stroke:none"
           d="m 68.44,254.16 4.7,0 0,-44.27 4.7,0 0,-33.41 4.7,0 0,-10.23 4.69,0 0,-19.23 4.7,0 0,1.53 4.7,0 0,-6.77 4.7,0 0,-7.74 4.69,0 0,0.17 4.7,0 0,-3.8 4.7,0 0,3.72 4.7,0 0,15.17 4.69,0 0,-8.01 4.7,0 0,19.4 4.7,0 0,1.69 4.7,0 0,5.77 4.69,0 0,-6.22 4.7,0 0,-26.59 4.7,0 0,-26.36 4.7,0 0,-17.3 4.69,0 0,-10.73 4.7,0 0,-2.09 4.7,0 0,-5.91 4.69,0 0,0.99 4.7,0 0,0.85 4.7,0 0,-4.8 4.7,0 0,0.15 4.69,0 0,0.14 4.7,0 0,-1.7 4.7,0 0,-2.55 4.7,0 0,3.27 4.69,0 0,-9 4.7,0 0,0.72 4.7,0 0,-3.03 4.7,0 0,-1.02 4.69,0 0,0.58 4.7,0 0,-1.01 4.7,0 0,-0.59 4.7,0 0,-1.32 4.69,0 0,0.01 4.7,0 0,-2.07 4.7,0 0,-0.6 4.7,0 0,0.45 4.69,0 0,-3 4.7,0 0,0.45 4.7,0 0,0.3 4.7,0 0,-0.6 4.69,0 0,0.3 4.7,0 0,-1.53 4.7,0 0,0.62 4.7,0 0,0.76 4.69,0 0,-1.22 4.7,0 0,0.16 4.7,0 0,0 4.7,0 0,-1.55 4.69,0 0,-0.31 4.7,0 0,-0.63 4.7,0 0,1.28 4.69,0 0,-1.92 4.7,0 0,1.63 4.7,0 0,0.5 4.7,0 0,-0.93 4.69,0 0,-0.96 4.7,0 0,-0.29 4.7,0 0,1.11 4.7,0 0,-0.35 4.69,0 0,-0.85 4.7,0 0,-1.4 4.7,0 0,1.74 4.7,0 0,0.28 0,-4.06 0,0.76 -4.7,0 0,-0.41 -4.7,0 0,0.83 -4.7,0 0,0.59 -4.69,0 0,0.28 -4.7,0 0,-0.69 -4.7,0 0,0.2 -4.7,0 0,0.62 -4.69,0 0,0.64 -4.7,0 0,-0.33 -4.7,0 0,-1.06 -4.7,0 0,1.26 -4.69,0 0,-0.86 -4.7,0 0,0.42 -4.7,0 0,0.21 -4.69,0 0,1.09 -4.7,0 0,0 -4.7,0 0,-0.11 -4.7,0 0,0.89 -4.69,0 0,-0.56 -4.7,0 0,-0.44 -4.7,0 0,1.12 -4.7,0 0,-0.23 -4.69,0 0,0.45 -4.7,0 0,-0.22 -4.7,0 0,-0.34 -4.7,0 0,2.28 -4.69,0 0,-0.35 -4.7,0 0,0.47 -4.7,0 0,1.63 -4.7,0 0,0 -4.69,0 0,1.06 -4.7,0 0,0.47 -4.7,0 0,0.83 -4.7,0 0,-0.47 -4.69,0 0,0.83 -4.7,0 0,2.51 -4.7,0 0,-0.6 -4.7,0 0,7.65 -4.69,0 0,-2.81 -4.7,0 0,2.19 -4.7,0 0,1.47 -4.7,0 0,-0.12 -4.69,0 0,-0.13 -4.7,0 0,4.18 -4.7,0 0,-0.74 -4.7,0 0,-0.87 -4.69,0 0,5.18 -4.7,0 0,1.86 -4.7,0 0,9.58 -4.69,0 0,15.67 -4.7,0 0,24.26 -4.7,0 0,24.77 -4.7,0 0,5.81 -4.69,0 0,-5.39 -4.7,0 0,-1.58 -4.7,0 0,-18.07 -4.7,0 0,7.45 -4.69,0 0,-14.09 -4.7,0 0,-3.44 -4.7,0 0,3.52 -4.7,0 0,-0.15 -4.69,0 0,7.18 -4.7,0 0,6.3 -4.7,0 0,-1.43 -4.7,0 0,17.96 -4.69,0 0,9.6 -4.7,0 0,31.48 -4.7,0 0,41.99 -4.7,0 0,20.16 z" /><path
           inkscape:connector-curvature="0"
           id="path6385"
           style="fill:none;stroke:#000000;stroke-width:1.0704;stroke-linecap:butt;stroke-linejoin:miter;stroke-miterlimit:10;stroke-dasharray:none;stroke-opacity:1"
           d="m 68.44,244.08 4.7,0 0,-43.13 4.7,0 0,-32.44 4.7,0 0,-9.92 4.69,0 0,-18.6 4.7,0 0,1.48 4.7,0 0,-6.53 4.7,0 0,-7.46 4.69,0 0,0.16 4.7,0 0,-3.66 4.7,0 0,3.58 4.7,0 0,14.63 4.69,0 0,-7.73 4.7,0 0,18.74 4.7,0 0,1.63 4.7,0 0,5.58 4.69,0 0,-6.02 4.7,0 0,-25.68 4.7,0 0,-25.3 4.7,0 0,-16.49 4.69,0 0,-10.15 4.7,0 0,-1.98 4.7,0 0,-5.54 4.69,0 0,0.93 4.7,0 0,0.79 4.7,0 0,-4.49 4.7,0 0,0.14 4.69,0 0,0.13 4.7,0 0,-1.58 4.7,0 0,-2.38 4.7,0 0,3.04 4.69,0 0,-8.32 4.7,0 0,0.66 4.7,0 0,-2.77 4.7,0 0,-0.93 4.69,0 0,0.53 4.7,0 0,-0.92 4.7,0 0,-0.53 4.7,0 0,-1.19 4.69,0 0,0 4.7,0 0,-1.85 4.7,0 0,-0.53 4.7,0 0,0.4 4.69,0 0,-2.64 4.7,0 0,0.39 4.7,0 0,0.27 4.7,0 0,-0.53 4.69,0 0,0.26 4.7,0 0,-1.32 4.7,0 0,0.53 4.7,0 0,0.66 4.69,0 0,-1.06 4.7,0 0,0.14 4.7,0 0,0 4.7,0 0,-1.32 4.69,0 0,-0.26 4.7,0 0,-0.52 4.7,0 0,1.07 4.69,0 0,-1.6 4.7,0 0,1.35 4.7,0 0,0.42 4.7,0 0,-0.79 4.69,0 0,-0.79 4.7,0 0,-0.24 4.7,0 0,0.89 4.7,0 0,-0.31 4.69,0 0,-0.72 4.7,0 0,-1.12 4.7,0 0,1.08 4.7,0 0,-0.24" /><path
           inkscape:connector-curvature="0"
           id="path6387"
           style="fill:#b7c4c8;fill-opacity:1;fill-rule:nonzero;stroke:none"
           d="m 68.44,42.41 0.64,0.02 0.63,0.02 0.64,0.01 0.63,0.02 0.64,0.02 0.63,0.01 0.63,0.01 0.64,0.01 0.63,0.01 0.64,0.01 0.63,0.01 0.64,0.01 0.63,0.01 0.63,0.01 0.64,0.01 0.63,0.01 0.64,0.01 0.63,0.01 0.64,0.01 0.63,0.01 0.63,0.01 0.64,0.01 0.63,0.01 0.64,0.01 0.63,0.01 0.64,0.01 0.63,0.02 0.63,0.01 0.64,0.02 0.63,0.02 0.64,0.01 0.63,0.02 0.64,0.02 0.63,0.02 0.63,0.03 0.64,0.02 0.63,0.02 0.64,0.03 0.63,0.02 0.64,0.03 0.63,0.02 0.63,0.03 0.64,0.03 0.63,0.03 0.64,0.04 0.63,0.03 0.64,0.04 0.63,0.04 0.63,0.04 0.64,0.04 0.63,0.05 0.64,0.04 0.63,0.05 0.64,0.05 0.63,0.06 0.63,0.05 0.64,0.07 0.63,0.06 0.64,0.07 0.63,0.08 0.64,0.08 0.63,0.08 0.63,0.09 0.64,0.1 0.63,0.11 0.64,0.11 0.63,0.13 0.64,0.13 0.63,0.14 0.63,0.15 0.64,0.17 0.63,0.19 0.64,0.2 0.63,0.22 0.64,0.24 0.63,0.26 0.63,0.29 0.64,0.3 0.63,0.33 0.64,0.36 0.63,0.38 0.64,0.41 0.63,0.43 0.63,0.48 0.64,0.51 0.63,0.56 0.64,0.61 0.63,0.67 0.64,0.73 0.63,0.82 0.63,0.9 0.64,1.01 0.63,1.12 0.64,1.25 0.63,1.38 0.64,1.53 0.63,1.7 0.63,1.88 0.64,2.07 0.63,2.26 0.64,2.48 0.63,2.69 0.64,2.91 0.63,3.14 0.63,3.34 0.64,3.53 0.63,3.69 0.64,3.8 0.63,3.88 0.64,3.89 0.63,3.84 0.63,3.71 0.64,3.49 0.63,3.18 0.64,2.74 0.63,2.16 0.64,1.48 0.63,0.74 0.63,-0.04 0.64,-0.83 0.63,-1.58 0.64,-2.25 0.63,-2.84 0.64,-3.32 0.63,-3.7 0.63,-3.99 0.64,-4.19 0.63,-4.3 0.64,-4.32 0.63,-4.27 0.64,-4.16 0.63,-3.99 0.63,-3.78 0.64,-3.55 0.63,-3.29 0.64,-3.03 0.63,-2.76 0.64,-2.49 0.63,-2.23 0.63,-1.96 0.64,-1.72 0.63,-1.47 0.64,-1.27 0.63,-1.08 0.64,-0.93 0.63,-0.79 0.63,-0.68 0.64,-0.58 0.63,-0.51 0.64,-0.45 0.63,-0.39 0.64,-0.36 0.63,-0.32 0.63,-0.29 0.64,-0.26 0.63,-0.24 0.64,-0.21 0.63,-0.2 0.64,-0.18 0.63,-0.17 0.63,-0.15 0.64,-0.14 0.63,-0.13 0.64,-0.12 0.63,-0.1 0.64,-0.1 0.63,-0.09 0.63,-0.08 0.64,-0.07 0.63,-0.07 0.64,-0.06 0.63,-0.06 0.64,-0.05 0.63,-0.05 0.63,-0.05 0.64,-0.05 0.63,-0.04 0.64,-0.05 0.63,-0.04 0.64,-0.05 0.63,-0.04 0.63,-0.04 0.64,-0.04 0.63,-0.03 0.64,-0.03 0.63,-0.03 0.64,-0.02 0.63,-0.01 0.63,-0.02 0.64,-0.01 0.63,0 0.64,-0.01 0.63,0 0.64,0 0.63,0 0.63,0 0.64,0 0.63,-0.01 0.64,0 0.63,0 0.64,0 0.63,0 0.63,0 0.64,0 0.63,0 0.64,0 0.63,0 0.64,0 0.63,0 0.63,0 0.64,0 0.63,0 0.64,0 0.63,0 0.64,0 0.63,0 0.63,0 0.64,0 0.63,0 0.64,0 0.63,0 0.64,0 0.63,0 0.64,0 0.63,0 0.63,0 0.64,0 0.63,0 0.64,0 0.63,0 0.64,0 0.63,0 0.63,0 0.64,0 0.63,0 0.64,0 0.63,0 0.64,0 0.63,0 0.63,0 0.64,0 0.63,0 0.64,0 0.63,0 0.64,0 0.63,0 0.63,0 0.64,0 0.63,0 0.64,0 0.63,0 0.64,0 0.63,0 0.63,0 0.64,0 0.63,0 0.64,0 0.63,0 0.64,0 0.63,0 0.63,0 0.64,0 0.63,0 0.64,0 0.63,0 0.64,0 0.63,0 0.63,0 0.64,0 0.63,0 0.64,0 0.63,0 0.64,0 0.63,0 0.63,0 0.64,0 0.63,0 0.64,0 0.63,0 0.64,0 0.63,0 0.63,0 0.64,0 0.63,0 0.64,0 0.63,0 0.64,0 0.63,0 0.63,0 0.64,0 0.63,0 0.64,0 0.63,0 0.64,0 0.63,0 0.63,0 0.64,0 0.63,0 0.64,0 0.63,0 0.64,0 0.63,0 0.63,0 0.64,0 0.63,0 0.64,0 0.63,0 0.64,0 0.63,0 0.63,0 0.64,0 0.63,0 0.64,0 0.63,0 0.64,0 0.63,0 0.63,0 0.64,0 0.63,0 0.64,0 0.63,0 0.64,0 0.63,0 0.63,0 0.64,0 0.63,0 0.64,0 0.63,0 0.64,0 0.63,0 0.63,0 0.64,0 0.63,0 0.64,0 0.63,0 0.64,0 0.63,0 0.63,0 0.64,0 0.63,0 0.64,0 0.63,0 0.64,0 0.63,0 0.63,0 0.64,0 0.63,0 0.64,0 0.63,0 0.64,0 0.63,0 0.63,0 0.64,0 0.63,0 0.64,0 0.63,0 0.64,0 0.63,0 0.63,0 0.64,0 0.63,0 0.64,0 0.63,0 0.64,0 0.63,0 0.63,0 0.64,0 0.63,0 0.64,0 0.63,0 0.64,0 0.63,0 0.63,0 0.64,0 0.63,0 0.64,0 0.63,0 0.64,0 0.63,0 0.63,0 0.64,0 0.63,0 0.64,0 0.63,0 0.64,0 0.63,0 0.63,0 0.64,0 0.63,0 0.64,0 0.63,0 0.64,0 0.63,0 0.63,0 0.64,0 0.63,0 0.64,0 0.63,0 0.64,0 0.63,0 0.63,0 0.64,0 0.63,0 0.64,0 0.63,0 0.64,0 0.63,0 0.63,0 0.64,0 0.63,0 0.64,0 0.63,0 0.64,0 0.63,0 0.63,0 0.64,0 0.63,0 0.64,0 0.63,0 0.64,0 0.63,0 0.63,0 0.64,0 0.63,0 0.64,0 0.63,0 0.64,0 0.63,0 0.63,0 0.64,0 0.63,0 0.64,0 0.63,0 0.64,0 0.63,0 0.63,0 0.64,0 0.63,0 0.64,0 0.63,0 0.64,0 0.63,0 0.63,0 0.64,0 0.63,0 0.64,0 0.63,0 0.64,0 0.63,0 0.63,0 0.64,0 0.63,0 0.64,0 0.63,0 0.64,0 0.63,0 0.63,0 0.64,0 0.63,0 0.64,0 0.63,0 0.64,0 0.63,0 0.63,0 0.64,0 0.63,0 0.64,0 0.63,0 0.64,0 0.63,0 0.63,0 0.64,0 0.63,0 0.64,0 0.63,0 0.64,0 0.63,0 0.63,0 0.64,0 0.63,0 0.64,0 0.63,0 0.64,0 0.63,0 0.63,0 0.64,0 0.63,0 0.64,0 0.63,0 0.64,0 0.63,0 0.63,0 0.64,0 0.63,0 0.64,0 0.63,0 0.64,0 0.63,0 0.64,0 0.63,0 0.63,0 0.64,0 0.63,0 0.64,0 0.63,0 0.64,0 0.63,0 0.63,0 0.64,0 0.63,0 0.64,0 0,0 -0.64,0 -0.63,0 -0.64,0 -0.63,0 -0.63,0 -0.64,0 -0.63,0 -0.64,0 -0.63,0 -0.64,0 -0.63,0 -0.63,0 -0.64,0 -0.63,0 -0.64,0 -0.63,0 -0.64,0 -0.63,0 -0.64,0 -0.63,0 -0.63,0 -0.64,0 -0.63,0 -0.64,0 -0.63,0 -0.64,0 -0.63,0 -0.63,0 -0.64,0 -0.63,0 -0.64,0 -0.63,0 -0.64,0 -0.63,0 -0.63,0 -0.64,0 -0.63,0 -0.64,0 -0.63,0 -0.64,0 -0.63,0 -0.63,0 -0.64,0 -0.63,0 -0.64,0 -0.63,0 -0.64,0 -0.63,0 -0.63,0 -0.64,0 -0.63,0 -0.64,0 -0.63,0 -0.64,0 -0.63,0 -0.63,0 -0.64,0 -0.63,0 -0.64,0 -0.63,0 -0.64,0 -0.63,0 -0.63,0 -0.64,0 -0.63,0 -0.64,0 -0.63,0 -0.64,0 -0.63,0 -0.63,0 -0.64,0 -0.63,0 -0.64,0 -0.63,0 -0.64,0 -0.63,0 -0.63,0 -0.64,0 -0.63,0 -0.64,0 -0.63,0 -0.64,0 -0.63,0 -0.63,0 -0.64,0 -0.63,0 -0.64,0 -0.63,0 -0.64,0 -0.63,0 -0.63,0 -0.64,0 -0.63,0 -0.64,0 -0.63,0 -0.64,0 -0.63,0 -0.63,0 -0.64,0 -0.63,0 -0.64,0 -0.63,0 -0.64,0 -0.63,0 -0.63,0 -0.64,0 -0.63,0 -0.64,0 -0.63,0 -0.64,0 -0.63,0 -0.63,0 -0.64,0 -0.63,0 -0.64,0 -0.63,0 -0.64,0 -0.63,0 -0.63,0 -0.64,0 -0.63,0 -0.64,0 -0.63,0 -0.64,0 -0.63,0 -0.63,0 -0.64,0 -0.63,0 -0.64,0 -0.63,0 -0.64,0 -0.63,0 -0.63,0 -0.64,0 -0.63,0 -0.64,0 -0.63,0 -0.64,0 -0.63,0 -0.63,0 -0.64,0 -0.63,0 -0.64,0 -0.63,0 -0.64,0 -0.63,0 -0.63,0 -0.64,0 -0.63,0 -0.64,0 -0.63,0 -0.64,0 -0.63,0 -0.63,0 -0.64,0 -0.63,0 -0.64,0 -0.63,0 -0.64,0 -0.63,0 -0.63,0 -0.64,0 -0.63,0 -0.64,0 -0.63,0 -0.64,0 -0.63,0 -0.63,0 -0.64,0 -0.63,0 -0.64,0 -0.63,0 -0.64,0 -0.63,0 -0.63,0 -0.64,0 -0.63,0 -0.64,0 -0.63,0 -0.64,0 -0.63,0 -0.63,0 -0.64,0 -0.63,0 -0.64,0 -0.63,0 -0.64,0 -0.63,0 -0.63,0 -0.64,0 -0.63,0 -0.64,0 -0.63,0 -0.64,0 -0.63,0 -0.63,0 -0.64,0 -0.63,0 -0.64,0 -0.63,0 -0.64,0 -0.63,0 -0.63,0 -0.64,0 -0.63,0 -0.64,0 -0.63,0 -0.64,0 -0.63,0 -0.63,0 -0.64,0 -0.63,0 -0.64,0 -0.63,0 -0.64,0 -0.63,0 -0.63,0 -0.64,0 -0.63,0 -0.64,0 -0.63,0 -0.64,0 -0.63,0 -0.63,0 -0.64,0 -0.63,0 -0.64,0 -0.63,0 -0.64,0 -0.63,0 -0.63,0 -0.64,0 -0.63,0 -0.64,0 -0.63,0 -0.64,0 -0.63,0 -0.63,0 -0.64,0 -0.63,0 -0.64,0 -0.63,0 -0.64,0 -0.63,0 -0.63,0 -0.64,0 -0.63,0 -0.64,0 -0.63,0 -0.64,0 -0.63,0 -0.63,0 -0.64,0 -0.63,0 -0.64,0 -0.63,0 -0.64,0 -0.63,0 -0.63,0 -0.64,0 -0.63,0 -0.64,0 -0.63,0 -0.64,0 -0.63,0 -0.63,0 -0.64,0 -0.63,0 -0.64,0 -0.63,0 -0.64,0 -0.63,0 -0.63,0 -0.64,0 -0.63,0 -0.64,0 -0.63,0 -0.64,0 -0.63,0 -0.63,0 -0.64,0 -0.63,0 -0.64,0 -0.63,0 -0.64,0 -0.63,0 -0.63,0 -0.64,0 -0.63,0 -0.64,0 -0.63,0 -0.64,0 -0.63,0 -0.64,0 -0.63,0 -0.63,0 -0.64,0 -0.63,0 -0.64,0 -0.63,0 -0.64,0 -0.63,0 -0.63,0 -0.64,0 -0.63,0 -0.64,0 -0.63,0 -0.64,0 -0.63,0 -0.63,0 -0.64,0 -0.63,0 -0.64,0 -0.63,0 -0.64,0 -0.63,0 -0.63,0 -0.64,0 -0.63,0 -0.64,0 -0.63,0 -0.64,0 -0.63,0 -0.63,0 -0.64,0 -0.63,0 -0.64,0 -0.63,0 -0.64,0 -0.63,0 -0.63,0 -0.64,0 -0.63,0 -0.64,0 -0.63,0 -0.64,0 -0.63,0 -0.63,0 -0.64,0 -0.63,0 -0.64,0 -0.63,0 -0.64,0 -0.63,0 -0.63,0 -0.64,0 -0.63,0 -0.64,0 -0.63,0 -0.64,0 -0.63,0 -0.63,0 -0.64,0 -0.63,0 -0.64,0 -0.63,0 -0.64,0 -0.63,0 -0.63,0 -0.64,0 -0.63,0 -0.64,0 -0.63,0 -0.64,0 -0.63,0 -0.63,0 -0.64,0 -0.63,0 -0.64,0 -0.63,0 -0.64,0 -0.63,0 -0.63,0 -0.64,0 -0.63,0 -0.64,0 -0.63,0 -0.64,0 -0.63,0 -0.63,0 -0.64,0 -0.63,0 -0.64,0 -0.63,0 -0.64,0 -0.63,0 -0.63,0 -0.64,0 -0.63,0 -0.64,0 -0.63,0 -0.64,0 -0.63,0 -0.63,0 -0.64,0 -0.63,0 -0.64,0 -0.63,0 -0.64,0 -0.63,0 -0.63,0 -0.64,0 -0.63,0 -0.64,0 -0.63,0 -0.64,0 -0.63,0 -0.63,0 -0.64,0 -0.63,0 -0.64,0 -0.63,0 -0.64,0 -0.63,0 -0.63,0 -0.64,0 -0.63,0 -0.64,0 -0.63,0 -0.64,0 -0.63,0 -0.63,0 -0.64,0 -0.63,0 -0.64,0 -0.63,0 -0.64,0 -0.63,0 -0.63,0 -0.64,0 -0.63,0 -0.64,0 -0.63,0 -0.64,0 -0.63,0 -0.63,0 -0.64,0 -0.63,0 -0.64,0 -0.63,0 -0.64,0 -0.63,0 -0.63,0 -0.64,0 -0.63,0 -0.64,0 -0.63,0 -0.64,0 -0.63,0 -0.63,0 -0.64,0 -0.63,0 -0.64,0 -0.63,0 -0.64,0 -0.63,0 -0.63,0 -0.64,0 -0.63,0 -0.64,0 -0.63,0 -0.64,0 -0.63,0 -0.63,0 -0.64,0 -0.63,0 -0.64,0 -0.63,0 -0.64,0 -0.63,0 -0.63,0 -0.64,0 -0.63,0 -0.64,0 -0.63,0 -0.64,0 -0.63,0 -0.63,0 -0.64,0 -0.63,0 -0.64,0 -0.63,0 -0.64,0 -0.63,0 -0.63,0 -0.64,0 -0.63,0 -0.64,0 -0.63,0 -0.64,0 -0.63,0 -0.63,0 -0.64,0 -0.63,0 -0.64,0 -0.63,0 -0.64,0 -0.63,0 -0.63,0 -0.64,0 -0.63,0 -0.64,0 -0.63,0 -0.64,0 -0.63,0 -0.63,0 -0.64,0 -0.63,0 -0.64,0 -0.63,0 -0.64,0 0,0.23 z" /></g></g><g
       id="g6389" /><g
       id="g6391" /><g
       id="g6393" /><g
       id="g6395" /><g
       id="g6397" /><g
       id="g6399"
       transform="translate(22.4,0)"><text
         id="text6401"
         style="font-variant:normal;font-weight:normal;font-size:10px;font-family:Roboto;-inkscape-font-specification:Roboto;writing-mode:lr-tb;fill:#000000;fill-opacity:1;fill-rule:nonzero;stroke:none"
         transform="matrix(1,0,0,-1,21.77,38.59)"><tspan
           id="tspan6403"
           sodipodi:role="line"
           y="0"
           x="0">0</tspan></text>
<text
         id="text6405"
         style="font-variant:normal;font-weight:normal;font-size:10px;font-family:Roboto;-inkscape-font-specification:Roboto;writing-mode:lr-tb;fill:#000000;fill-opacity:1;fill-rule:nonzero;stroke:none"
         transform="matrix(1,0,0,-1,21.77,65.53)"><tspan
           id="tspan6407"
           sodipodi:role="line"
           y="0"
           x="0">1</tspan></text>
<text
         id="text6409"
         style="font-variant:normal;font-weight:normal;font-size:10px;font-family:Roboto;-inkscape-font-specification:Roboto;writing-mode:lr-tb;fill:#000000;fill-opacity:1;fill-rule:nonzero;stroke:none"
         transform="matrix(1,0,0,-1,21.77,92.47)"><tspan
           id="tspan6411"
           sodipodi:role="line"
           y="0"
           x="0">2</tspan></text>
<text
         id="text6413"
         style="font-variant:normal;font-weight:normal;font-size:10px;font-family:Roboto;-inkscape-font-specification:Roboto;writing-mode:lr-tb;fill:#000000;fill-opacity:1;fill-rule:nonzero;stroke:none"
         transform="matrix(1,0,0,-1,21.77,119.4)"><tspan
           id="tspan6415"
           sodipodi:role="line"
           y="0"
           x="0">3</tspan></text>
<text
         id="text6417"
         style="font-variant:normal;font-weight:normal;font-size:10px;font-family:Roboto;-inkscape-font-specification:Roboto;writing-mode:lr-tb;fill:#000000;fill-opacity:1;fill-rule:nonzero;stroke:none"
         transform="matrix(1,0,0,-1,21.77,146.34)"><tspan
           id="tspan6419"
           sodipodi:role="line"
           y="0"
           x="0">4</tspan></text>
<text
         id="text6421"
         style="font-variant:normal;font-weight:normal;font-size:10px;font-family:Roboto;-inkscape-font-specification:Roboto;writing-mode:lr-tb;fill:#000000;fill-opacity:1;fill-rule:nonzero;stroke:none"
         transform="matrix(1,0,0,-1,21.77,173.27)"><tspan
           id="tspan6423"
           sodipodi:role="line"
           y="0"
           x="0">5</tspan></text>
<text
         id="text6425"
         style="font-variant:normal;font-weight:normal;font-size:10px;font-family:Roboto;-inkscape-font-specification:Roboto;writing-mode:lr-tb;fill:#000000;fill-opacity:1;fill-rule:nonzero;stroke:none"
         transform="matrix(1,0,0,-1,21.77,200.21)"><tspan
           id="tspan6427"
           sodipodi:role="line"
           y="0"
           x="0">6</tspan></text>
<text
         id="text6429"
         style="font-variant:normal;font-weight:normal;font-size:10px;font-family:Roboto;-inkscape-font-specification:Roboto;writing-mode:lr-tb;fill:#000000;fill-opacity:1;fill-rule:nonzero;stroke:none"
         transform="matrix(1,0,0,-1,21.77,227.14)"><tspan
           id="tspan6431"
           sodipodi:role="line"
           y="0"
           x="0">7</tspan></text>
<text
         id="text6433"
         style="font-variant:normal;font-weight:normal;font-size:10px;font-family:Roboto;-inkscape-font-specification:Roboto;writing-mode:lr-tb;fill:#000000;fill-opacity:1;fill-rule:nonzero;stroke:none"
         transform="matrix(1,0,0,-1,21.77,254.08)"><tspan
           id="tspan6435"
           sodipodi:role="line"
           y="0"
           x="0">8</tspan></text>
</g><g
       id="g6437" /><g
       id="g6439" /><g
       id="g6441" /><g
       id="g6443" /><g
       id="g6445" /><g
       id="g6447" /><g
       id="g6449" /><g
       id="g6451" /><g
       id="g6453" /><g
       id="g6455" /><g
       id="g6457" /><g
       id="g6459"><text
         id="text6461"
         style="font-variant:normal;font-weight:normal;font-size:10px;font-family:Roboto;-inkscape-font-specification:Roboto;writing-mode:lr-tb;fill:#000000;fill-opacity:1;fill-rule:nonzero;stroke:none"
         transform="matrix(1,0,0,-1,62.88,21.77)"><tspan
           id="tspan6463"
           sodipodi:role="line"
           y="0"
           x="0">23</tspan></text>
<text
         id="text6465"
         style="font-variant:normal;font-weight:normal;font-size:10px;font-family:Roboto;-inkscape-font-specification:Roboto;writing-mode:lr-tb;fill:#000000;fill-opacity:1;fill-rule:nonzero;stroke:none"
         transform="matrix(1,0,0,-1,95.77,21.77)"><tspan
           id="tspan6467"
           sodipodi:role="line"
           y="0"
           x="0">30</tspan></text>
<text
         id="text6469"
         style="font-variant:normal;font-weight:normal;font-size:10px;font-family:Roboto;-inkscape-font-specification:Roboto;writing-mode:lr-tb;fill:#000000;fill-opacity:1;fill-rule:nonzero;stroke:none"
         transform="matrix(1,0,0,-1,142.74,21.77)"><tspan
           id="tspan6471"
           sodipodi:role="line"
           y="0"
           x="0">40</tspan></text>
<text
         id="text6473"
         style="font-variant:normal;font-weight:normal;font-size:10px;font-family:Roboto;-inkscape-font-specification:Roboto;writing-mode:lr-tb;fill:#000000;fill-opacity:1;fill-rule:nonzero;stroke:none"
         transform="matrix(1,0,0,-1,189.71,21.77)"><tspan
           id="tspan6475"
           sodipodi:role="line"
           y="0"
           x="0">50</tspan></text>
<text
         id="text6477"
         style="font-variant:normal;font-weight:normal;font-size:10px;font-family:Roboto;-inkscape-font-specification:Roboto;writing-mode:lr-tb;fill:#000000;fill-opacity:1;fill-rule:nonzero;stroke:none"
         transform="matrix(1,0,0,-1,236.69,21.77)"><tspan
           id="tspan6479"
           sodipodi:role="line"
           y="0"
           x="0">60</tspan></text>
<text
         id="text6481"
         style="font-variant:normal;font-weight:normal;font-size:10px;font-family:Roboto;-inkscape-font-specification:Roboto;writing-mode:lr-tb;fill:#000000;fill-opacity:1;fill-rule:nonzero;stroke:none"
         transform="matrix(1,0,0,-1,283.66,21.77)"><tspan
           id="tspan6483"
           sodipodi:role="line"
           y="0"
           x="0">70</tspan></text>
<text
         id="text6485"
         style="font-variant:normal;font-weight:normal;font-size:10px;font-family:Roboto;-inkscape-font-specification:Roboto;writing-mode:lr-tb;fill:#000000;fill-opacity:1;fill-rule:nonzero;stroke:none"
         transform="matrix(1,0,0,-1,330.64,21.77)"><tspan
           id="tspan6487"
           sodipodi:role="line"
           y="0"
           x="0">80</tspan></text>
<text
         id="text6489"
         style="font-variant:normal;font-weight:normal;font-size:10px;font-family:Roboto;-inkscape-font-specification:Roboto;writing-mode:lr-tb;fill:#000000;fill-opacity:1;fill-rule:nonzero;stroke:none"
         transform="matrix(1,0,0,-1,377.61,21.77)"><tspan
           id="tspan6491"
           sodipodi:role="line"
           y="0"
           x="0">90</tspan></text>
</g><g
       id="g6493" /><g
       id="g6495" /><g
       id="g6497" /><g
       id="g6499"><text
         id="text6501"
         style="font-variant:normal;font-weight:normal;font-size:12px;font-family:Roboto;-inkscape-font-specification:Roboto;writing-mode:lr-tb;fill:#000000;fill-opacity:1;fill-rule:nonzero;stroke:none"
         transform="matrix(1,0,0,-1,163.32,8.37)"><tspan
           id="tspan6503"
           sodipodi:role="line"
           y="0"
           x="0">Weeks of gestational age</tspan></text>
</g><g
       id="g6505" /><g
       id="g6507" /><g
       id="g6513" /><g
       id="g6515" /><g
       id="g6517" /><g
       id="g6519" /><path
       style="fill:none;fill-rule:evenodd;stroke:#000000;stroke-width:0.80000001px;stroke-linecap:butt;stroke-linejoin:miter;stroke-opacity:1"
       d="m 132.59523,78.252495 -12.5655,4.96006"
       id="path4546"
       inkscape:connector-curvature="0" /><text
       xml:space="preserve"
       style="font-style:normal;font-weight:normal;font-size:10px;line-height:100%;font-family:sans-serif;text-align:center;letter-spacing:0px;word-spacing:0px;text-anchor:middle;fill:#000000;fill-opacity:1;stroke:none;stroke-width:1px;stroke-linecap:butt;stroke-linejoin:miter;stroke-opacity:1"
       x="105.14955"
       y="-95.724701"
       id="text4548"
       sodipodi:linespacing="100%"
       transform="scale(1,-1)"><tspan
         sodipodi:role="line"
         x="105.14955"
         y="-95.724701"
         id="tspan4552"
         style="font-style:normal;font-variant:normal;font-weight:normal;font-stretch:normal;font-family:'Roboto Condensed';-inkscape-font-specification:'Roboto Condensed, '">Distribution of</tspan><tspan
         sodipodi:role="line"
         x="105.14955"
         y="-85.724701"
         id="tspan4556"
         style="font-style:normal;font-variant:normal;font-weight:normal;font-stretch:normal;font-family:'Roboto Condensed';-inkscape-font-specification:'Roboto Condensed, '">life-births</tspan></text>
<path
       style="fill:none;fill-rule:evenodd;stroke:#000000;stroke-width:0.80000001px;stroke-linecap:butt;stroke-linejoin:miter;stroke-opacity:1"
       d="m 151.44729,144.50319 19.84025,16.53355"
       id="path7311"
       inkscape:connector-curvature="0" /><text
       xml:space="preserve"
       style="font-style:normal;font-weight:normal;font-size:10px;line-height:100%;font-family:sans-serif;text-align:center;letter-spacing:0px;word-spacing:0px;text-anchor:middle;fill:#000000;fill-opacity:1;stroke:none;stroke-width:1px;stroke-linecap:butt;stroke-linejoin:miter;stroke-opacity:1"
       x="202.37061"
       y="-163.35144"
       id="text7313"
       sodipodi:linespacing="100%"
       transform="scale(1,-1)"><tspan
         sodipodi:role="line"
         id="tspan7315"
         x="202.37061"
         y="-163.35144"
         style="font-style:normal;font-variant:normal;font-weight:normal;font-stretch:normal;line-height:100%;font-family:'Roboto Condensed';-inkscape-font-specification:'Roboto Condensed, '">Weekly fetal-infant</tspan><tspan
         sodipodi:role="line"
         x="202.37061"
         y="-153.35144"
         id="tspan7317"
         style="font-style:normal;font-variant:normal;font-weight:normal;font-stretch:normal;line-height:100%;font-family:'Roboto Condensed';-inkscape-font-specification:'Roboto Condensed, '">mortality rate &amp;</tspan><tspan
         sodipodi:role="line"
         x="202.37061"
         y="-143.35144"
         style="font-style:normal;font-variant:normal;font-weight:normal;font-stretch:normal;line-height:100%;font-family:'Roboto Condensed';-inkscape-font-specification:'Roboto Condensed, '"
         id="tspan7348">95 % CI</tspan></text>
<text
       xml:space="preserve"
       style="font-style:normal;font-variant:normal;font-weight:normal;font-stretch:normal;font-size:10px;line-height:100%;font-family:Roboto;-inkscape-font-specification:Roboto;text-align:center;letter-spacing:0px;word-spacing:0px;text-anchor:middle;fill:#000000;fill-opacity:1;stroke:none;stroke-width:1px;stroke-linecap:butt;stroke-linejoin:miter;stroke-opacity:1"
       x="47.947285"
       y="-278.09424"
       id="text7319"
       sodipodi:linespacing="100%"
       transform="scale(1,-1)"><tspan
         sodipodi:role="line"
         x="47.947285"
         y="-278.09424"
         id="tspan7323">Deaths per 10,000</tspan><tspan
         sodipodi:role="line"
         x="47.947285"
         y="-268.09424"
         id="tspan7327">person-weeks</tspan></text>
</g></svg>