<?xml version="1.0" encoding="UTF-8" standalone="no"?>
<!-- Created with Inkscape (http://www.inkscape.org/) -->

<svg
   xmlns:dc="http://purl.org/dc/elements/1.1/"
   xmlns:cc="http://creativecommons.org/ns#"
   xmlns:rdf="http://www.w3.org/1999/02/22-rdf-syntax-ns#"
   xmlns:svg="http://www.w3.org/2000/svg"
   xmlns="http://www.w3.org/2000/svg"
   xmlns:sodipodi="http://sodipodi.sourceforge.net/DTD/sodipodi-0.dtd"
   xmlns:inkscape="http://www.inkscape.org/namespaces/inkscape"
   id="svg12432"
   version="1.1"
   inkscape:version="0.91 r13725"
   xml:space="preserve"
   width="507.07825"
   height="353.83163"
   viewBox="0 0 507.07825 353.83163"
   sodipodi:docname="fi_hx_sex.svg"><sodipodi:namedview
     pagecolor="#ffffff"
     bordercolor="#666666"
     borderopacity="1"
     objecttolerance="10"
     gridtolerance="10"
     guidetolerance="10"
     inkscape:pageopacity="0"
     inkscape:pageshadow="2"
     inkscape:window-width="3440"
     inkscape:window-height="1416"
     id="namedview12434"
     showgrid="false"
     inkscape:zoom="2.6048309"
     inkscape:cx="174.58555"
     inkscape:cy="178.53457"
     inkscape:window-x="0"
     inkscape:window-y="24"
     inkscape:window-maximized="1"
     inkscape:current-layer="g12440"
     fit-margin-top="0"
     fit-margin-left="0"
     fit-margin-right="0"
     fit-margin-bottom="0" /><metadata
     id="metadata12438"><rdf:RDF><cc:Work
         rdf:about=""><dc:format>image/svg+xml</dc:format><dc:type
           rdf:resource="http://purl.org/dc/dcmitype/StillImage" /><dc:title></dc:title></cc:Work></rdf:RDF></metadata><defs
     id="defs12436"><clipPath
       id="clipPath12472"
       clipPathUnits="userSpaceOnUse"><path
         inkscape:connector-curvature="0"
         id="path12474"
         d="m 52.24,31.34 356.53,0 0,233.43 -356.53,0 0,-233.43 z" /></clipPath></defs><g
     transform="matrix(1.25,0,0,-1.25,-3.8842392,361.17401)"
     inkscape:label="fi_hx_sex"
     inkscape:groupmode="layer"
     id="g12440"><g
       id="g12442" /><g
       id="g12444" /><g
       id="g12446" /><g
       id="g12448" /><g
       id="g12450" /><g
       id="g12452" /><g
       id="g12454" /><g
       id="g12456" /><g
       id="g12458" /><g
       id="g12460" /><g
       id="g12462" /><g
       id="g12464" /><g
       id="g12466" /><g
       id="g12468"><g
         clip-path="url(#clipPath12472)"
         id="g12470"><path
           inkscape:connector-curvature="0"
           id="path12476"
           style="fill:none;stroke:#e5e5e5;stroke-width:1.07000005;stroke-linecap:butt;stroke-linejoin:round;stroke-miterlimit:10;stroke-dasharray:none;stroke-opacity:1"
           d="m 52.24,65.2 356.53,0" /><path
           inkscape:connector-curvature="0"
           id="path12478"
           style="fill:none;stroke:#e5e5e5;stroke-width:1.07000005;stroke-linecap:butt;stroke-linejoin:round;stroke-miterlimit:10;stroke-dasharray:none;stroke-opacity:1"
           d="m 52.24,130.45 356.53,0" /><path
           inkscape:connector-curvature="0"
           id="path12480"
           style="fill:none;stroke:#e5e5e5;stroke-width:1.07000005;stroke-linecap:butt;stroke-linejoin:round;stroke-miterlimit:10;stroke-dasharray:none;stroke-opacity:1"
           d="m 52.24,195.7 356.53,0" /><path
           inkscape:connector-curvature="0"
           id="path12482"
           style="fill:none;stroke:#e5e5e5;stroke-width:1.07000005;stroke-linecap:butt;stroke-linejoin:round;stroke-miterlimit:10;stroke-dasharray:none;stroke-opacity:1"
           d="m 52.24,260.95 356.53,0" /><path
           inkscape:connector-curvature="0"
           id="path12484"
           style="fill:none;stroke:#e5e5e5;stroke-width:1.07000005;stroke-linecap:butt;stroke-linejoin:round;stroke-miterlimit:10;stroke-dasharray:none;stroke-opacity:1"
           d="m 68.44,31.34 0,233.43" /><path
           inkscape:connector-curvature="0"
           id="path12486"
           style="fill:none;stroke:#e5e5e5;stroke-width:1.07000005;stroke-linecap:butt;stroke-linejoin:round;stroke-miterlimit:10;stroke-dasharray:none;stroke-opacity:1"
           d="m 101.33,31.34 0,233.43" /><path
           inkscape:connector-curvature="0"
           id="path12488"
           style="fill:none;stroke:#e5e5e5;stroke-width:1.07000005;stroke-linecap:butt;stroke-linejoin:round;stroke-miterlimit:10;stroke-dasharray:none;stroke-opacity:1"
           d="m 148.3,31.34 0,233.43" /><path
           inkscape:connector-curvature="0"
           id="path12490"
           style="fill:none;stroke:#e5e5e5;stroke-width:1.07000005;stroke-linecap:butt;stroke-linejoin:round;stroke-miterlimit:10;stroke-dasharray:none;stroke-opacity:1"
           d="m 195.27,31.34 0,233.43" /><path
           inkscape:connector-curvature="0"
           id="path12492"
           style="fill:none;stroke:#e5e5e5;stroke-width:1.07000005;stroke-linecap:butt;stroke-linejoin:round;stroke-miterlimit:10;stroke-dasharray:none;stroke-opacity:1"
           d="m 242.25,31.34 0,233.43" /><path
           inkscape:connector-curvature="0"
           id="path12494"
           style="fill:none;stroke:#e5e5e5;stroke-width:1.07000005;stroke-linecap:butt;stroke-linejoin:round;stroke-miterlimit:10;stroke-dasharray:none;stroke-opacity:1"
           d="m 289.22,31.34 0,233.43" /><path
           inkscape:connector-curvature="0"
           id="path12496"
           style="fill:none;stroke:#e5e5e5;stroke-width:1.07000005;stroke-linecap:butt;stroke-linejoin:round;stroke-miterlimit:10;stroke-dasharray:none;stroke-opacity:1"
           d="m 336.2,31.34 0,233.43" /><path
           inkscape:connector-curvature="0"
           id="path12498"
           style="fill:none;stroke:#e5e5e5;stroke-width:1.07000005;stroke-linecap:butt;stroke-linejoin:round;stroke-miterlimit:10;stroke-dasharray:none;stroke-opacity:1"
           d="m 383.17,31.34 0,233.43" /><path
           inkscape:connector-curvature="0"
           id="path12500"
           style="fill:#bdbdbd;fill-opacity:1;fill-rule:nonzero;stroke:none"
           d="m 68.44,254.16 4.7,0 0,-6.64 4.7,0 0,-6.29 4.7,0 0,-2.25 4.69,0 0,-4.77 4.7,0 0,0.41 4.7,0 0,-1.86 4.7,0 0,-2.3 4.69,0 0,0.06 4.7,0 0,-1.2 4.7,0 0,1.17 4.7,0 0,4.33 4.69,0 0,-2.2 4.7,0 0,5.06 4.7,0 0,0.4 4.7,0 0,1.33 4.69,0 0,-1.43 4.7,0 0,-7.12 4.7,0 0,-9.43 4.7,0 0,-8.49 4.69,0 0,-6.92 4.7,0 0,-1.58 4.7,0 0,-4.97 4.69,0 0,0.9 4.7,0 0,0.74 4.7,0 0,-4.5 4.7,0 0,0.14 4.69,0 0,0.15 4.7,0 0,-1.77 4.7,0 0,-2.89 4.7,0 0,3.65 4.69,0 0,-11.43 4.7,0 0,1.11 4.7,0 0,-4.98 4.7,0 0,-1.88 4.69,0 0,1.09 4.7,0 0,-1.94 4.7,0 0,-1.18 4.7,0 0,-2.85 4.69,0 0,0 4.7,0 0,-5.14 4.7,0 0,-1.67 4.7,0 0,1.26 4.69,0 0,-9.85 4.7,0 0,1.74 4.7,0 0,1.09 4.7,0 0,-2.23 4.69,0 0,1.14 4.7,0 0,-6.28 4.7,0 0,2.7 4.7,0 0,3.01 4.69,0 0,-5.01 4.7,0 0,0.7 4.7,0 0,0.02 4.7,0 0,-7.74 4.69,0 0,-1.84 4.7,0 0,-4.18 4.7,0 0,7.9 4.69,0 0,-12.84 4.7,0 0,11.25 4.7,0 0,2.7 4.7,0 0,-5.29 4.69,0 0,-6.69 4.7,0 0,-2.42 4.7,0 0,8.26 4.7,0 0,-2.4 4.69,0 0,-6.66 4.7,0 0,-16.3 4.7,0 0,19.16 0,-53.97 0,-42.3 -4.7,0 0,58.88 -4.7,0 0,13.74 -4.69,0 0,4.62 -4.7,0 0,-13.41 -4.7,0 0,4.47 -4.7,0 0,11 -4.69,0 0,8.09 -4.7,0 0,-3.97 -4.7,0 0,-18.06 -4.7,0 0,20.53 -4.69,0 0,-12.2 -4.7,0 0,6.62 -4.7,0 0,2.82 -4.69,0 0,11.29 -4.7,0 0,-0.02 -4.7,0 0,-0.97 -4.7,0 0,6.96 -4.69,0 0,-4.16 -4.7,0 0,-3.8 -4.7,0 0,8.73 -4.7,0 0,-1.56 -4.69,0 0,3.04 -4.7,0 0,-1.48 -4.7,0 0,-2.37 -4.7,0 0,13.13 -4.69,0 0,-1.64 -4.7,0 0,2.17 -4.7,0 0,6.56 -4.7,0 0,0 -4.69,0 0,3.56 -4.7,0 0,1.46 -4.7,0 0,2.39 -4.7,0 0,-1.34 -4.69,0 0,2.31 -4.7,0 0,6.02 -4.7,0 0,-1.33 -4.7,0 0,13.49 -4.69,0 0,-4.24 -4.7,0 0,3.37 -4.7,0 0,2.05 -4.7,0 0,-0.17 -4.69,0 0,-0.17 -4.7,0 0,5.19 -4.7,0 0,-0.86 -4.7,0 0,-1.03 -4.69,0 0,5.68 -4.7,0 0,1.78 -4.7,0 0,7.77 -4.69,0 0,9.37 -4.7,0 0,10.26 -4.7,0 0,7.65 -4.7,0 0,1.53 -4.69,0 0,-1.42 -4.7,0 0,-0.43 -4.7,0 0,-5.43 -4.7,0 0,2.36 -4.69,0 0,-4.66 -4.7,0 0,-1.26 -4.7,0 0,1.29 -4.7,0 0,-0.05 -4.69,0 0,2.47 -4.7,0 0,2 -4.7,0 0,-0.44 -4.7,0 0,5.12 -4.69,0 0,2.39 -4.7,0 0,6.69 -4.7,0 0,7 -4.7,0 0,2.83 z" /><path
           inkscape:connector-curvature="0"
           id="path12502"
           style="fill:#bdbdbd;fill-opacity:1;fill-rule:nonzero;stroke:none"
           d="m 68.44,252.1 4.7,0 0,-8.19 4.7,0 0,-3.92 4.7,0 0,-3.85 4.69,0 0,-3.47 4.7,0 0,-2.95 4.7,0 0,-4.09 4.7,0 0,2.28 4.69,0 0,-2.9 4.7,0 0,0.43 4.7,0 0,-1.02 4.7,0 0,4.14 4.69,0 0,0.8 4.7,0 0,4.62 4.7,0 0,1.57 4.7,0 0,2.2 4.69,0 0,-1.17 4.7,0 0,-6.08 4.7,0 0,-9.88 4.7,0 0,-9.84 4.69,0 0,-6.59 4.7,0 0,-4.21 4.7,0 0,-0.26 4.69,0 0,-2.69 4.7,0 0,-5.24 4.7,0 0,-0.36 4.7,0 0,-0.93 4.69,0 0,-7.1 4.7,0 0,3.68 4.7,0 0,-0.87 4.7,0 0,-7.06 4.69,0 0,6.84 4.7,0 0,-9.56 4.7,0 0,2.73 4.7,0 0,-2.41 4.69,0 0,-7.59 4.7,0 0,2.78 4.7,0 0,-4.95 4.7,0 0,4.19 4.69,0 0,-0.79 4.7,0 0,-11.88 4.7,0 0,2.39 4.7,0 0,1.12 4.69,0 0,0 4.7,0 0,-6.13 4.7,0 0,-2.16 4.7,0 0,-4.04 4.69,0 0,5.5 4.7,0 0,-6.39 4.7,0 0,4.93 4.7,0 0,-2.35 4.69,0 0,-3.5 4.7,0 0,-8.87 4.7,0 0,2.55 4.7,0 0,-2.49 4.69,0 0,1.32 4.7,0 0,4.64 4.7,0 0,-13.52 4.69,0 0,10.27 4.7,0 0,1.25 4.7,0 0,0.11 4.7,0 0,-19.71 4.69,0 0,13.58 4.7,0 0,-1.18 4.7,0 0,11.84 4.7,0 0,-11.84 4.69,0 0,3.73 4.7,0 0,-4.57 4.7,0 0,-4.31 0,-77.11 0,40.34 -4.7,0 0,14.06 -4.7,0 0,-5.1 -4.69,0 0,20.79 -4.7,0 0,-19.42 -4.7,0 0,2.38 -4.7,0 0,-27.46 -4.69,0 0,38.07 -4.7,0 0,-0.11 -4.7,0 0,-1.99 -4.7,0 0,-18.15 -4.69,0 0,23.46 -4.7,0 0,-7.49 -4.7,0 0,-2.21 -4.69,0 0,4.18 -4.7,0 0,-4.23 -4.7,0 0,14.22 -4.7,0 0,5.25 -4.69,0 0,3.43 -4.7,0 0,-7.28 -4.7,0 0,9.37 -4.7,0 0,-8.03 -4.69,0 0,5.94 -4.7,0 0,3.08 -4.7,0 0,8.49 -4.7,0 0,0 -4.69,0 0,-1.52 -4.7,0 0,-3.29 -4.7,0 0,15.87 -4.7,0 0,1.01 -4.69,0 0,-5.44 -4.7,0 0,6.41 -4.7,0 0,-3.57 -4.7,0 0,9.66 -4.69,0 0,2.99 -4.7,0 0,-3.39 -4.7,0 0,11.71 -4.7,0 0,-8.33 -4.69,0 0,8.6 -4.7,0 0,1.04 -4.7,0 0,-4.43 -4.7,0 0,8.51 -4.69,0 0,1.1 -4.7,0 0,0.42 -4.7,0 0,6.13 -4.7,0 0,3.11 -4.69,0 0,0.31 -4.7,0 0,4.81 -4.7,0 0,7.45 -4.69,0 0,10.92 -4.7,0 0,10.78 -4.7,0 0,6.55 -4.7,0 0,1.26 -4.69,0 0,-2.37 -4.7,0 0,-1.68 -4.7,0 0,-4.99 -4.7,0 0,-0.87 -4.69,0 0,-4.5 -4.7,0 0,1.11 -4.7,0 0,-0.47 -4.7,0 0,3.15 -4.69,0 0,-2.47 -4.7,0 0,4.44 -4.7,0 0,3.2 -4.7,0 0,3.73 -4.69,0 0,4.12 -4.7,0 0,4.18 -4.7,0 0,8.68 -4.7,0 0,3.01 z" /><path
           inkscape:connector-curvature="0"
           id="path12504"
           style="fill:none;stroke:#3191c9;stroke-width:1.0704;stroke-linecap:butt;stroke-linejoin:miter;stroke-miterlimit:5;stroke-dasharray:none;stroke-opacity:1"
           d="m 68.44,252.78 4.7,0 0,-6.81 4.7,0 0,-6.48 4.7,0 0,-2.31 4.69,0 0,-4.94 4.7,0 0,0.43 4.7,0 0,-1.93 4.7,0 0,-2.38 4.69,0 0,0.06 4.7,0 0,-1.24 4.7,0 0,1.21 4.7,0 0,4.48 4.69,0 0,-2.28 4.7,0 0,5.24 4.7,0 0,0.41 4.7,0 0,1.38 4.69,0 0,-1.48 4.7,0 0,-7.37 4.7,0 0,-9.8 4.7,0 0,-8.89 4.69,0 0,-7.3 4.7,0 0,-1.67 4.7,0 0,-5.28 4.69,0 0,0.96 4.7,0 0,0.79 4.7,0 0,-4.8 4.7,0 0,0.16 4.69,0 0,0.15 4.7,0 0,-1.89 4.7,0 0,-3.09 4.7,0 0,3.9 4.69,0 0,-12.29 4.7,0 0,1.2 4.7,0 0,-5.4 4.7,0 0,-2.06 4.69,0 0,1.2 4.7,0 0,-2.12 4.7,0 0,-1.29 4.7,0 0,-3.13 4.69,0 0,0 4.7,0 0,-5.69 4.7,0 0,-1.85 4.7,0 0,1.4 4.69,0 0,-11.03 4.7,0 0,1.95 4.7,0 0,1.24 4.7,0 0,-2.52 4.69,0 0,1.28 4.7,0 0,-7.12 4.7,0 0,3.07 4.7,0 0,3.42 4.69,0 0,-5.69 4.7,0 0,0.79 4.7,0 0,0.03 4.7,0 0,-8.9 4.69,0 0,-2.14 4.7,0 0,-4.9 4.7,0 0,9.2 4.69,0 0,-15.07 4.7,0 0,13.2 4.7,0 0,3.1 4.7,0 0,-6.16 4.69,0 0,-7.91 4.7,0 0,-2.96 4.7,0 0,9.66 4.7,0 0,-3.02 4.69,0 0,-8.45 4.7,0 0,-21.83 4.7,0 0,21.29 4.7,0 0,-3.56" /><path
           inkscape:connector-curvature="0"
           id="path12506"
           style="fill:none;stroke:#d23737;stroke-width:1.0704;stroke-linecap:butt;stroke-linejoin:miter;stroke-miterlimit:5;stroke-dasharray:none;stroke-opacity:1"
           d="m 68.44,250.63 4.7,0 0,-8.42 4.7,0 0,-4.04 4.7,0 0,-3.97 4.69,0 0,-3.59 4.7,0 0,-3.07 4.7,0 0,-4.25 4.7,0 0,2.37 4.69,0 0,-3.02 4.7,0 0,0.45 4.7,0 0,-1.06 4.7,0 0,4.3 4.69,0 0,0.84 4.7,0 0,4.79 4.7,0 0,1.62 4.7,0 0,2.28 4.69,0 0,-1.21 4.7,0 0,-6.31 4.7,0 0,-10.29 4.7,0 0,-10.32 4.69,0 0,-6.97 4.7,0 0,-4.46 4.7,0 0,-0.29 4.69,0 0,-2.87 4.7,0 0,-5.61 4.7,0 0,-0.39 4.7,0 0,-1 4.69,0 0,-7.68 4.7,0 0,3.99 4.7,0 0,-0.94 4.7,0 0,-7.68 4.69,0 0,7.44 4.7,0 0,-10.42 4.7,0 0,2.99 4.7,0 0,-2.64 4.69,0 0,-8.38 4.7,0 0,3.08 4.7,0 0,-5.51 4.7,0 0,4.66 4.69,0 0,-0.87 4.7,0 0,-13.32 4.7,0 0,2.7 4.7,0 0,1.26 4.69,0 0,0 4.7,0 0,-6.94 4.7,0 0,-2.47 4.7,0 0,-4.65 4.69,0 0,6.32 4.7,0 0,-7.35 4.7,0 0,5.69 4.7,0 0,-2.7 4.69,0 0,-4.06 4.7,0 0,-10.41 4.7,0 0,3.01 4.7,0 0,-2.96 4.69,0 0,1.57 4.7,0 0,5.45 4.7,0 0,-16.11 4.69,0 0,12.27 4.7,0 0,1.46 4.7,0 0,0.11 4.7,0 0,-23.87 4.69,0 0,16.53 4.7,0 0,-1.48 4.7,0 0,13.9 4.7,0 0,-14.24 4.69,0 0,4.07 4.7,0 0,-6.64 4.7,0 0,-8.47 4.7,0 0,-25.74" /></g></g><g
       id="g12508" /><g
       id="g12510" /><g
       id="g12512" /><g
       id="g12514" /><g
       id="g12516" /><g
       id="g12518"
       transform="translate(16,0)"><text
         id="text12520"
         style="font-variant:normal;font-weight:normal;font-size:10px;font-family:Roboto;-inkscape-font-specification:Roboto;writing-mode:lr-tb;fill:#000000;fill-opacity:1;fill-rule:nonzero;stroke:none"
         transform="matrix(1,0,0,-1,21.77,61.61)"><tspan
           id="tspan12522"
           sodipodi:role="line"
           x="0"
           y="0">.01</tspan></text>
<text
         id="text12524"
         style="font-variant:normal;font-weight:normal;font-size:10px;font-family:Roboto;-inkscape-font-specification:Roboto;writing-mode:lr-tb;fill:#000000;fill-opacity:1;fill-rule:nonzero;stroke:none"
         transform="scale(1,-1)"
         x="27.395"
         y="-126.86"><tspan
           id="tspan12526"
           sodipodi:role="line"
           x="27.395"
           y="-126.86">.1</tspan></text>
<text
         id="text12528"
         style="font-variant:normal;font-weight:normal;font-size:10px;font-family:Roboto;-inkscape-font-specification:Roboto;writing-mode:lr-tb;fill:#000000;fill-opacity:1;fill-rule:nonzero;stroke:none"
         transform="scale(1,-1)"
         x="30.031719"
         y="-192.11"><tspan
           id="tspan12530"
           sodipodi:role="line"
           x="30.031719"
           y="-192.11">1</tspan></text>
<text
         id="text12532"
         style="font-variant:normal;font-weight:normal;font-size:10px;font-family:Roboto;-inkscape-font-specification:Roboto;writing-mode:lr-tb;fill:#000000;fill-opacity:1;fill-rule:nonzero;stroke:none"
         transform="scale(1,-1)"
         x="22.917461"
         y="-257.35999"><tspan
           id="tspan12534"
           sodipodi:role="line"
           x="22.917461"
           y="-257.35999">10</tspan></text>
</g><g
       id="g12536" /><g
       id="g12538" /><g
       id="g12540" /><g
       id="g12542" /><g
       id="g12544" /><g
       id="g12546" /><g
       id="g12548" /><g
       id="g12550" /><g
       id="g12552" /><g
       id="g12554" /><g
       id="g12556" /><g
       id="g12558"><text
         id="text12560"
         style="font-variant:normal;font-weight:normal;font-size:10px;font-family:Roboto;-inkscape-font-specification:Roboto;writing-mode:lr-tb;fill:#000000;fill-opacity:1;fill-rule:nonzero;stroke:none"
         transform="matrix(1,0,0,-1,62.88,21.77)"><tspan
           id="tspan12562"
           sodipodi:role="line"
           y="0"
           x="0 5.5599999">23</tspan></text>
<text
         id="text12564"
         style="font-variant:normal;font-weight:normal;font-size:10px;font-family:Roboto;-inkscape-font-specification:Roboto;writing-mode:lr-tb;fill:#000000;fill-opacity:1;fill-rule:nonzero;stroke:none"
         transform="matrix(1,0,0,-1,95.77,21.77)"><tspan
           id="tspan12566"
           sodipodi:role="line"
           y="0"
           x="0 5.5599999">30</tspan></text>
<text
         id="text12568"
         style="font-variant:normal;font-weight:normal;font-size:10px;font-family:Roboto;-inkscape-font-specification:Roboto;writing-mode:lr-tb;fill:#000000;fill-opacity:1;fill-rule:nonzero;stroke:none"
         transform="matrix(1,0,0,-1,142.74,21.77)"><tspan
           id="tspan12570"
           sodipodi:role="line"
           y="0"
           x="0 5.5599999">40</tspan></text>
<text
         id="text12572"
         style="font-variant:normal;font-weight:normal;font-size:10px;font-family:Roboto;-inkscape-font-specification:Roboto;writing-mode:lr-tb;fill:#000000;fill-opacity:1;fill-rule:nonzero;stroke:none"
         transform="matrix(1,0,0,-1,189.71,21.77)"><tspan
           id="tspan12574"
           sodipodi:role="line"
           y="0"
           x="0 5.5599999">50</tspan></text>
<text
         id="text12576"
         style="font-variant:normal;font-weight:normal;font-size:10px;font-family:Roboto;-inkscape-font-specification:Roboto;writing-mode:lr-tb;fill:#000000;fill-opacity:1;fill-rule:nonzero;stroke:none"
         transform="matrix(1,0,0,-1,236.69,21.77)"><tspan
           id="tspan12578"
           sodipodi:role="line"
           y="0"
           x="0 5.5599999">60</tspan></text>
<text
         id="text12580"
         style="font-variant:normal;font-weight:normal;font-size:10px;font-family:Roboto;-inkscape-font-specification:Roboto;writing-mode:lr-tb;fill:#000000;fill-opacity:1;fill-rule:nonzero;stroke:none"
         transform="matrix(1,0,0,-1,283.66,21.77)"><tspan
           id="tspan12582"
           sodipodi:role="line"
           y="0"
           x="0 5.5599999">70</tspan></text>
<text
         id="text12584"
         style="font-variant:normal;font-weight:normal;font-size:10px;font-family:Roboto;-inkscape-font-specification:Roboto;writing-mode:lr-tb;fill:#000000;fill-opacity:1;fill-rule:nonzero;stroke:none"
         transform="matrix(1,0,0,-1,330.64,21.77)"><tspan
           id="tspan12586"
           sodipodi:role="line"
           y="0"
           x="0 5.5599999">80</tspan></text>
<text
         id="text12588"
         style="font-variant:normal;font-weight:normal;font-size:10px;font-family:Roboto;-inkscape-font-specification:Roboto;writing-mode:lr-tb;fill:#000000;fill-opacity:1;fill-rule:nonzero;stroke:none"
         transform="matrix(1,0,0,-1,377.61,21.77)"><tspan
           id="tspan12590"
           sodipodi:role="line"
           y="0"
           x="0 5.5599999">90</tspan></text>
</g><g
       id="g12592" /><g
       id="g12594" /><g
       id="g12596" /><g
       id="g12598"><text
         id="text12600"
         style="font-variant:normal;font-weight:normal;font-size:12px;font-family:Roboto;-inkscape-font-specification:Roboto;writing-mode:lr-tb;fill:#000000;fill-opacity:1;fill-rule:nonzero;stroke:none"
         transform="matrix(1,0,0,-1,163.32,8.37)"><tspan
           id="tspan12602"
           sodipodi:role="line"
           y="0"
           x="0 10.968 17.639999 24.312 30.312 36.312 39.647999 46.32 49.655998 52.992001 59.664001 66.335999 72.335999 75.671997 82.344002 85.68 88.344002 95.015999 101.688 108.36 111.024 114.36 121.032 127.704">Weeks of gestational age</tspan></text>
</g><g
       id="g12604" /><g
       id="g12606" /><g
       id="g12612" /><g
       id="g12614" /><g
       id="g12616" /><g
       id="g12618" /><text
       xml:space="preserve"
       style="font-style:normal;font-variant:normal;font-weight:normal;font-stretch:normal;font-size:10px;line-height:100%;font-family:Roboto;-inkscape-font-specification:Roboto;text-align:center;letter-spacing:0px;word-spacing:0px;text-anchor:middle;fill:#000000;fill-opacity:1;stroke:none;stroke-width:1px;stroke-linecap:butt;stroke-linejoin:miter;stroke-opacity:1"
       x="42.565399"
       y="-281.43921"
       id="text7319"
       sodipodi:linespacing="100%"
       transform="scale(1,-1)"><tspan
         sodipodi:role="line"
         x="42.565399"
         y="-281.43921"
         id="tspan7323">Deaths per 10,000</tspan><tspan
         sodipodi:role="line"
         x="42.565399"
         y="-271.43921"
         id="tspan7327">person-weeks</tspan></text>
<path
       style="fill:none;fill-rule:evenodd;stroke:#000000;stroke-width:0.80000001px;stroke-linecap:butt;stroke-linejoin:miter;stroke-opacity:1"
       d="m 216.52077,197.78635 9.52077,8.29229"
       id="path13367"
       inkscape:connector-curvature="0" /><path
       style="fill:none;fill-rule:evenodd;stroke:#000000;stroke-width:0.80000001px;stroke-linecap:butt;stroke-linejoin:miter;stroke-opacity:1"
       d="m 190.41543,176.28783 -10.44213,-7.0638"
       id="path13369"
       inkscape:connector-curvature="0" /><text
       xml:space="preserve"
       style="font-style:normal;font-variant:normal;font-weight:normal;font-stretch:normal;font-size:10px;line-height:125%;font-family:Roboto;-inkscape-font-specification:Roboto;text-align:center;letter-spacing:0px;word-spacing:0px;text-anchor:middle;fill:#000000;fill-opacity:1;stroke:none;stroke-width:1px;stroke-linecap:butt;stroke-linejoin:miter;stroke-opacity:1"
       x="169.23889"
       y="-161.4816"
       id="text13371"
       sodipodi:linespacing="125%"
       transform="scale(1,-1)"><tspan
         sodipodi:role="line"
         id="tspan13373"
         x="169.23889"
         y="-161.4816">Females</tspan></text>
<text
       xml:space="preserve"
       style="font-style:normal;font-variant:normal;font-weight:normal;font-stretch:normal;font-size:10px;line-height:125%;font-family:Roboto;-inkscape-font-specification:Roboto;text-align:center;letter-spacing:0px;word-spacing:0px;text-anchor:middle;fill:#000000;fill-opacity:1;stroke:none;stroke-width:1px;stroke-linecap:butt;stroke-linejoin:miter;stroke-opacity:1"
       x="229.72701"
       y="-207.79257"
       id="text13375"
       sodipodi:linespacing="125%"
       transform="scale(1,-1)"><tspan
         sodipodi:role="line"
         id="tspan13377"
         x="229.72701"
         y="-207.79257">Males</tspan></text>
</g></svg>