<?xml version="1.0" encoding="UTF-8" standalone="no"?>
<!-- Created with Inkscape (http://www.inkscape.org/) -->

<svg
   xmlns:dc="http://purl.org/dc/elements/1.1/"
   xmlns:cc="http://creativecommons.org/ns#"
   xmlns:rdf="http://www.w3.org/1999/02/22-rdf-syntax-ns#"
   xmlns:svg="http://www.w3.org/2000/svg"
   xmlns="http://www.w3.org/2000/svg"
   xmlns:sodipodi="http://sodipodi.sourceforge.net/DTD/sodipodi-0.dtd"
   xmlns:inkscape="http://www.inkscape.org/namespaces/inkscape"
   id="svg2"
   version="1.1"
   inkscape:version="0.91 r13725"
   xml:space="preserve"
   width="474.85315"
   height="352.96484"
   viewBox="0 0 474.85315 352.96484"
   sodipodi:docname="filt_male_2009_fit.svg"
   inkscape:export-filename="/home/jon/lucile/share/Dropbox/sci/2015-10-fimort-agepat/out/fig/filt_male_2009_fit.png"
   inkscape:export-xdpi="331.31299"
   inkscape:export-ydpi="331.31299"><metadata
     id="metadata8"><rdf:RDF><cc:Work
         rdf:about=""><dc:format>image/svg+xml</dc:format><dc:type
           rdf:resource="http://purl.org/dc/dcmitype/StillImage" /><dc:title></dc:title></cc:Work></rdf:RDF></metadata><defs
     id="defs6" /><sodipodi:namedview
     pagecolor="#ffffff"
     bordercolor="#666666"
     borderopacity="1"
     objecttolerance="10"
     gridtolerance="10"
     guidetolerance="10"
     inkscape:pageopacity="0"
     inkscape:pageshadow="2"
     inkscape:window-width="1920"
     inkscape:window-height="1056"
     id="namedview4"
     showgrid="false"
     showguides="false"
     inkscape:zoom="1.9778039"
     inkscape:cx="200.70788"
     inkscape:cy="161.5575"
     inkscape:window-x="0"
     inkscape:window-y="24"
     inkscape:window-maximized="1"
     inkscape:current-layer="g10"
     fit-margin-top="0"
     fit-margin-left="0"
     fit-margin-right="0"
     fit-margin-bottom="0" /><g
     id="g10"
     inkscape:groupmode="layer"
     inkscape:label="filt_male_2009_fit"
     transform="matrix(1.25,0,0,-1.25,-36.071854,360.15736)"><g
       id="g12" /><g
       id="g14" /><g
       id="g16" /><g
       id="g18" /><g
       id="g20" /><g
       id="g22" /><g
       id="g24" /><g
       id="g26" /><g
       id="g28" /><g
       id="g30" /><g
       id="g32" /><g
       id="g34" /><g
       id="g36" /><g
       id="g38" /><g
       id="g40"><g
         id="g42"
         clip-path="none"><path
           d="m 52.24,41.95 356.5,0"
           style="fill:none;stroke:#e5e5e5;stroke-width:1.07000005;stroke-linecap:butt;stroke-linejoin:round;stroke-miterlimit:10;stroke-dasharray:none;stroke-opacity:1"
           id="path48"
           inkscape:connector-curvature="0" /><path
           d="m 52.24,112.68 356.5,0"
           style="fill:none;stroke:#e5e5e5;stroke-width:1.07000005;stroke-linecap:butt;stroke-linejoin:round;stroke-miterlimit:10;stroke-dasharray:none;stroke-opacity:1"
           id="path50"
           inkscape:connector-curvature="0" /><path
           d="m 52.24,183.4 356.5,0"
           style="fill:none;stroke:#e5e5e5;stroke-width:1.07000005;stroke-linecap:butt;stroke-linejoin:round;stroke-miterlimit:10;stroke-dasharray:none;stroke-opacity:1"
           id="path52"
           inkscape:connector-curvature="0" /><path
           d="m 52.24,254.13 356.5,0"
           style="fill:none;stroke:#e5e5e5;stroke-width:1.07000005;stroke-linecap:butt;stroke-linejoin:round;stroke-miterlimit:10;stroke-dasharray:none;stroke-opacity:1"
           id="path54"
           inkscape:connector-curvature="0" /><path
           d="m 68.44,31.34 0,233.4"
           style="fill:none;stroke:#e5e5e5;stroke-width:1.07000005;stroke-linecap:butt;stroke-linejoin:round;stroke-miterlimit:10;stroke-dasharray:none;stroke-opacity:1"
           id="path56"
           inkscape:connector-curvature="0" /><path
           d="m 101.32,31.34 0,233.4"
           style="fill:none;stroke:#e5e5e5;stroke-width:1.07000005;stroke-linecap:butt;stroke-linejoin:round;stroke-miterlimit:10;stroke-dasharray:none;stroke-opacity:1"
           id="path58"
           inkscape:connector-curvature="0" /><path
           d="m 148.29,31.34 0,233.4"
           style="fill:none;stroke:#e5e5e5;stroke-width:1.07000005;stroke-linecap:butt;stroke-linejoin:round;stroke-miterlimit:10;stroke-dasharray:none;stroke-opacity:1"
           id="path60"
           inkscape:connector-curvature="0" /><path
           d="m 195.26,31.34 0,233.4"
           style="fill:none;stroke:#e5e5e5;stroke-width:1.07000005;stroke-linecap:butt;stroke-linejoin:round;stroke-miterlimit:10;stroke-dasharray:none;stroke-opacity:1"
           id="path62"
           inkscape:connector-curvature="0" /><path
           d="m 242.23,31.34 0,233.4"
           style="fill:none;stroke:#e5e5e5;stroke-width:1.07000005;stroke-linecap:butt;stroke-linejoin:round;stroke-miterlimit:10;stroke-dasharray:none;stroke-opacity:1"
           id="path64"
           inkscape:connector-curvature="0" /><path
           d="m 289.2,31.34 0,233.4"
           style="fill:none;stroke:#e5e5e5;stroke-width:1.07000005;stroke-linecap:butt;stroke-linejoin:round;stroke-miterlimit:10;stroke-dasharray:none;stroke-opacity:1"
           id="path66"
           inkscape:connector-curvature="0" /><path
           d="m 336.17,31.34 0,233.4"
           style="fill:none;stroke:#e5e5e5;stroke-width:1.07000005;stroke-linecap:butt;stroke-linejoin:round;stroke-miterlimit:10;stroke-dasharray:none;stroke-opacity:1"
           id="path68"
           inkscape:connector-curvature="0" /><path
           d="m 383.14,31.34 0,233.4"
           style="fill:none;stroke:#e5e5e5;stroke-width:1.07000005;stroke-linecap:butt;stroke-linejoin:round;stroke-miterlimit:10;stroke-dasharray:none;stroke-opacity:1"
           id="path70"
           inkscape:connector-curvature="0" /><path
           d="m 68.44,245.28 4.7,0 0,-7.38 4.7,0 0,-7.03 4.69,0 0,-2.51 4.7,0 0,-5.34 4.7,0 0,0.46 4.69,0 0,-2.09 4.7,0 0,-2.58 4.7,0 0,0.06 4.7,0 0,-1.35 4.69,0 0,1.32 4.7,0 0,4.86 4.7,0 0,-2.47 4.69,0 0,5.68 4.7,0 0,0.44 4.7,0 0,1.49 4.69,0 0,-1.6 4.7,0 0,-7.99 4.7,0 0,-10.63 4.7,0 0,-9.63 4.69,0 0,-7.91 4.7,0 0,-1.81 4.7,0 0,-5.72 4.69,0 0,1.03 4.7,0 0,0.87 4.7,0 0,-5.21 4.7,0 0,0.17 4.69,0 0,0.17 4.7,0 0,-2.05 4.7,0 0,-3.35 4.69,0 0,4.23 4.7,0 0,-13.33 4.7,0 0,1.3 4.69,0 0,-5.85 4.7,0 0,-2.23 4.7,0 0,1.3 4.7,0 0,-2.3 4.69,0 0,-1.4 4.7,0 0,-3.39 4.7,0 0,0 4.69,0 0,-6.16 4.7,0 0,-2.02 4.7,0 0,1.53 4.69,0 0,-11.97 4.7,0 0,2.12 4.7,0 0,1.34 4.7,0 0,-2.73 4.69,0 0,1.4 4.7,0 0,-7.72 4.7,0 0,3.32 4.69,0 0,3.71 4.7,0 0,-6.17 4.7,0 0,0.86 4.7,0 0,0.02 4.69,0 0,-9.64 4.7,0 0,-2.32 4.7,0 0,-5.31 4.69,0 0,9.97 4.7,0 0,-16.33 4.7,0 0,14.31 4.69,0 0,3.36 4.7,0 0,-6.68 4.7,0 0,-8.58 4.7,0 0,-3.2 4.69,0 0,10.47 4.7,0 0,-3.28 4.7,0 0,-9.15 4.69,0 0,-23.67 4.7,0 0,23.08 4.7,0 0,-3.86"
           style="fill:none;stroke:#000000;stroke-width:1.0704;stroke-linecap:butt;stroke-linejoin:miter;stroke-miterlimit:10;stroke-dasharray:none;stroke-opacity:1"
           id="path72"
           inkscape:connector-curvature="0" /><path
           d="m 68.44,241.06 0.33,-0.26 0.32,-0.26 0.33,-0.25 0.32,-0.26 0.32,-0.25 0.33,-0.25 0.32,-0.25 0.33,-0.25 0.32,-0.25 0.33,-0.25 0.32,-0.24 0.33,-0.25 0.32,-0.25 0.32,-0.24 0.33,-0.24 0.32,-0.24 0.33,-0.24 0.32,-0.24 0.33,-0.24 0.32,-0.24 0.33,-0.24 0.32,-0.23 0.32,-0.24 0.33,-0.23 0.32,-0.23 0.33,-0.24 0.32,-0.23 0.33,-0.23 0.32,-0.23 0.33,-0.23 0.32,-0.23 0.32,-0.22 0.33,-0.23 0.32,-0.23 0.33,-0.22 0.32,-0.22 0.33,-0.23 0.32,-0.22 0.32,-0.22 0.33,-0.22 0.32,-0.22 0.33,-0.22 0.32,-0.22 0.33,-0.22 0.32,-0.22 0.33,-0.21 0.32,-0.22 0.32,-0.22 0.33,-0.21 0.32,-0.21 0.33,-0.22 0.32,-0.21 0.33,-0.21 0.32,-0.21 0.33,-0.21 0.32,-0.21 0.32,-0.21 0.33,-0.21 0.32,-0.21 0.33,-0.21 0.32,-0.2 0.33,-0.21 0.32,-0.2 0.33,-0.21 0.32,-0.2 0.32,-0.21 0.33,-0.2 0.32,-0.2 0.33,-0.2 0.32,-0.2 0.33,-0.2 0.32,-0.2 0.33,-0.2 0.32,-0.2 0.32,-0.19 0.33,-0.2 0.32,-0.19 0.33,-0.2 0.32,-0.19 0.33,-0.19 0.32,-0.2 0.32,-0.19 0.33,-0.19 0.32,-0.18 0.33,-0.19 0.32,-0.19 0.33,-0.18 0.32,-0.19 0.33,-0.18 0.32,-0.18 0.32,-0.18 0.33,-0.17 0.32,-0.18 0.33,-0.17 0.32,-0.17 0.33,-0.17 0.32,-0.17 0.33,-0.16 0.32,-0.17 0.32,-0.16 0.33,-0.15 0.32,-0.16 0.33,-0.15 0.32,-0.15 0.33,-0.14 0.32,-0.14 0.33,-0.14 0.32,-0.13 0.32,-0.13 0.33,-0.13 0.32,-0.12 0.33,-0.11 0.32,-0.11 0.33,-0.11 0.32,-0.1 0.33,-0.09 0.32,-0.09 0.32,-0.09 0.33,-0.07 0.32,-0.08 0.33,-0.06 0.32,-0.06 0.33,-0.05 0.32,-0.04 0.32,-0.04 0.33,-0.03 0.32,-0.02 0.33,-0.01 0.32,-0.01 0.33,0 0.32,0.01 0.33,0.02 0.32,0.03 0.32,0.03 0.33,0.05 0.32,0.05 0.33,0.06 0.32,0.07 0.33,0.08 0.32,0.09 0.33,0.09 0.32,0.11 0.32,0.11 0.33,0.12 0.32,0.13 0.33,0.14 0.32,0.15 0.33,0.15 0.32,0.16 0.33,0.17 0.32,0.17 0.32,0.19 0.33,0.19 0.32,0.19 0.33,0.2 0.32,0.21 0.33,0.21 0.32,0.22 0.33,0.22 0.32,0.22 0.32,0.23 0.33,0.24 0.32,0.23 0.33,0.24 0.32,0.24 0.33,0.25 0.32,0.24 0.32,0.25 0.33,0.24 0.32,0.25 0.33,0.25 0.32,0.24 0.33,0.25 0.32,0.24 0.33,0.24 0.32,0.24 0.32,0.24 0.33,0.23 0.32,0.23 0.33,0.22 0.32,0.23 0.33,0.21 0.32,0.21 0.33,0.21 0.32,0.2 0.32,0.2 0.33,0.18 0.32,0.19 0.33,0.17 0.32,0.17 0.33,0.16 0.32,0.15 0.33,0.14 0.32,0.13 0.32,0.13 0.33,0.12 0.32,0.1 0.33,0.1 0.32,0.09 0.33,0.07 0.32,0.07 0.33,0.06 0.32,0.04 0.32,0.04 0.33,0.02 0.32,0.01 0.33,0 0.32,-0.01 0.33,-0.03 0.32,-0.03 0.33,-0.05 0.32,-0.06 0.32,-0.08 0.33,-0.08 0.32,-0.1 0.33,-0.12 0.32,-0.12 0.33,-0.14 0.32,-0.15 0.32,-0.17 0.33,-0.18 0.32,-0.19 0.33,-0.21 0.32,-0.22 0.33,-0.23 0.32,-0.25 0.33,-0.26 0.32,-0.28 0.32,-0.29 0.33,-0.3 0.32,-0.32 0.33,-0.33 0.32,-0.35 0.33,-0.36 0.32,-0.37 0.33,-0.38 0.32,-0.4 0.32,-0.42 0.33,-0.43 0.32,-0.44 0.33,-0.45 0.32,-0.46 0.33,-0.48 0.32,-0.49 0.33,-0.51 0.32,-0.51 0.32,-0.53 0.33,-0.54 0.32,-0.55 0.33,-0.56 0.32,-0.57 0.33,-0.58 0.32,-0.59 0.33,-0.6 0.32,-0.61 0.32,-0.61 0.33,-0.63 0.32,-0.63 0.33,-0.63 0.32,-0.64 0.33,-0.65 0.32,-0.65 0.32,-0.66 0.33,-0.66 0.32,-0.66 0.33,-0.66 0.32,-0.66 0.33,-0.66 0.32,-0.66 0.33,-0.66 0.32,-0.65 0.32,-0.65 0.33,-0.65 0.32,-0.64 0.33,-0.63 0.32,-0.63 0.33,-0.62 0.32,-0.61 0.33,-0.6 0.32,-0.59 0.32,-0.57 0.33,-0.57 0.32,-0.55 0.33,-0.54 0.32,-0.52 0.33,-0.51 0.32,-0.5 0.33,-0.48 0.32,-0.47 0.32,-0.45 0.33,-0.43 0.32,-0.42 0.33,-0.41 0.32,-0.39 0.33,-0.37 0.32,-0.36 0.33,-0.34 0.32,-0.33 0.32,-0.31 0.33,-0.31 0.32,-0.28 0.33,-0.28 0.32,-0.26 0.33,-0.26 0.32,-0.24 0.32,-0.23 0.33,-0.22 0.32,-0.22 0.33,-0.2 0.32,-0.2 0.33,-0.19 0.32,-0.18 0.33,-0.18 0.32,-0.18 0.32,-0.16 0.33,-0.17 0.32,-0.16 0.33,-0.16 0.32,-0.15 0.33,-0.15 0.32,-0.15 0.33,-0.15 0.32,-0.15 0.32,-0.14 0.33,-0.14 0.32,-0.14 0.33,-0.15 0.32,-0.14 0.33,-0.14 0.32,-0.14 0.33,-0.14 0.32,-0.13 0.32,-0.14 0.33,-0.14 0.32,-0.14 0.33,-0.14 0.32,-0.14 0.33,-0.13 0.32,-0.14 0.33,-0.14 0.32,-0.14 0.32,-0.13 0.33,-0.14 0.32,-0.14 0.33,-0.14 0.32,-0.13 0.33,-0.14 0.32,-0.14 0.32,-0.13 0.33,-0.14 0.32,-0.14 0.33,-0.13 0.32,-0.14 0.33,-0.14 0.32,-0.13 0.33,-0.14 0.32,-0.14 0.32,-0.13 0.33,-0.14 0.32,-0.13 0.33,-0.14 0.32,-0.14 0.33,-0.13 0.32,-0.14 0.33,-0.13 0.32,-0.14 0.32,-0.13 0.33,-0.14 0.32,-0.13 0.33,-0.14 0.32,-0.13 0.33,-0.14 0.32,-0.13 0.33,-0.14 0.32,-0.13 0.32,-0.14 0.33,-0.13 0.32,-0.14 0.33,-0.13 0.32,-0.14 0.33,-0.13 0.32,-0.13 0.33,-0.14 0.32,-0.13 0.32,-0.14 0.33,-0.13 0.32,-0.13 0.33,-0.14 0.32,-0.13 0.33,-0.13 0.32,-0.14 0.32,-0.13 0.33,-0.14 0.32,-0.13 0.33,-0.13 0.32,-0.13 0.33,-0.14 0.32,-0.13 0.33,-0.13 0.32,-0.14 0.32,-0.13 0.33,-0.13 0.32,-0.14 0.33,-0.13 0.32,-0.13 0.33,-0.13 0.32,-0.14 0.33,-0.13 0.32,-0.13 0.32,-0.13 0.33,-0.13 0.32,-0.14 0.33,-0.13 0.32,-0.13 0.33,-0.13 0.32,-0.13 0.33,-0.14 0.32,-0.13 0.32,-0.13 0.33,-0.13 0.32,-0.13 0.33,-0.13 0.32,-0.14 0.33,-0.13 0.32,-0.13 0.33,-0.13 0.32,-0.13 0.32,-0.13 0.33,-0.13 0.32,-0.13 0.33,-0.13 0.32,-0.13 0.33,-0.14 0.32,-0.13 0.33,-0.13 0.32,-0.13 0.32,-0.13 0.33,-0.13 0.32,-0.13 0.33,-0.13 0.32,-0.13 0.33,-0.13 0.32,-0.13 0.32,-0.13 0.33,-0.13 0.32,-0.13 0.33,-0.13 0.32,-0.13 0.33,-0.13 0.32,-0.13 0.33,-0.13 0.32,-0.13 0.32,-0.13 0.33,-0.13 0.32,-0.13 0.33,-0.13 0.32,-0.13 0.33,-0.13 0.32,-0.13 0.33,-0.13 0.32,-0.13 0.32,-0.12 0.33,-0.13 0.32,-0.13 0.33,-0.13 0.32,-0.13 0.33,-0.13 0.32,-0.13 0.33,-0.13 0.32,-0.13 0.32,-0.12 0.33,-0.13 0.32,-0.13 0.33,-0.13 0.32,-0.13 0.33,-0.13 0.32,-0.13 0.33,-0.12 0.32,-0.13 0.32,-0.13 0.33,-0.13 0.32,-0.13 0.33,-0.13 0.32,-0.12 0.33,-0.13 0.32,-0.13 0.32,-0.13 0.33,-0.13 0.32,-0.12 0.33,-0.13 0.32,-0.13 0.33,-0.13 0.32,-0.13 0.33,-0.12 0.32,-0.13 0.32,-0.13 0.33,-0.13 0.32,-0.12 0.33,-0.13 0.32,-0.13 0.33,-0.13 0.32,-0.12 0.33,-0.13 0.32,-0.13 0.32,-0.12 0.33,-0.13 0.32,-0.13 0.33,-0.13 0.32,-0.12 0.33,-0.13 0.32,-0.13 0.33,-0.12 0.32,-0.13 0.32,-0.13 0.33,-0.12 0.32,-0.13 0.33,-0.13 0.32,-0.12 0.33,-0.13 0.32,-0.13 0.33,-0.12 0.32,-0.13 0.32,-0.13 0.33,-0.12 0.32,-0.13 0.33,-0.13 0.32,-0.12 0.33,-0.13 0.32,-0.13 0.32,-0.12 0.33,-0.13 0.32,-0.12 0.33,-0.13 0.32,-0.13 0.33,-0.12 0.32,-0.13 0.33,-0.12 0.32,-0.13 0.32,-0.13 0.33,-0.12 0.32,-0.13 0.33,-0.12 0.32,-0.13 0.33,-0.12 0.32,-0.13 0.33,-0.13 0.32,-0.12 0.32,-0.13 0.33,-0.12 0.32,-0.13 0.33,-0.12 0.32,-0.13 0.33,-0.12 0.32,-0.13 0.33,-0.12 0.32,-0.13 0.32,-0.13 0.33,-0.12 0.32,-0.13 0.33,-0.12 0.32,-0.13 0.33,-0.12 0.32,-0.13 0.33,-0.12 0.32,-0.13 0.32,-0.12 0.33,-0.13 0.32,-0.12 0.33,-0.13 0.32,-0.12 0.33,-0.13 0.32,-0.12 0.32,-0.12 0.33,-0.13 0.32,-0.12 0.33,-0.13 0.32,-0.12 0.33,-0.13 0.32,-0.12 0.33,-0.13 0.32,-0.12 0.32,-0.13 0.33,-0.12 0.32,-0.12 0.33,-0.13 0.32,-0.12 0.33,-0.13 0.32,-0.12 0.33,-0.13 0.32,-0.12 0.32,-0.12 0.33,-0.13 0.32,-0.12 0.33,-0.13 0.32,-0.12 0.33,-0.13 0.32,-0.12 0.33,-0.12 0.32,-0.13 0.32,-0.12 0.33,-0.12 0.32,-0.13 0.33,-0.12 0.32,-0.13 0.33,-0.12 0.32,-0.12 0.33,-0.13 0.32,-0.12 0.32,-0.13 0.33,-0.12 0.32,-0.12 0.33,-0.13 0.32,-0.12 0.33,-0.12 0.32,-0.13 0.32,-0.12 0.33,-0.12 0.32,-0.13 0.33,-0.12 0.32,-0.12 0.33,-0.13 0.32,-0.12 0.33,-0.12 0.32,-0.13 0.32,-0.12 0.33,-0.12 0.32,-0.13 0.33,-0.12 0.32,-0.12 0.33,-0.13 0.32,-0.12 0.33,-0.12 0.32,-0.13 0.32,-0.12 0.33,-0.12 0.32,-0.12 0.33,-0.13 0.32,-0.12 0.33,-0.12 0.32,-0.13 0.33,-0.12 0.32,-0.12 0.32,-0.13 0.33,-0.12 0.32,-0.12 0.33,-0.12 0.32,-0.13 0.33,-0.12 0.32,-0.12 0.33,-0.12 0.32,-0.13 0.32,-0.12 0.33,-0.12 0.32,-0.12 0.33,-0.13 0.32,-0.12 0.33,-0.12 0.32,-0.12 0.32,-0.13 0.33,-0.12 0.32,-0.12 0.33,-0.12 0.32,-0.13 0.33,-0.12 0.32,-0.12 0.33,-0.12 0.32,-0.13 0.32,-0.12 0.33,-0.12 0.32,-0.12 0.33,-0.13 0.32,-0.12 0.33,-0.12 0.32,-0.12 0.33,-0.12 0.32,-0.13 0.32,-0.12 0.33,-0.12 0.32,-0.12 0.33,-0.12 0.32,-0.13 0.33,-0.12 0.32,-0.12 0.33,-0.12 0.32,-0.12 0.32,-0.13 0.33,-0.12 0.32,-0.12 0.33,-0.12 0.32,-0.12 0.33,-0.13 0.32,-0.12 0.33,-0.12 0.32,-0.12 0.32,-0.12 0.33,-0.12 0.32,-0.13 0.33,-0.12 0.32,-0.12 0.33,-0.12 0.32,-0.12 0.33,-0.12 0.32,-0.13 0.32,-0.12 0.33,-0.12 0.32,-0.12 0.33,-0.12 0.32,-0.12 0.33,-0.13 0.32,-0.12 0.32,-0.12 0.33,-0.12 0.32,-0.12 0.33,-0.12 0.32,-0.12 0.33,-0.13 0.32,-0.12 0.33,-0.12 0.32,-0.12 0.32,-0.12 0.33,-0.12 0.32,-0.12 0.33,-0.12 0.32,-0.13 0.33,-0.12 0.32,-0.12 0.33,-0.12 0.32,-0.12 0.32,-0.12 0.33,-0.12 0.32,-0.12 0.33,-0.12 0.32,-0.13 0.33,-0.12 0.32,-0.12 0.33,-0.12 0.32,-0.12 0.32,-0.12 0.33,-0.12 0.32,-0.12 0.33,-0.12 0.32,-0.12 0.33,-0.13 0.32,-0.12 0.33,-0.12 0.32,-0.12 0.32,-0.12 0.33,-0.12 0.32,-0.12 0.33,-0.12 0.32,-0.12 0.33,-0.12 0.32,-0.12 0.32,-0.13 0.33,-0.12 0.32,-0.12 0.33,-0.12 0.32,-0.12 0.33,-0.12 0.32,-0.12 0.33,-0.12 0.32,-0.12 0.32,-0.12 0.33,-0.12 0.32,-0.12 0.33,-0.12 0.32,-0.12 0.33,-0.12 0.32,-0.12 0.33,-0.13 0.32,-0.12 0.32,-0.12 0.33,-0.12 0.32,-0.12 0.33,-0.12 0.32,-0.12 0.33,-0.12 0.32,-0.12 0.33,-0.12 0.32,-0.12 0.32,-0.12 0.33,-0.12 0.32,-0.12 0.33,-0.12 0.32,-0.12 0.33,-0.12 0.32,-0.12 0.33,-0.12 0.32,-0.12 0.32,-0.12 0.33,-0.12 0.32,-0.12 0.33,-0.12 0.32,-0.12 0.33,-0.12 0.32,-0.12 0.32,-0.12 0.33,-0.13 0.32,-0.12 0.33,-0.12 0.32,-0.12 0.33,-0.12 0.32,-0.12 0.33,-0.12 0.32,-0.12 0.32,-0.12 0.33,-0.12 0.32,-0.12 0.33,-0.12 0.32,-0.12 0.33,-0.12 0.32,-0.12 0.33,-0.12 0.32,-0.12 0.32,-0.12 0.33,-0.12 0.32,-0.12 0.33,-0.12 0.32,-0.12 0.33,-0.12 0.32,-0.12 0.33,-0.12 0.32,-0.12 0.32,-0.12 0.33,-0.12 0.32,-0.12 0.33,-0.11 0.32,-0.12 0.33,-0.12 0.32,-0.12 0.33,-0.12 0.32,-0.12 0.32,-0.12 0.33,-0.12 0.32,-0.12 0.33,-0.12 0.32,-0.12 0.33,-0.12 0.32,-0.12 0.32,-0.12 0.33,-0.12 0.32,-0.12 0.33,-0.12 0.32,-0.12 0.33,-0.12 0.32,-0.12 0.33,-0.12 0.32,-0.12 0.32,-0.12 0.33,-0.12 0.32,-0.12 0.33,-0.12 0.32,-0.12 0.33,-0.12 0.32,-0.12 0.33,-0.12 0.32,-0.12 0.32,-0.11 0.33,-0.12 0.32,-0.12 0.33,-0.12 0.32,-0.12 0.33,-0.12 0.32,-0.12 0.33,-0.12 0.32,-0.12 0.32,-0.12 0.33,-0.12 0.32,-0.12 0.33,-0.12 0.32,-0.12 0.33,-0.12 0.32,-0.12 0.33,-0.12 0.32,-0.11 0.32,-0.12 0.33,-0.12 0.32,-0.12 0.33,-0.12 0.32,-0.12 0.33,-0.12 0.32,-0.12 0.32,-0.12 0.33,-0.12 0.32,-0.12 0.33,-0.12 0.32,-0.12 0.33,-0.12 0.32,-0.11 0.33,-0.12 0.32,-0.12 0.32,-0.12 0.33,-0.12 0.32,-0.12 0.33,-0.12 0.32,-0.12 0.33,-0.12 0.32,-0.12 0.33,-0.12 0.32,-0.12 0.32,-0.12 0.33,-0.11 0.32,-0.12 0.33,-0.12 0.32,-0.12 0.33,-0.12 0.32,-0.12 0.33,-0.12 0.32,-0.12 0.32,-0.12 0.33,-0.12 0.32,-0.11 0.33,-0.12 0.32,-0.12 0.33,-0.12 0.32,-0.12 0.33,-0.12 0.32,-0.12 0.32,-0.12 0.33,-0.12 0.32,-0.12 0.33,-0.11 0.32,-0.12 0.33,-0.12 0.32,-0.12 0.33,-0.12 0.32,-0.12 0.32,-0.12 0.33,-0.12 0.32,-0.12 0.33,-0.12 0.32,-0.11 0.33,-0.12 0.32,-0.12 0.32,-0.12 0.33,-0.12 0.32,-0.12 0.33,-0.12 0.32,-0.12 0.33,-0.12 0.32,-0.11 0.33,-0.12 0.32,-0.12 0.32,-0.12 0.33,-0.12 0.32,-0.12 0.33,-0.12 0.32,-0.12 0.33,-0.11 0.32,-0.12 0.33,-0.12 0.32,-0.12 0.32,-0.12 0.33,-0.12 0.32,-0.12 0.33,-0.12 0.32,-0.11 0.33,-0.12 0.32,-0.12 0.33,-0.12 0.32,-0.12 0.32,-0.12 0.33,-0.12 0.32,-0.12 0.33,-0.11 0.32,-0.12 0.33,-0.12 0.32,-0.12 0.33,-0.12 0.32,-0.12 0.32,-0.12 0.33,-0.11 0.32,-0.12 0.33,-0.12 0.32,-0.12 0.33,-0.12 0.32,-0.12 0.32,-0.12 0.33,-0.11 0.32,-0.12 0.33,-0.12 0.32,-0.12 0.33,-0.12 0.32,-0.12 0.33,-0.12 0.32,-0.11 0.32,-0.12 0.33,-0.12 0.32,-0.12 0.33,-0.12 0.32,-0.12 0.33,-0.12 0.32,-0.11 0.33,-0.12 0.32,-0.12 0.32,-0.12 0.33,-0.12 0.32,-0.12 0.33,-0.11"
           style="fill:none;stroke:#d23737;stroke-width:2.13000011;stroke-linecap:butt;stroke-linejoin:round;stroke-miterlimit:1;stroke-dasharray:none;stroke-opacity:1"
           id="path74"
           inkscape:connector-curvature="0" /><text
           transform="scale(1,-1)"
           style="font-style:normal;font-variant:normal;font-weight:normal;font-stretch:normal;font-size:11px;font-family:'Roboto Condensed';-inkscape-font-specification:'Roboto Condensed, ';writing-mode:lr-tb;fill:#000000;fill-opacity:1;fill-rule:nonzero;stroke:none"
           id="text76"
           x="233.45206"
           y="-67.184441"><tspan
             x="233.45206"
             y="-67.184441"
             sodipodi:role="line"
             id="tspan78">α<tspan
   style="font-size:51.99999809%;baseline-shift:sub"
   id="tspan4339">1  </tspan>=  6.53e−04</tspan></text>
<text
           transform="scale(1,-1)"
           style="font-style:normal;font-variant:normal;font-weight:normal;font-stretch:normal;font-size:11px;font-family:'Roboto Condensed';-inkscape-font-specification:'Roboto Condensed, ';writing-mode:lr-tb;fill:#000000;fill-opacity:1;fill-rule:nonzero;stroke:none"
           id="text80"
           x="233.32005"
           y="-57.642262"><tspan
             x="233.32005"
             y="-57.642262"
             sodipodi:role="line"
             id="tspan82">λ  =−5.52e−02</tspan></text>
<text
           transform="scale(1,-1)"
           style="font-style:normal;font-variant:normal;font-weight:normal;font-stretch:normal;font-size:11px;font-family:'Roboto Condensed';-inkscape-font-specification:'Roboto Condensed, ';writing-mode:lr-tb;fill:#000000;fill-opacity:1;fill-rule:nonzero;stroke:none"
           id="text84"
           x="233.59505"
           y="-48.320118"><tspan
             x="233.59505"
             y="-48.320118"
             sodipodi:role="line"
             id="tspan86">γ  =  1.02e+02</tspan></text>
<text
           transform="scale(1,-1)"
           style="font-style:normal;font-variant:normal;font-weight:normal;font-stretch:normal;font-size:11px;font-family:'Roboto Condensed';-inkscape-font-specification:'Roboto Condensed, ';writing-mode:lr-tb;fill:#000000;fill-opacity:1;fill-rule:nonzero;stroke:none"
           id="text88"
           x="300.24594"
           y="-68.825371"><tspan
             x="300.24594"
             y="-68.825371"
             sodipodi:role="line"
             id="tspan90">α<tspan
   style="font-size:51.99999809%;baseline-shift:sub"
   id="tspan4341">2 </tspan>=1.68e−03</tspan></text>
<text
           transform="scale(1,-1)"
           style="font-style:normal;font-variant:normal;font-weight:normal;font-stretch:normal;font-size:11px;font-family:'Roboto Condensed';-inkscape-font-specification:'Roboto Condensed, ';writing-mode:lr-tb;fill:#000000;fill-opacity:1;fill-rule:nonzero;stroke:none"
           id="text92"
           x="301.86392"
           y="-58.992714"><tspan
             x="301.86392"
             y="-58.992714"
             sodipodi:role="line"
             id="tspan94">s<tspan
   style="font-size:51.99999809%;baseline-shift:sub"
   id="tspan4343">1</tspan>=1.32e+01</tspan></text>
<text
           transform="scale(1,-1)"
           style="font-style:normal;font-variant:normal;font-weight:normal;font-stretch:normal;font-size:11px;font-family:'Roboto Condensed';-inkscape-font-specification:'Roboto Condensed, ';writing-mode:lr-tb;fill:#000000;fill-opacity:1;fill-rule:nonzero;stroke:none"
           id="text96"
           x="301.86392"
           y="-49.564537"><tspan
             x="301.86392"
             y="-49.564537"
             sodipodi:role="line"
             id="tspan98">s<tspan
   style="font-size:51.99999809%;baseline-shift:sub"
   id="tspan4345">2</tspan>=8.82e+00</tspan></text>
</g></g><g
       id="g100" /><g
       id="g102" /><g
       id="g104" /><g
       id="g106" /><g
       id="g108" /><g
       id="g128" /><g
       id="g130" /><g
       id="g132" /><g
       id="g134" /><g
       id="g136" /><g
       id="g138" /><g
       id="g140" /><g
       id="g142" /><g
       id="g144" /><g
       id="g146" /><g
       id="g148" /><g
       id="g150"><text
         transform="matrix(1,0,0,-1,62.88,21.77)"
         style="font-variant:normal;font-weight:normal;font-size:10px;font-family:Helvetica;-inkscape-font-specification:Helvetica;writing-mode:lr-tb;fill:#000000;fill-opacity:1;fill-rule:nonzero;stroke:none"
         id="text152"><tspan
           x="0"
           y="0"
           sodipodi:role="line"
           id="tspan154">23</tspan></text>
<text
         transform="matrix(1,0,0,-1,95.76,21.77)"
         style="font-variant:normal;font-weight:normal;font-size:10px;font-family:Helvetica;-inkscape-font-specification:Helvetica;writing-mode:lr-tb;fill:#000000;fill-opacity:1;fill-rule:nonzero;stroke:none"
         id="text156"><tspan
           x="0"
           y="0"
           sodipodi:role="line"
           id="tspan158">30</tspan></text>
<text
         transform="matrix(1,0,0,-1,142.73,21.77)"
         style="font-variant:normal;font-weight:normal;font-size:10px;font-family:Helvetica;-inkscape-font-specification:Helvetica;writing-mode:lr-tb;fill:#000000;fill-opacity:1;fill-rule:nonzero;stroke:none"
         id="text160"><tspan
           x="0"
           y="0"
           sodipodi:role="line"
           id="tspan162">40</tspan></text>
<text
         transform="matrix(1,0,0,-1,189.7,21.77)"
         style="font-variant:normal;font-weight:normal;font-size:10px;font-family:Helvetica;-inkscape-font-specification:Helvetica;writing-mode:lr-tb;fill:#000000;fill-opacity:1;fill-rule:nonzero;stroke:none"
         id="text164"><tspan
           x="0"
           y="0"
           sodipodi:role="line"
           id="tspan166">50</tspan></text>
<text
         transform="matrix(1,0,0,-1,236.67,21.77)"
         style="font-variant:normal;font-weight:normal;font-size:10px;font-family:Helvetica;-inkscape-font-specification:Helvetica;writing-mode:lr-tb;fill:#000000;fill-opacity:1;fill-rule:nonzero;stroke:none"
         id="text168"><tspan
           x="0"
           y="0"
           sodipodi:role="line"
           id="tspan170">60</tspan></text>
<text
         transform="matrix(1,0,0,-1,283.64,21.77)"
         style="font-variant:normal;font-weight:normal;font-size:10px;font-family:Helvetica;-inkscape-font-specification:Helvetica;writing-mode:lr-tb;fill:#000000;fill-opacity:1;fill-rule:nonzero;stroke:none"
         id="text172"><tspan
           x="0"
           y="0"
           sodipodi:role="line"
           id="tspan174">70</tspan></text>
<text
         transform="matrix(1,0,0,-1,330.61,21.77)"
         style="font-variant:normal;font-weight:normal;font-size:10px;font-family:Helvetica;-inkscape-font-specification:Helvetica;writing-mode:lr-tb;fill:#000000;fill-opacity:1;fill-rule:nonzero;stroke:none"
         id="text176"><tspan
           x="0"
           y="0"
           sodipodi:role="line"
           id="tspan178">80</tspan></text>
<text
         transform="matrix(1,0,0,-1,377.58,21.77)"
         style="font-variant:normal;font-weight:normal;font-size:10px;font-family:Helvetica;-inkscape-font-specification:Helvetica;writing-mode:lr-tb;fill:#000000;fill-opacity:1;fill-rule:nonzero;stroke:none"
         id="text180"><tspan
           x="0"
           y="0"
           sodipodi:role="line"
           id="tspan182">90</tspan></text>
</g><g
       id="g184" /><g
       id="g186" /><g
       id="g188" /><g
       id="g190"><text
         transform="matrix(1,0,0,-1,163.3,8.37)"
         style="font-variant:normal;font-weight:normal;font-size:12px;font-family:Helvetica;-inkscape-font-specification:Helvetica;writing-mode:lr-tb;fill:#000000;fill-opacity:1;fill-rule:nonzero;stroke:none"
         id="text192"><tspan
           x="0"
           y="0"
           sodipodi:role="line"
           id="tspan194">Weeks of gestational age</tspan></text>
</g><g
       id="g196" /><g
       id="g198" /><g
       id="g204" /><g
       id="g206" /><g
       id="g208" /><g
       id="g210" /><text
       xml:space="preserve"
       style="font-style:normal;font-variant:normal;font-weight:normal;font-stretch:normal;font-size:10px;line-height:100%;font-family:Roboto;-inkscape-font-specification:Roboto;text-align:center;letter-spacing:0px;word-spacing:0px;text-anchor:middle;fill:#000000;fill-opacity:1;stroke:none;stroke-width:1px;stroke-linecap:butt;stroke-linejoin:miter;stroke-opacity:1"
       x="68.315491"
       y="-280.62589"
       id="text7319"
       sodipodi:linespacing="100%"
       transform="scale(1,-1)"><tspan
         sodipodi:role="line"
         x="68.315491"
         y="-280.62589"
         id="tspan7323">Deaths per 10,000</tspan><tspan
         sodipodi:role="line"
         x="68.315491"
         y="-270.62589"
         id="tspan7327">person-weeks</tspan></text>
<text
       y="-38.395313"
       x="37.404655"
       id="text12520"
       style="font-variant:normal;font-weight:normal;font-size:10px;font-family:Roboto;-inkscape-font-specification:Roboto;writing-mode:lr-tb;fill:#000000;fill-opacity:1;fill-rule:nonzero;stroke:none"
       transform="scale(1,-1)"><tspan
         id="tspan12522"
         sodipodi:role="line"
         x="37.404655"
         y="-38.395313">.01</tspan></text>
<text
       id="text12524"
       style="font-variant:normal;font-weight:normal;font-size:10px;font-family:Roboto;-inkscape-font-specification:Roboto;writing-mode:lr-tb;fill:#000000;fill-opacity:1;fill-rule:nonzero;stroke:none"
       x="43.029648"
       y="-109.16756"
       transform="scale(1,-1)"><tspan
         id="tspan12526"
         sodipodi:role="line"
         x="43.029648"
         y="-109.16756">.1</tspan></text>
<text
       id="text12528"
       style="font-variant:normal;font-weight:normal;font-size:10px;font-family:Roboto;-inkscape-font-specification:Roboto;writing-mode:lr-tb;fill:#000000;fill-opacity:1;fill-rule:nonzero;stroke:none"
       x="45.666363"
       y="-179.8226"
       transform="scale(1,-1)"><tspan
         id="tspan12530"
         sodipodi:role="line"
         x="45.666363"
         y="-179.8226">1</tspan></text>
<text
       id="text12532"
       style="font-variant:normal;font-weight:normal;font-size:10px;font-family:Roboto;-inkscape-font-specification:Roboto;writing-mode:lr-tb;fill:#000000;fill-opacity:1;fill-rule:nonzero;stroke:none"
       x="38.552113"
       y="-250.57532"
       transform="scale(1,-1)"><tspan
         id="tspan12534"
         sodipodi:role="line"
         x="38.552113"
         y="-250.57532">10</tspan></text>
</g></svg>