<?xml version="1.0" encoding="UTF-8" standalone="no"?>
<!-- Created with Inkscape (http://www.inkscape.org/) -->

<svg
   xmlns:dc="http://purl.org/dc/elements/1.1/"
   xmlns:cc="http://creativecommons.org/ns#"
   xmlns:rdf="http://www.w3.org/1999/02/22-rdf-syntax-ns#"
   xmlns:svg="http://www.w3.org/2000/svg"
   xmlns="http://www.w3.org/2000/svg"
   xmlns:sodipodi="http://sodipodi.sourceforge.net/DTD/sodipodi-0.dtd"
   xmlns:inkscape="http://www.inkscape.org/namespaces/inkscape"
   id="svg2"
   version="1.1"
   inkscape:version="0.91 r13725"
   xml:space="preserve"
   width="584.28339"
   height="472.66254"
   viewBox="0 0 584.28339 472.66253"
   sodipodi:docname="ilt_doc2009_loglog.svg"
   inkscape:export-filename="/home/jon/lucile/share/Dropbox/sci/2015-10-fimort-agepat/doc/2016-09-01-epc2016-the_gestational_age_pattern_of_human_mortality/fig/plot_ilt_doc2009.png"
   inkscape:export-xdpi="331.31299"
   inkscape:export-ydpi="331.31299"><sodipodi:namedview
     pagecolor="#ffffff"
     bordercolor="#666666"
     borderopacity="1"
     objecttolerance="10"
     gridtolerance="10"
     guidetolerance="10"
     inkscape:pageopacity="0"
     inkscape:pageshadow="2"
     inkscape:window-width="1920"
     inkscape:window-height="1056"
     id="namedview4"
     showgrid="false"
     inkscape:zoom="1.0488889"
     inkscape:cx="190.88201"
     inkscape:cy="158.26272"
     inkscape:window-x="0"
     inkscape:window-y="24"
     inkscape:window-maximized="1"
     inkscape:current-layer="g10"
     fit-margin-top="0"
     fit-margin-left="0"
     fit-margin-right="0"
     fit-margin-bottom="0" /><metadata
     id="metadata8"><rdf:RDF><cc:Work
         rdf:about=""><dc:format>image/svg+xml</dc:format><dc:type
           rdf:resource="http://purl.org/dc/dcmitype/StillImage" /><dc:title></dc:title></cc:Work></rdf:RDF></metadata><defs
     id="defs6"><clipPath
       id="clipPath36"
       clipPathUnits="userSpaceOnUse"><path
         inkscape:connector-curvature="0"
         id="path38"
         d="m 22.74,0 458.51,0 0,360 -458.51,0 0,-360 z" /></clipPath></defs><g
     transform="matrix(1.25,0,0,-1.25,-10.654974,472.66254)"
     inkscape:label="plot_ilt_doc2009"
     inkscape:groupmode="layer"
     id="g10"><g
       id="g12" /><g
       id="g14" /><g
       id="g16" /><g
       id="g18" /><g
       id="g20" /><g
       id="g22" /><g
       id="g24" /><g
       id="g26" /><g
       id="g28" /><g
       id="g30" /><g
       id="g32"><g
         clip-path="url(#clipPath36)"
         id="g34" /></g><g
       id="g40" /><g
       id="g42" /><g
       id="g44" /><g
       id="g46"><g
         clip-path="none"
         id="g48"><path
           inkscape:connector-curvature="0"
           id="path54"
           style="fill:none;stroke:#e5e5e5;stroke-width:1.07000005;stroke-linecap:butt;stroke-linejoin:round;stroke-miterlimit:10;stroke-dasharray:none;stroke-opacity:1"
           d="m 55.92,46.01 403.36,0" /><path
           inkscape:connector-curvature="0"
           id="path56"
           style="fill:none;stroke:#e5e5e5;stroke-width:1.07000005;stroke-linecap:butt;stroke-linejoin:round;stroke-miterlimit:10;stroke-dasharray:none;stroke-opacity:1"
           d="m 55.92,119.34 403.36,0" /><path
           inkscape:connector-curvature="0"
           id="path58"
           style="fill:none;stroke:#e5e5e5;stroke-width:1.07000005;stroke-linecap:butt;stroke-linejoin:round;stroke-miterlimit:10;stroke-dasharray:none;stroke-opacity:1"
           d="m 55.92,192.68 403.36,0" /><path
           inkscape:connector-curvature="0"
           id="path60"
           style="fill:none;stroke:#e5e5e5;stroke-width:1.07000005;stroke-linecap:butt;stroke-linejoin:round;stroke-miterlimit:10;stroke-dasharray:none;stroke-opacity:1"
           d="m 55.92,266.02 403.36,0" /><path
           inkscape:connector-curvature="0"
           id="path62"
           style="fill:none;stroke:#e5e5e5;stroke-width:1.07000005;stroke-linecap:butt;stroke-linejoin:round;stroke-miterlimit:10;stroke-dasharray:none;stroke-opacity:1"
           d="m 55.92,339.35 403.36,0" /><path
           inkscape:connector-curvature="0"
           id="path64"
           style="fill:none;stroke:#e5e5e5;stroke-width:1.07000005;stroke-linecap:butt;stroke-linejoin:round;stroke-miterlimit:10;stroke-dasharray:none;stroke-opacity:1"
           d="m 90.26,31.34 0,322.68" /><path
           inkscape:connector-curvature="0"
           id="path66"
           style="fill:none;stroke:#e5e5e5;stroke-width:1.07000005;stroke-linecap:butt;stroke-linejoin:round;stroke-miterlimit:10;stroke-dasharray:none;stroke-opacity:1"
           d="m 211.25,31.34 0,322.68" /><path
           inkscape:connector-curvature="0"
           id="path68"
           style="fill:none;stroke:#e5e5e5;stroke-width:1.07000005;stroke-linecap:butt;stroke-linejoin:round;stroke-miterlimit:10;stroke-dasharray:none;stroke-opacity:1"
           d="m 301.74,31.34 0,322.68" /><path
           inkscape:connector-curvature="0"
           id="path70"
           style="fill:none;stroke:#e5e5e5;stroke-width:1.07000005;stroke-linecap:butt;stroke-linejoin:round;stroke-miterlimit:10;stroke-dasharray:none;stroke-opacity:1"
           d="m 344.84,31.34 0,322.68" /><path
           inkscape:connector-curvature="0"
           id="path72"
           style="fill:none;stroke:#e5e5e5;stroke-width:1.07000005;stroke-linecap:butt;stroke-linejoin:round;stroke-miterlimit:10;stroke-dasharray:none;stroke-opacity:1"
           d="m 370.06,31.34 0,322.68" /><path
           inkscape:connector-curvature="0"
           id="path74"
           style="fill:none;stroke:#e5e5e5;stroke-width:1.07000005;stroke-linecap:butt;stroke-linejoin:round;stroke-miterlimit:10;stroke-dasharray:none;stroke-opacity:1"
           d="m 387.94,31.34 0,322.68" /><path
           inkscape:connector-curvature="0"
           id="path76"
           style="fill:none;stroke:#e5e5e5;stroke-width:1.07000005;stroke-linecap:butt;stroke-linejoin:round;stroke-miterlimit:10;stroke-dasharray:none;stroke-opacity:1"
           d="m 401.82,31.34 0,322.68" /><path
           inkscape:connector-curvature="0"
           id="path78"
           style="fill:none;stroke:#e5e5e5;stroke-width:1.07000005;stroke-linecap:butt;stroke-linejoin:round;stroke-miterlimit:10;stroke-dasharray:none;stroke-opacity:1"
           d="m 413.16,31.34 0,322.68" /><path
           inkscape:connector-curvature="0"
           id="path80"
           style="fill:none;stroke:#e5e5e5;stroke-width:1.07000005;stroke-linecap:butt;stroke-linejoin:round;stroke-miterlimit:10;stroke-dasharray:none;stroke-opacity:1"
           d="m 422.74,31.34 0,322.68" /><path
           inkscape:connector-curvature="0"
           id="path82"
           style="fill:none;stroke:#e5e5e5;stroke-width:1.07000005;stroke-linecap:butt;stroke-linejoin:round;stroke-miterlimit:10;stroke-dasharray:none;stroke-opacity:1"
           d="m 431.04,31.34 0,322.68" /><path
           inkscape:connector-curvature="0"
           id="path84"
           style="fill:none;stroke:#e5e5e5;stroke-width:1.07000005;stroke-linecap:butt;stroke-linejoin:round;stroke-miterlimit:10;stroke-dasharray:none;stroke-opacity:1"
           d="m 438.37,31.34 0,322.68" /><path
           inkscape:connector-curvature="0"
           id="path86"
           style="fill:none;stroke:#e5e5e5;stroke-width:1.07000005;stroke-linecap:butt;stroke-linejoin:round;stroke-miterlimit:10;stroke-dasharray:none;stroke-opacity:1"
           d="m 444.92,31.34 0,322.68" /><path
           inkscape:connector-curvature="0"
           id="path88"
           style="fill:none;stroke:#e5e5e5;stroke-width:1.07000005;stroke-linecap:butt;stroke-linejoin:round;stroke-miterlimit:10;stroke-dasharray:none;stroke-opacity:1"
           d="m 450.85,31.34 0,322.68" /><path
           inkscape:connector-curvature="0"
           id="path90"
           style="fill:none;stroke:#e5e5e5;stroke-width:1.07000005;stroke-linecap:butt;stroke-linejoin:round;stroke-miterlimit:10;stroke-dasharray:none;stroke-opacity:1"
           d="m 456.26,31.34 0,322.68" /><path
           inkscape:connector-curvature="0"
           id="path92"
           style="fill:#bdbdbd;fill-opacity:1;fill-rule:nonzero;stroke:none"
           d="m 90.26,288.88 43.1,0 0,-3.98 25.21,0 0,-13.45 17.89,0 0,-5.95 13.87,0 0,-5.69 11.34,0 0,-1.69 9.58,0 0,-3.3 8.31,0 0,-6.25 7.32,0 0,2.82 6.55,0 0,1.57 5.93,0 0,-3.23 5.41,0 0,-4.09 4.98,0 0,-4.53 4.6,0 0,-1.54 4.29,0 0,-0.6 4.02,0 0,5.35 3.77,0 0,-14.17 3.55,0 0,2.83 3.36,0 0,1.2 3.19,0 0,0 3.04,0 0,-2.2 2.89,0 0,-0.25 2.76,0 0,0.51 2.65,0 0,-2.62 2.54,0 0,-1.4 2.44,0 0,8.46 2.34,0 0,-11.48 2.26,0 0,4.69 2.19,0 0,-1.67 2.1,0 0,-0.29 2.04,0 0,-4.02 1.98,0 0,0.33 1.91,0 0,-3.09 1.86,0 0,-3.05 1.8,0 0,3.05 1.75,0 0,-1.49 1.7,0 0,0.38 1.66,0 0,-1.94 1.62,0 0,0 1.57,0 0,-3.84 1.54,0 0,0.45 1.5,0 0,7.16 1.46,0 0,-1.08 1.43,0 0,1.08 1.4,0 0,-2.59 1.36,0 0,-4.57 1.34,0 0,-0.91 1.31,0 0,-1.9 1.28,0 0,1.91 1.26,0 0,-0.94 1.23,0 0,2.73 1.21,0 0,2.91 1.18,0 0,-7.11 1.16,0 0,3.32 1.14,0 0,-3.82 1.12,0 0,2.91 1.1,0 0,5.09 1.09,0 0,-4.63 1.06,0 0,-7.76 1.04,0 0,6.83 1.03,0 0,-1.94 1.01,0 0,-4.3 1,0 0,2.76 0.98,0 0,-3.94 0.96,0 0,7.43 0.95,0 0,-9.29 0.94,0 0,3.04 0.92,0 0,2.23 0.9,0 0,4.48 0.9,0 0,-2.4 0.88,0 0,-6.72 0.87,0 0,6.72 0.86,0 0,-2.08 0.84,0 0,-8.66 0.84,0 0,7.01 0.82,0 0,-7.74 0.82,0 0,8.3 0.8,0 0,-2.92 0.79,0 0,-1.91 0.78,0 0,3.7 0.77,0 0,-6.44 0.77,0 0,6.44 0.75,0 0,-0.59 0.75,0 0,-2.46 0.73,0 0,2.46 0.73,0 0,4.39 0.72,0 0,-4.39 0.71,0 0,1.73 0.7,0 0,0 0.7,0 0,-10.6 0.68,0 0,0 0.68,0 0,11.69 0.68,0 0,-5.92 0.66,0 0,5.38 0.66,0 0,-3.48 0.65,0 0,-1.25 0.64,0 0,1.86 0.64,0 0,-11.66 0.63,0 0,11.05 0.63,0 0,2.37 0.62,0 0,-13.41 0.61,0 0,4.16 0.61,0 0,-5.07 0.6,0 0,12.56 0.59,0 0,3.95 0.59,0 0,-15.6 0.58,0 0,3.37 0.58,0 0,-2.49 0.58,0 0,2.49 0.56,0 0,-2.49 0.57,0 0,0 0.55,0 0,4.79 0.56,0 0,-5.67 0.55,0 0,-3.81 0.54,0 0,7.18 0.54,0 0,5.78 0.53,0 0,-10.99 0.53,0 0,-0.97 0.52,0 0,4.55 0.52,0 0,2.42 0.52,0 0,-16.15 0.51,0 0,13.73 0.51,0 0,0.83 0.5,0 0,-0.83 0.5,0 0,-2.65 0.5,0 0,-2.9 0.49,0 0,5.55 0.49,0 0,-9.94 0.48,0 0,2.28 0.48,0 0,1.07 0.48,0 0,5.73 0.47,0 0,-3.69 0.47,0 0,-2.03 0.47,0 0,10.52 0.46,0 0,-4.79 0.46,0 0,-7.92 0.45,0 0,3.22 0.45,0 0,7.97 0.45,0 0,-11.19 0.45,0 0,0 0.44,0 0,-9.32 0.44,0 0,11.51 0.44,0 0,-3.35 0.43,0 0,4.38 0.43,0 0,6.38 0.43,0 0,-14.55 0.42,0 0,2.58 0.42,0 0,-5.42 0.42,0 0,-3.14 0.42,0 0,7.3 0.41,0 0,-4.16 0.41,0 0,4.16 0.41,0 0,-10.84 0.41,0 0,12.1 0.4,0 0,10.29 0.4,0 0,-10.29 0.4,0 0,5.6 0.39,0 0,-8.18 0.39,0 0,6.07 0.39,0 0,2.11 0.39,0 0,-19.65 0.39,0 0,22.55 0.38,0 0,-12.46 0.38,0 0,0 0.38,0 0,7.45 0.37,0 0,-13.76 0.38,0 0,6.31 0.37,0 0,5.17 0.37,0 0,5.39 0.36,0 0,-7.86 0.37,0 0,0 0.36,0 0,1.26 0.36,0 0,-10.27 0.36,0 0,1.71 0.35,0 0,5.98 0.36,0 0,-18.29 0.35,0 0,8.77 0.35,0 0,10.84 0.35,0 0,-10.84 0.35,0 0,12.1 0.34,0 0,-5.41 0.34,0 0,-6.69 0.34,0 0,6.69 0.34,0 0,-4.86 0.34,0 0,-8.13 0.34,0 0,14.44 0.33,0 0,-8.14 0.33,0 0,10.84 0.33,0 0,3.63 0.33,0 0,-9.31 0.32,0 0,2.98 0.33,0 0,-4.6 0.32,0 0,4.6 0.32,0 0,-8.13 0.32,0 0,5.15 0.32,0 0,-3.33 0.32,0 0,-10.59 0.31,0 0,22.08 0.32,0 0,-17.36 0.31,0 0,4.05 0.31,0 0,-17.84 0.31,0 0,25.97 0.3,0 0,-6.31 0.31,0 0,3.33 0.3,0 0,-3.33 0.31,0 0,0 0.3,0 0,1.72 0.3,0 0,-12.31 0.29,0 0,10.59 0.3,0 0,-3.77 0.3,0 0,15.26 0.29,0 0,-15.26 0.29,0 0,-9.53 0.29,0 0,18.16 0.29,0 0,-10.73 0.29,0 0,2.1 0.29,0 0,-2.1 0.29,0 0,-2.26 0.28,0 0,-5.17 0.28,0 0,9.53 0.29,0 0,1.95 0.28,0 0,-6.31 0.28,0 0,8.13 0.27,0 0,-19.66 0.28,0 0,15.89 0.28,0 0,-2.09 0.27,0 0,0 0.28,0 0,0 0.27,0 0,-2.27 0.27,0 0,2.27 0.27,0 0,10.72 0.27,0 0,-10.72 0.26,0 0,-4.73 0.27,0 0,2.46 0.27,0 0,11.46 0.26,0 0,-9.19 0.26,0 0,-27.52 0.26,0 0,33.38 0.26,0 0,-13.29 0.26,0 0,0 0.26,0 0,9.52 0.26,0 0,1.95 0.26,0 0,-14.47 0.25,0 0,3 0.26,0 0,0 0.25,0 0,-3 0.25,0 0,-7.21 0.25,0 0,17.64 0.25,0 0,4.04 0.25,0 0,-6.31 0.25,0 0,0 0.25,0 0,-15.37 0.24,0 0,10.21 0.25,0 0,7.43 0.24,0 0,-2.27 0.25,0 0,-5.16 0.24,0 0,2.7 0.24,0 0,-2.7 0.24,0 0,-6.36 0.24,0 0,-13.73 0.24,0 0,9.88 0.24,0 0,-9.88 0.24,0 0,9.88 0.23,0 0,10.21 0.24,0 0,-10.21 0.23,0 0,0 0.23,0 0,-9.88 0.24,0 0,20.09 0.23,0 0,-6.36 0.23,0 0,9.06 0.23,0 0,2.47 0.23,0 0,-8.17 0.23,0 0,19.63 0.22,0 0,-22.99 0.23,0 0,3.36 0.23,0 0,-7.21 0.22,0 0,7.21 0.22,0 0,5.7 0.23,0 0,-12.91 0.22,0 0,3.85 0.22,0 0,-8.33 0.44,0 0,19.86 0.22,0 0,-2.47 0.22,0 0,-2.7 0.22,0 0,-20.09 0.22,0 0,13.73 0.21,0 0,-3.84 0.22,0 0,3.84 0.21,0 0,3.36 0.22,0 0,-3.36 0.21,0 0,-8.33 0.42,0 0,26.16 0.21,0 0,-4.04 0.22,0 0,-22.12 0.2,0 0,4.49 0.21,0 0,3.84 0.21,0 0,-8.33 0.21,0 0,4.49 0.21,0 0,0 0.2,0 0,0 0.21,0 0,-9.89 0.2,0 0,9.89 0.21,0 0,10.2 0.2,0 0,-10.2 0.2,0 0,10.2 0.21,0 0,-10.2 0.2,0 0,7.2 0.2,0 0,-3.36 0.2,0 0,0 0.2,0 0,3.36 0.2,0 0,3 0.2,0 0,-10.2 0.19,0 0,-4.49 0.2,0 0,-5.39 0.39,0 0,9.88 0.2,0 0,7.2 0.19,0 0,5.7 0.39,0 0,-5.7 0.19,0 0,-3.36 0.2,0 0,-3.84 0.19,0 0,7.2 0.19,0 0,-3.36 0.19,0 0,0 0.19,0 0,-8.33 0.38,0 0,-5.39 0.18,0 0,9.88 0.19,0 0,15.37 0.19,0 0,-11.53 0.19,0 0,-13.72 0.18,0 0,20.08 0.19,0 0,-6.36 0.18,0 0,-3.84 0.19,0 0,3.84 0.18,0 0,3.37 0.37,0 0,0 0.18,0 0,8.16 0.18,0 0,-19.86 0.36,0 0,22.12 0.18,0 0,-13.79 0.18,0 0,-13.72 0.18,0 0,5.39 0.18,0 0,0 0.17,0 0,17.4 0.18,0 0,-17.39 0.18,0 0,19.85 0.18,0 0,-11.53 0.35,0 0,3.37 0.17,0 0,-11.69 0.18,0 0,0 0.17,0 0,17.39 0.35,0 0,-22.79 0.17,0 0,5.4 0.17,0 0,0 0,-86.67 0,0 -0.17,0 0,-59.97 -0.17,0 0,117.86 -0.35,0 0,-57.89 -0.17,0 0,0 -0.18,0 0,43.98 -0.17,0 0,-9.65 -0.35,0 0,28.93 -0.18,0 0,-63.26 -0.18,0 0,57.89 -0.18,0 0,-57.89 -0.17,0 0,0 -0.18,0 0,-59.97 -0.18,0 0,94.3 -0.18,0 0,33.6 -0.18,0 0,-67.93 -0.36,0 0,63.26 -0.18,0 0,-19.28 -0.18,0 0,0 -0.37,0 0,-9.65 -0.18,0 0,-13.19 -0.19,0 0,13.19 -0.18,0 0,17.27 -0.19,0 0,-111.57 -0.18,0 0,94.3 -0.19,0 0,28.93 -0.19,0 0,-42.12 -0.19,0 0,-81.11 -0.18,0 0,59.97 -0.38,0 0,34.33 -0.19,0 0,0 -0.19,0 0,9.65 -0.19,0 0,-22.84 -0.19,0 0,13.19 -0.2,0 0,9.65 -0.19,0 0,13.91 -0.39,0 0,-13.91 -0.19,0 0,-22.84 -0.2,0 0,-81.11 -0.39,0 0,59.97 -0.2,0 0,21.14 -0.19,0 0,30.46 -0.2,0 0,-7.62 -0.2,0 0,-9.65 -0.2,0 0,0 -0.2,0 0,9.65 -0.2,0 0,-22.84 -0.2,0 0,30.46 -0.21,0 0,-30.46 -0.2,0 0,30.46 -0.2,0 0,-30.46 -0.21,0 0,-81.11 -0.2,0 0,81.11 -0.21,0 0,0 -0.2,0 0,0 -0.21,0 0,-21.15 -0.21,0 0,34.34 -0.21,0 0,-13.19 -0.21,0 0,-21.15 -0.2,0 0,67.94 -0.22,0 0,7.85 -0.21,0 0,-75.79 -0.42,0 0,34.34 -0.21,0 0,9.65 -0.22,0 0,-9.65 -0.21,0 0,-13.19 -0.22,0 0,13.19 -0.21,0 0,-94.3 -0.22,0 0,111.57 -0.22,0 0,6.29 -0.22,0 0,5.37 -0.22,0 0,-63.27 -0.44,0 0,34.34 -0.22,0 0,-13.19 -0.22,0 0,36.75 -0.23,0 0,-13.91 -0.22,0 0,-22.84 -0.22,0 0,22.84 -0.23,0 0,-9.65 -0.23,0 0,50.72 -0.22,0 0,-41.07 -0.23,0 0,19.27 -0.23,0 0,-5.36 -0.23,0 0,-23.56 -0.23,0 0,17.26 -0.23,0 0,-111.56 -0.24,0 0,81.11 -0.23,0 0,0 -0.23,0 0,30.45 -0.24,0 0,-30.45 -0.23,0 0,-81.11 -0.24,0 0,81.11 -0.24,0 0,-81.11 -0.24,0 0,94.3 -0.24,0 0,17.26 -0.24,0 0,6.3 -0.24,0 0,-6.3 -0.24,0 0,11.66 -0.25,0 0,4.68 -0.24,0 0,-16.34 -0.25,0 0,-30.46 -0.24,0 0,42.12 -0.25,0 0,0 -0.25,0 0,12.52 -0.25,0 0,-7.84 -0.25,0 0,-46.8 -0.25,0 0,22.84 -0.25,0 0,7.62 -0.25,0 0,0 -0.26,0 0,-7.62 -0.25,0 0,31.8 -0.26,0 0,-3.71 -0.26,0 0,-20.47 -0.26,0 0,0 -0.26,0 0,27.55 -0.26,0 0,-139.11 -0.26,0 0,127.89 -0.26,0 0,17.12 -0.26,0 0,-21.79 -0.27,0 0,-5.36 -0.27,0 0,10.03 -0.26,0 0,19.75 -0.27,0 0,-19.75 -0.27,0 0,-4.67 -0.27,0 0,4.67 -0.27,0 0,0 -0.28,0 0,0 -0.27,0 0,4.14 -0.28,0 0,-37.74 -0.28,0 0,44.82 -0.27,0 0,-15.89 -0.28,0 0,12.52 -0.28,0 0,-3.71 -0.29,0 0,-20.47 -0.28,0 0,11.66 -0.28,0 0,4.67 -0.29,0 0,4.14 -0.29,0 0,-4.14 -0.29,0 0,19.74 -0.29,0 0,-36.07 -0.29,0 0,20.47 -0.29,0 0,26.42 -0.29,0 0,-26.42 -0.3,0 0,7.07 -0.3,0 0,-21.25 -0.29,0 0,24.33 -0.3,0 0,-3.08 -0.3,0 0,0 -0.31,0 0,5.91 -0.3,0 0,-5.91 -0.31,0 0,10.98 -0.3,0 0,-55.79 -0.31,0 0,41.45 -0.31,0 0,-7.85 -0.31,0 0,30.56 -0.32,0 0,-40.6 -0.31,0 0,21.25 -0.32,0 0,5.91 -0.32,0 0,-9.27 -0.32,0 0,14.34 -0.32,0 0,-7.9 -0.32,0 0,7.9 -0.33,0 0,-5.07 -0.32,0 0,15.25 -0.33,0 0,-5.75 -0.33,0 0,-18.77 -0.33,0 0,14.33 -0.33,0 0,-26.85 -0.34,0 0,15.88 -0.34,0 0,8.53 -0.34,0 0,-11.89 -0.34,0 0,11.89 -0.34,0 0,8.9 -0.34,0 0,-20.79 -0.35,0 0,18.77 -0.35,0 0,-18.77 -0.35,0 0,-17.89 -0.35,0 0,34.51 -0.36,0 0,-10.19 -0.35,0 0,-3.07 -0.36,0 0,17.43 -0.36,0 0,-2.02 -0.36,0 0,0 -0.37,0 0,12.2 -0.36,0 0,-8.27 -0.37,0 0,-8.37 -0.37,0 0,-10.97 -0.38,0 0,22.89 -0.37,0 0,-11.92 -0.38,0 0,0 -0.38,0 0,19.46 -0.38,0 0,-37.51 -0.39,0 0,33.18 -0.39,0 0,-3.22 -0.39,0 0,-9.62 -0.39,0 0,12.84 -0.39,0 0,-8.67 -0.4,0 0,15.62 -0.4,0 0,-15.62 -0.4,0 0,-20.8 -0.41,0 0,18.77 -0.41,0 0,-6.87 -0.41,0 0,6.87 -0.41,0 0,-12.33 -0.42,0 0,5.46 -0.42,0 0,8.9 -0.42,0 0,-4.18 -0.42,0 0,22.22 -0.43,0 0,-9.37 -0.43,0 0,-6.76 -0.43,0 0,5.19 -0.44,0 0,-18.63 -0.44,0 0,15.25 -0.44,0 0,0 -0.45,0 0,16.6 -0.45,0 0,-11.65 -0.45,0 0,-4.95 -0.45,0 0,11.89 -0.46,0 0,6.84 -0.46,0 0,-15.36 -0.47,0 0,3.08 -0.47,0 0,5.44 -0.47,0 0,-8.52 -0.48,0 0,-1.64 -0.48,0 0,-3.54 -0.48,0 0,14.94 -0.49,0 0,-8.19 -0.49,0 0,4.34 -0.5,0 0,3.85 -0.5,0 0,1.19 -0.5,0 0,-1.19 -0.51,0 0,-21.03 -0.51,0 0,24.49 -0.52,0 0,-3.47 -0.52,0 0,-6.67 -0.52,0 0,1.44 -0.53,0 0,15.65 -0.53,0 0,-8.07 -0.54,0 0,-10.53 -0.54,0 0,5.66 -0.55,0 0,8.12 -0.56,0 0,-6.83 -0.55,0 0,0 -0.57,0 0,3.58 -0.56,0 0,-3.58 -0.58,0 0,3.58 -0.58,0 0,-4.87 -0.58,0 0,21.62 -0.59,0 0,-5.27 -0.59,0 0,-17.68 -0.6,0 0,7.32 -0.61,0 0,-5.99 -0.61,0 0,18.71 -0.62,0 0,-3.18 -0.63,0 0,-15.53 -0.63,0 0,16.35 -0.64,0 0,-2.53 -0.64,0 0,1.71 -0.65,0 0,4.66 -0.66,0 0,-7.26 -0.66,0 0,7.98 -0.68,0 0,-16.05 -0.68,0 0,0 -0.68,0 0,14.59 -0.7,0 0,0 -0.7,0 0,-2.3 -0.71,0 0,5.83 -0.72,0 0,-5.83 -0.73,0 0,-3.34 -0.73,0 0,3.34 -0.75,0 0,0.78 -0.75,0 0,-8.8 -0.77,0 0,8.8 -0.77,0 0,-5.01 -0.78,0 0,2.6 -0.79,0 0,3.93 -0.8,0 0,-11.34 -0.82,0 0,10.59 -0.82,0 0,-9.57 -0.84,0 0,11.77 -0.84,0 0,2.73 -0.86,0 0,-8.96 -0.87,0 0,8.96 -0.88,0 0,3.14 -0.9,0 0,-5.87 -0.9,0 0,-2.97 -0.92,0 0,-4.12 -0.94,0 0,12.35 -0.95,0 0,-9.82 -0.96,0 0,5.26 -0.98,0 0,-3.68 -1,0 0,5.71 -1.01,0 0,2.53 -1.03,0 0,-9.02 -1.04,0 0,10.22 -1.06,0 0,5.92 -1.09,0 0,-6.52 -1.1,0 0,-3.8 -1.12,0 0,4.98 -1.14,0 0,-4.31 -1.16,0 0,9.15 -1.18,0 0,-3.71 -1.21,0 0,-3.53 -1.23,0 0,1.22 -1.26,0 0,-2.49 -1.28,0 0,2.49 -1.31,0 0,1.17 -1.34,0 0,5.83 -1.36,0 0,3.25 -1.4,0 0,-1.35 -1.43,0 0,1.35 -1.46,0 0,-9.08 -1.5,0 0,-0.58 -1.54,0 0,4.92 -1.57,0 0,0 -1.62,0 0,2.45 -1.66,0 0,-0.48 -1.7,0 0,1.87 -1.75,0 0,-3.85 -1.8,0 0,3.85 -1.86,0 0,3.85 -1.91,0 0,-0.41 -1.98,0 0,4.95 -2.04,0 0,0.35 -2.1,0 0,2.03 -2.19,0 0,-5.73 -2.26,0 0,13.87 -2.34,0 0,-10.18 -2.44,0 0,1.71 -2.54,0 0,3.17 -2.65,0 0,-0.61 -2.76,0 0,0.3 -2.89,0 0,2.64 -3.04,0 0,0 -3.19,0 0,-1.44 -3.36,0 0,-3.41 -3.55,0 0,16.79 -3.77,0 0,-6.26 -4.02,0 0,0.7 -4.29,0 0,1.81 -4.6,0 0,5.28 -4.98,0 0,4.72 -5.41,0 0,3.68 -5.93,0 0,-1.79 -6.55,0 0,-3.23 -7.32,0 0,7.13 -8.31,0 0,3.74 -9.58,0 0,1.89 -11.34,0 0,6.34 -13.87,0 0,6.58 -17.89,0 0,14.64 -25.21,0 0,4.29 -43.1,0 0,4.52 z" /><path
           inkscape:connector-curvature="0"
           id="path94"
           style="fill:none;stroke:#000000;stroke-width:1.0704;stroke-linecap:butt;stroke-linejoin:miter;stroke-miterlimit:1.5;stroke-dasharray:none;stroke-opacity:1"
           d="m 56.279757,344.96 33.980243,0 0,-58.26 43.1,0 0,-4.12 25.21,0 0,-14 17.89,0 0,-6.23 13.87,0 0,-5.99 11.34,0 0,-1.77 9.58,0 0,-3.49 8.31,0 0,-6.63 7.32,0 0,2.99 6.55,0 0,1.67 5.93,0 0,-3.43 5.41,0 0,-4.36 4.98,0 0,-4.85 4.6,0 0,-1.65 4.29,0 0,-0.64 4.02,0 0,5.73 3.77,0 0,-15.26 3.55,0 0,3.07 3.36,0 0,1.3 3.19,0 0,0 3.04,0 0,-2.38 2.89,0 0,-0.28 2.76,0 0,0.55 2.65,0 0,-2.84 2.54,0 0,-1.52 2.44,0 0,9.16 2.34,0 0,-12.45 2.26,0 0,5.11 2.19,0 0,-1.82 2.1,0 0,-0.31 2.04,0 0,-4.39 1.98,0 0,0.36 1.91,0 0,-3.4 1.86,0 0,-3.35 1.8,0 0,3.36 1.75,0 0,-1.64 1.7,0 0,0.42 1.66,0 0,-2.14 1.62,0 0,0 1.57,0 0,-4.25 1.54,0 0,0.5 1.5,0 0,7.9 1.46,0 0,-1.19 1.43,0 0,1.19 1.4,0 0,-2.84 1.36,0 0,-5.05 1.34,0 0,-1.02 1.31,0 0,-2.12 1.28,0 0,2.13 1.26,0 0,-1.05 1.23,0 0,3.04 1.21,0 0,3.21 1.18,0 0,-7.88 1.16,0 0,3.69 1.14,0 0,-4.25 1.12,0 0,3.24 1.1,0 0,5.63 1.09,0 0,-5.12 1.06,0 0,-8.66 1.04,0 0,7.63 1.03,0 0,-2.16 1.01,0 0,-4.81 1,0 0,3.09 0.98,0 0,-4.42 0.96,0 0,8.31 0.95,0 0,-10.41 0.94,0 0,3.43 0.92,0 0,2.5 0.9,0 0,4.99 0.9,0 0,-2.67 0.88,0 0,-7.53 0.87,0 0,7.53 0.86,0 0,-2.32 0.84,0 0,-9.77 0.84,0 0,7.92 0.82,0 0,-8.74 0.82,0 0,9.37 0.8,0 0,-3.29 0.79,0 0,-2.15 0.78,0 0,4.16 0.77,0 0,-7.27 0.77,0 0,7.28 0.75,0 0,-0.66 0.75,0 0,-2.77 0.73,0 0,2.77 0.73,0 0,4.91 0.72,0 0,-4.91 0.71,0 0,1.93 0.7,0 0,0 0.7,0 0,-11.99 0.68,0 0,0 0.68,0 0,13.22 0.68,0 0,-6.66 0.66,0 0,6.05 0.66,0 0,-3.9 0.65,0 0,-1.42 0.64,0 0,2.1 0.64,0 0,-13.25 0.63,0 0,12.57 0.63,0 0,2.66 0.62,0 0,-15.23 0.61,0 0,4.76 0.61,0 0,-5.8 0.6,0 0,14.3 0.59,0 0,4.42 0.59,0 0,-17.68 0.58,0 0,3.87 0.58,0 0,-2.86 0.58,0 0,2.86 0.56,0 0,-2.86 0.57,0 0,0 0.55,0 0,5.48 0.56,0 0,-6.49 0.55,0 0,-4.4 0.54,0 0,8.27 0.54,0 0,6.56 0.53,0 0,-12.55 0.53,0 0,-1.12 0.52,0 0,5.24 0.52,0 0,2.77 0.52,0 0,-18.72 0.51,0 0,15.95 0.51,0 0,0.95 0.5,0 0,-0.95 0.5,0 0,-3.04 0.5,0 0,-3.35 0.49,0 0,6.39 0.49,0 0,-11.5 0.48,0 0,2.66 0.48,0 0,1.25 0.48,0 0,6.61 0.47,0 0,-4.25 0.47,0 0,-2.36 0.47,0 0,12.08 0.46,0 0,-5.47 0.46,0 0,-9.16 0.45,0 0,3.75 0.45,0 0,9.16 0.45,0 0,-12.91 0.45,0 0,0 0.44,0 0,-10.98 0.44,0 0,13.53 0.44,0 0,-3.91 0.43,0 0,5.11 0.43,0 0,7.34 0.43,0 0,-16.9 0.42,0 0,3.04 0.42,0 0,-6.39 0.42,0 0,-3.75 0.42,0 0,8.66 0.41,0 0,-4.91 0.41,0 0,4.91 0.41,0 0,-12.92 0.41,0 0,14.4 0.4,0 0,11.93 0.4,0 0,-11.93 0.4,0 0,6.52 0.39,0 0,-9.56 0.39,0 0,7.11 0.39,0 0,2.45 0.39,0 0,-23.28 0.39,0 0,26.64 0.38,0 0,-14.55 0.38,0 0,0 0.38,0 0,8.74 0.37,0 0,-16.27 0.38,0 0,7.53 0.37,0 0,6.09 0.37,0 0,6.26 0.36,0 0,-9.16 0.37,0 0,0 0.36,0 0,1.48 0.36,0 0,-12.2 0.36,0 0,2.06 0.35,0 0,7.11 0.36,0 0,-22.08 0.35,0 0,10.72 0.35,0 0,12.91 0.35,0 0,-12.91 0.35,0 0,14.39 0.34,0 0,-6.39 0.34,0 0,-8 0.34,0 0,8 0.34,0 0,-5.8 0.34,0 0,-9.88 0.34,0 0,17.41 0.33,0 0,-9.73 0.33,0 0,12.91 0.33,0 0,4.26 0.33,0 0,-10.99 0.32,0 0,3.55 0.33,0 0,-5.48 0.32,0 0,5.48 0.32,0 0,-9.73 0.32,0 0,6.18 0.32,0 0,-3.98 0.32,0 0,-12.92 0.31,0 0,26.53 0.32,0 0,-20.72 0.31,0 0,4.91 0.31,0 0,-22.08 0.31,0 0,31.81 0.3,0 0,-7.53 0.31,0 0,3.99 0.3,0 0,-3.99 0.31,0 0,0 0.3,0 0,2.05 0.3,0 0,-14.96 0.29,0 0,12.91 0.3,0 0,-4.56 0.3,0 0,18.17 0.29,0 0,-18.17 0.29,0 0,-11.71 0.29,0 0,22.08 0.29,0 0,-12.92 0.29,0 0,2.55 0.29,0 0,-2.55 0.29,0 0,-2.77 0.28,0 0,-6.39 0.28,0 0,11.71 0.29,0 0,2.36 0.28,0 0,-7.68 0.28,0 0,9.88 0.27,0 0,-24.27 0.28,0 0,19.71 0.28,0 0,-2.55 0.27,0 0,0 0.28,0 0,0 0.27,0 0,-2.77 0.27,0 0,2.77 0.27,0 0,12.92 0.27,0 0,-12.92 0.26,0 0,-5.8 0.27,0 0,3.03 0.27,0 0,13.87 0.26,0 0,-11.1 0.26,0 0,-34.99 0.26,0 0,42.1 0.26,0 0,-16.27 0.26,0 0,0 0.26,0 0,11.71 0.26,0 0,2.37 0.26,0 0,-17.83 0.25,0 0,3.75 0.26,0 0,0 0.25,0 0,-3.75 0.25,0 0,-9.16 0.25,0 0,22.08 0.25,0 0,4.91 0.25,0 0,-7.69 0.25,0 0,0 0.25,0 0,-19.3 0.24,0 0,12.91 0.25,0 0,9.17 0.24,0 0,-2.77 0.25,0 0,-6.4 0.24,0 0,3.36 0.24,0 0,-3.36 0.24,0 0,-8 0.24,0 0,-17.82 0.24,0 0,12.91 0.24,0 0,-12.91 0.24,0 0,12.91 0.23,0 0,12.91 0.24,0 0,-12.91 0.23,0 0,0 0.23,0 0,-12.91 0.24,0 0,25.82 0.23,0 0,-8 0.23,0 0,11.36 0.23,0 0,3.04 0.23,0 0,-10.15 0.23,0 0,24.01 0.22,0 0,-28.26 0.23,0 0,4.25 0.23,0 0,-9.16 0.22,0 0,9.16 0.22,0 0,7.11 0.23,0 0,-16.27 0.22,0 0,4.91 0.22,0 0,-10.72 0.22,0 0,-16.27 0.22,0 0,41.39 0.22,0 0,-3.04 0.22,0 0,-3.35 0.22,0 0,-25.83 0.22,0 0,17.82 0.21,0 0,-4.91 0.22,0 0,4.91 0.21,0 0,4.25 0.22,0 0,-4.25 0.21,0 0,-10.72 0.21,0 0,-16.26 0.21,0 0,49.06 0.21,0 0,-4.91 0.22,0 0,-27.88 0.2,0 0,5.8 0.21,0 0,4.91 0.21,0 0,-10.71 0.21,0 0,5.8 0.21,0 0,0 0.2,0 0,0 0.21,0 0,-12.91 0.2,0 0,12.91 0.21,0 0,12.92 0.2,0 0,-12.92 0.2,0 0,12.92 0.21,0 0,-12.92 0.2,0 0,9.17 0.2,0 0,-4.26 0.2,0 0,0 0.2,0 0,4.26 0.2,0 0,3.75 0.2,0 0,-12.92 0.19,0 0,-5.8 0.2,0 0,-7.11 0.2,0 0,-9.16 0.19,0 0,22.07 0.2,0 0,9.17 0.19,0 0,7.1 0.2,0 0,-38.34 0.19,0 0,31.24 0.19,0 0,-4.26 0.2,0 0,-4.91 0.19,0 0,9.17 0.19,0 0,-4.26 0.19,0 0,0 0.19,0 0,-10.71 0.19,0 0,-16.27 0.19,0 0,9.16 0.18,0 0,12.91 0.19,0 0,19.31 0.19,0 0,-14.4 0.19,0 0,-17.82 0.18,0 0,25.83 0.19,0 0,-8.01 0.18,0 0,-4.91 0.19,0 0,4.91 0.18,0 0,4.26 0.18,0 0,-31.24 0.19,0 0,31.24 0.18,0 0,10.14 0.18,0 0,-25.11 0.18,0 0,-16.27 0.18,0 0,44.15 0.18,0 0,-17.17 0.18,0 0,-17.82 0.18,0 0,7.11 0.18,0 0,0 0.17,0 0,22.07 0.18,0 0,-22.07 0.18,0 0,25.11 0.18,0 0,-14.4 0.17,0 0,-39.9 0.18,0 0,44.16 0.17,0 0,-14.97 0.18,0 0,0 0.17,0 0,22.08 0.17,0 0,-38.35 0.18,0 0,9.16 0.17,0 0,7.11 0.17,0 0,0 0.17,0 0,-16.27 0.17,0 0,0"
           sodipodi:nodetypes="ccccccccccccccccccccccccccccccccccccccccccccccccccccccccccccccccccccccccccccccccccccccccccccccccccccccccccccccccccccccccccccccccccccccccccccccccccccccccccccccccccccccccccccccccccccccccccccccccccccccccccccccccccccccccccccccccccccccccccccccccccccccccccccccccccccccccccccccccccccccccccccccccccccccccccccccccccccccccccccccccccccccccccccccccccccccccccccccccccccccccccccccccccccccccccccccccccccccccccccccccccccccccccccccccccccccccccccccccccccccccccccccccccccccccccccccccccccccccccccccccccccccccccccccccccccccccccccccccccccccccccccccccccccccccccccccccccccccccccccccccccccccccccccccccccccccccccccccccccccccccccccccccccccccccccccccccccccccccccccccccccccccccccccccccccccccccccccccccccccccccccccccccccccccccccccccccccccccccccccccccccccccccc" /></g></g><g
       id="g96" /><g
       id="g98" /><g
       id="g100" /><g
       id="g102" /><g
       id="g104" /><g
       id="g106"
       transform="translate(-4.8,0)"><text
         id="text108"
         style="font-variant:normal;font-weight:normal;font-size:12px;font-family:Roboto;-inkscape-font-specification:Roboto;writing-mode:lr-tb;fill:#000000;fill-opacity:1;fill-rule:nonzero;stroke:none"
         transform="scale(1,-1)"
         x="28.51"
         y="-42.419998"><tspan
           id="tspan110"
           sodipodi:role="line"
           y="-42.419998"
           x="28.51">0.001</tspan></text>
<text
         id="text112"
         style="font-variant:normal;font-weight:normal;font-size:12px;font-family:Roboto;-inkscape-font-specification:Roboto;writing-mode:lr-tb;fill:#000000;fill-opacity:1;fill-rule:nonzero;stroke:none"
         transform="scale(1,-1)"
         x="34.07"
         y="-115.75"><tspan
           id="tspan114"
           sodipodi:role="line"
           y="-115.75"
           x="34.07">0.01</tspan></text>
<text
         id="text116"
         style="font-variant:normal;font-weight:normal;font-size:12px;font-family:Roboto;-inkscape-font-specification:Roboto;writing-mode:lr-tb;fill:#000000;fill-opacity:1;fill-rule:nonzero;stroke:none"
         transform="scale(1,-1)"
         x="39.630001"
         y="-189.09"><tspan
           id="tspan118"
           sodipodi:role="line"
           y="-189.09"
           x="39.630001">0.1</tspan></text>
<text
         id="text120"
         style="font-variant:normal;font-weight:normal;font-size:12px;font-family:Roboto;-inkscape-font-specification:Roboto;writing-mode:lr-tb;fill:#000000;fill-opacity:1;fill-rule:nonzero;stroke:none"
         transform="scale(1,-1)"
         x="47.970001"
         y="-262.42999"><tspan
           id="tspan122"
           y="-262.42999"
           x="47.970001"
           style="font-size:12px">1</tspan></text>
<text
         id="text124"
         style="font-variant:normal;font-weight:normal;font-size:12px;font-family:Roboto;-inkscape-font-specification:Roboto;writing-mode:lr-tb;fill:#000000;fill-opacity:1;fill-rule:nonzero;stroke:none"
         transform="scale(1,-1)"
         x="42.41"
         y="-335.76001"><tspan
           id="tspan126"
           sodipodi:role="line"
           y="-335.76001"
           x="42.41">10</tspan></text>
</g><g
       id="g128" /><g
       id="g130" /><g
       id="g132" /><g
       id="g134" /><g
       id="g136" /><g
       id="g138" /><g
       id="g140" /><g
       id="g142" /><g
       id="g144" /><g
       id="g146" /><g
       id="g148" /><g
       id="g150"><text
         id="text152"
         style="font-variant:normal;font-weight:normal;font-size:12px;font-family:Roboto;-inkscape-font-specification:Roboto;writing-mode:lr-tb;fill:#000000;fill-opacity:1;fill-rule:nonzero;stroke:none"
         transform="scale(1,-1)"
         x="77.349998"
         y="-21.333868"><tspan
           id="tspan154"
           sodipodi:role="line"
           y="-21.333868"
           x="77.349998">1 Day</tspan></text>
<text
         id="text156"
         style="font-variant:normal;font-weight:normal;font-size:12px;font-family:Roboto;-inkscape-font-specification:Roboto;writing-mode:lr-tb;fill:#000000;fill-opacity:1;fill-rule:nonzero;stroke:none"
         transform="matrix(1,0,0,-1,194.45,21.77)"><tspan
           id="tspan158"
           sodipodi:role="line"
           y="0"
           x="0">1 Week</tspan></text>
<text
         id="text160"
         style="font-variant:normal;font-weight:normal;font-size:12px;font-family:Roboto;-inkscape-font-specification:Roboto;writing-mode:lr-tb;fill:#000000;fill-opacity:1;fill-rule:nonzero;stroke:none"
         transform="matrix(1,0,0,-1,283.68,21.77)"><tspan
           id="tspan162"
           sodipodi:role="line"
           y="0"
           x="0">1 Month</tspan></text>
<text
         id="text164"
         style="font-variant:normal;font-weight:normal;font-size:12px;font-family:Roboto;-inkscape-font-specification:Roboto;writing-mode:lr-tb;fill:#000000;fill-opacity:1;fill-rule:nonzero;stroke:none"
         transform="matrix(1,0,0,-1,442.23,21.77)"><tspan
           id="tspan166"
           sodipodi:role="line"
           y="0"
           x="0">1 Year</tspan></text>
</g><g
       id="g168" /><g
       id="g170" /><g
       id="g172" /><g
       id="g174" /><g
       id="g180" /><g
       id="g182" /><g
       id="g188" /><g
       id="g190" /><g
       id="g192" /><g
       id="g194" /><path
       inkscape:connector-curvature="0"
       id="path64-3"
       style="fill:none;stroke:#e5e5e5;stroke-width:1.07000005;stroke-linecap:butt;stroke-linejoin:round;stroke-miterlimit:10;stroke-dasharray:none;stroke-opacity:1"
       d="m 55.9981,31.34 0,322.68" /><text
       xml:space="preserve"
       style="font-style:normal;font-weight:normal;font-size:12px;line-height:125%;font-family:sans-serif;text-align:center;letter-spacing:0px;word-spacing:0px;text-anchor:middle;fill:#000000;fill-opacity:1;stroke:none;stroke-width:1px;stroke-linecap:butt;stroke-linejoin:miter;stroke-opacity:1"
       x="55.919975"
       y="-21.333868"
       id="text4529"
       sodipodi:linespacing="125%"
       transform="scale(1,-1)"><tspan
         sodipodi:role="line"
         id="tspan4531"
         x="55.919975"
         y="-21.333868"
         style="font-style:normal;font-variant:normal;font-weight:normal;font-stretch:normal;font-size:12px;font-family:Roboto;-inkscape-font-specification:Roboto">Birth</tspan></text>
<text
       xml:space="preserve"
       style="font-style:normal;font-variant:normal;font-weight:normal;font-stretch:normal;font-size:12px;line-height:100%;font-family:Roboto;-inkscape-font-specification:Roboto;text-align:center;letter-spacing:0px;word-spacing:0px;text-anchor:middle;fill:#000000;fill-opacity:1;stroke:none;stroke-width:1px;stroke-linecap:butt;stroke-linejoin:miter;stroke-opacity:1"
       x="55.873589"
       y="-369.13004"
       id="text7319"
       sodipodi:linespacing="100%"
       transform="scale(1,-1)"><tspan
         sodipodi:role="line"
         x="55.873589"
         y="-369.13004"
         id="tspan7323"
         style="font-size:12px">Deaths per 10,000</tspan><tspan
         sodipodi:role="line"
         x="55.873589"
         y="-357.13004"
         id="tspan7327"
         style="font-size:12px">person-days</tspan></text>
<path
       style="fill:none;fill-rule:evenodd;stroke:#000000;stroke-width:0.80000001px;stroke-linecap:butt;stroke-linejoin:miter;stroke-opacity:1"
       d="m 245.6709,255.87634 19.84025,16.53355"
       id="path7311"
       inkscape:connector-curvature="0" /><text
       xml:space="preserve"
       style="font-style:normal;font-weight:normal;font-size:10px;line-height:100%;font-family:sans-serif;text-align:center;letter-spacing:0px;word-spacing:0px;text-anchor:middle;fill:#000000;fill-opacity:1;stroke:none;stroke-width:1px;stroke-linecap:butt;stroke-linejoin:miter;stroke-opacity:1"
       x="301.17047"
       y="-287.69067"
       id="text7313"
       sodipodi:linespacing="100%"
       transform="scale(1,-1)"><tspan
         sodipodi:role="line"
         x="301.17047"
         y="-287.69067"
         style="font-style:normal;font-variant:normal;font-weight:normal;font-stretch:normal;font-size:12px;line-height:100%;font-family:'Roboto Condensed';-inkscape-font-specification:'Roboto Condensed, '"
         id="tspan7348">Daily infant mortality</tspan><tspan
         sodipodi:role="line"
         x="301.17047"
         y="-275.69067"
         style="font-style:normal;font-variant:normal;font-weight:normal;font-stretch:normal;font-size:12px;line-height:100%;font-family:'Roboto Condensed';-inkscape-font-specification:'Roboto Condensed, '"
         id="tspan5822">rate &amp; 95 % CI</tspan></text>
</g></svg>