<?xml version="1.0" encoding="UTF-8" standalone="no"?>
<!-- Created with Inkscape (http://www.inkscape.org/) -->

<svg
   xmlns:dc="http://purl.org/dc/elements/1.1/"
   xmlns:cc="http://creativecommons.org/ns#"
   xmlns:rdf="http://www.w3.org/1999/02/22-rdf-syntax-ns#"
   xmlns:svg="http://www.w3.org/2000/svg"
   xmlns="http://www.w3.org/2000/svg"
   xmlns:sodipodi="http://sodipodi.sourceforge.net/DTD/sodipodi-0.dtd"
   xmlns:inkscape="http://www.inkscape.org/namespaces/inkscape"
   id="svg17443"
   version="1.1"
   inkscape:version="0.91 r13725"
   xml:space="preserve"
   width="543.29346"
   height="348.06198"
   viewBox="0 0 543.29346 348.06198"
   sodipodi:docname="ms05.svg"
   inkscape:export-filename="/home/jon/lucile/share/Dropbox/sci/2015-10-fimort-agepat/doc/2016-09-01-epc2016-the_gestational_age_pattern_of_human_mortality/fig/ms01.png"
   inkscape:export-xdpi="331.31265"
   inkscape:export-ydpi="331.31265"><sodipodi:namedview
     pagecolor="#ffffff"
     bordercolor="#666666"
     borderopacity="1"
     objecttolerance="10"
     gridtolerance="10"
     guidetolerance="10"
     inkscape:pageopacity="0"
     inkscape:pageshadow="2"
     inkscape:window-width="3440"
     inkscape:window-height="1416"
     id="namedview17445"
     showgrid="false"
     inkscape:zoom="2.4038647"
     inkscape:cx="199.39843"
     inkscape:cy="161.40762"
     inkscape:window-x="0"
     inkscape:window-y="24"
     inkscape:window-maximized="1"
     inkscape:current-layer="g17451"
     fit-margin-top="0"
     fit-margin-left="0"
     fit-margin-right="0"
     fit-margin-bottom="0" /><metadata
     id="metadata17449"><rdf:RDF><cc:Work
         rdf:about=""><dc:format>image/svg+xml</dc:format><dc:type
           rdf:resource="http://purl.org/dc/dcmitype/StillImage" /><dc:title></dc:title></cc:Work></rdf:RDF></metadata><defs
     id="defs17447"><clipPath
       id="clipPath17485"
       clipPathUnits="userSpaceOnUse"><path
         inkscape:connector-curvature="0"
         id="path17487"
         d="m 52.24,31.34 356.5,0 0,233.4 -356.5,0 0,-233.4 z" /></clipPath></defs><g
     transform="matrix(1.25,0,0,-1.25,4.7119379,355.40436)"
     inkscape:label="ms"
     inkscape:groupmode="layer"
     id="g17451"><g
       id="g25600"><path
         style="fill:#bebebe;fill-opacity:1;fill-rule:nonzero;stroke:none"
         d="m 473.13477,19.761719 0,0.52539 -16.875,0 0,0.97461 -16.875,0 0,263.738281 16.875,0 16.875,0 16.875,0 0,-265.238281 -16.875,0 z m -50.63672,3.363281 0,3.5625 -16.875,0 0,258.3125 16.875,0 16.875,0 0,-261.875 -16.875,0 z m -33.76367,10.412109 0,21.1875 -16.875,0 0,49.201171 -16.875,0 0,181.07422 16.875,0 16.875,0 16.875,0 0,-251.462891 -16.875,0 z m -50.63672,144.750001 0,49.0625 -16.875,0 0,57.65039 16.875,0 16.875,0 0,-106.71289 -16.875,0 z m -33.76172,73.90039 0,12.3125 -16.875,0 0,6.92578 -16.875,0 0,13.57422 16.875,0 16.875,0 16.875,0 0,-32.8125 -16.875,0 z m -50.63867,23.55078 0,2.53711 -16.875,0 0,6.72461 16.875,0 16.875,0 0,-9.26172 -16.875,0 z m -33.76172,4.28711 0,1.21289 -16.875,0 0,0.92383 -16.875,0 0,2.83789 16.875,0 16.875,0 16.875,0 0,-4.97461 -16.875,0 z m -50.63867,2.83789 0,0.5625 -16.875,0 0,1.57422 16.875,0 16.875,0 0,-2.13672 -16.875,0 z m -33.76172,0.98633 0,0.375 -16.875,0 0,0.3125 -16.875,0 0,0.46289 16.875,0 16.875,0 16.875,0 0,-1.15039 -16.875,0 z m -50.636722,0.95117 0,0.19922 16.875002,0 0,-0.19922 -16.875002,0 z"
         transform="matrix(0.8,0,0,-0.8,0,270)"
         id="path23408"
         inkscape:connector-curvature="0" /></g><g
       id="g17481"><g
         clip-path="url(#clipPath17485)"
         id="g17483"><path
           inkscape:connector-curvature="0"
           id="path17489"
           style="fill:none;stroke:#e5e5e5;stroke-width:1.07000005;stroke-linecap:butt;stroke-linejoin:round;stroke-miterlimit:10;stroke-dasharray:none;stroke-opacity:1"
           d="m 52.24,41.95 356.5,0" /><path
           inkscape:connector-curvature="0"
           id="path17491"
           style="fill:none;stroke:#e5e5e5;stroke-width:1.07000005;stroke-linecap:butt;stroke-linejoin:round;stroke-miterlimit:10;stroke-dasharray:none;stroke-opacity:1"
           d="m 52.24,94.99 356.5,0" /><path
           inkscape:connector-curvature="0"
           id="path17493"
           style="fill:none;stroke:#e5e5e5;stroke-width:1.07000005;stroke-linecap:butt;stroke-linejoin:round;stroke-miterlimit:10;stroke-dasharray:none;stroke-opacity:1"
           d="m 52.24,148.04 356.5,0" /><path
           inkscape:connector-curvature="0"
           id="path17495"
           style="fill:none;stroke:#e5e5e5;stroke-width:1.07000005;stroke-linecap:butt;stroke-linejoin:round;stroke-miterlimit:10;stroke-dasharray:none;stroke-opacity:1"
           d="m 52.24,201.09 356.5,0" /><path
           inkscape:connector-curvature="0"
           id="path17497"
           style="fill:none;stroke:#e5e5e5;stroke-width:1.07000005;stroke-linecap:butt;stroke-linejoin:round;stroke-miterlimit:10;stroke-dasharray:none;stroke-opacity:1"
           d="m 52.24,254.13 356.5,0" /><path
           inkscape:connector-curvature="0"
           id="path17499"
           style="fill:none;stroke:#e5e5e5;stroke-width:1.07000005;stroke-linecap:butt;stroke-linejoin:round;stroke-miterlimit:10;stroke-dasharray:none;stroke-opacity:1"
           d="m 68.44,31.34 0,233.4" /><path
           inkscape:connector-curvature="0"
           id="path17503"
           style="fill:none;stroke:#e5e5e5;stroke-width:1.07000005;stroke-linecap:butt;stroke-linejoin:round;stroke-miterlimit:10;stroke-dasharray:none;stroke-opacity:1"
           d="m 95.45,31.34 0,233.4" /><path
           inkscape:connector-curvature="0"
           id="path17513"
           style="fill:none;stroke:#e5e5e5;stroke-width:1.07000005;stroke-linecap:butt;stroke-linejoin:round;stroke-miterlimit:10;stroke-dasharray:none;stroke-opacity:1"
           d="m 162.97,31.34 0,233.4" /><path
           inkscape:connector-curvature="0"
           id="path17523"
           style="fill:none;stroke:#e5e5e5;stroke-width:1.07000005;stroke-linecap:butt;stroke-linejoin:round;stroke-miterlimit:10;stroke-dasharray:none;stroke-opacity:1"
           d="m 230.49,31.34 0,233.4" /><path
           inkscape:connector-curvature="0"
           id="path17533"
           style="fill:none;stroke:#e5e5e5;stroke-width:1.07000005;stroke-linecap:butt;stroke-linejoin:round;stroke-miterlimit:10;stroke-dasharray:none;stroke-opacity:1"
           d="m 298.01,31.34 0,233.4" /><path
           inkscape:connector-curvature="0"
           id="path17543"
           style="fill:none;stroke:#e5e5e5;stroke-width:1.07000005;stroke-linecap:butt;stroke-linejoin:round;stroke-miterlimit:10;stroke-dasharray:none;stroke-opacity:1"
           d="m 365.53,31.34 0,233.4" /><path
           inkscape:connector-curvature="0"
           id="path17547"
           style="fill:none;stroke:#e5e5e5;stroke-width:1.07000005;stroke-linecap:butt;stroke-linejoin:round;stroke-miterlimit:10;stroke-dasharray:none;stroke-opacity:1"
           d="m 392.54,31.34 0,233.4" /><path
           inkscape:connector-curvature="0"
           id="path17549"
           style="fill:#d23737;fill-opacity:0.30199998;fill-rule:nonzero;stroke:none"
           d="m 68.44,76.11 13.51,0 0,-5.81 13.5,0 0,-6.43 13.5,0 0,-0.56 13.51,0 0,-3.05 13.5,0 0,2.47 13.51,0 0,-1.79 13.5,0 0,-1.95 13.5,0 0,-0.72 13.51,0 0,1.59 13.5,0 0,1.18 13.51,0 0,3.65 13.5,0 0,0.13 13.5,0 0,4.66 13.51,0 0,0.85 13.5,0 0,0.66 13.51,0 0,4.26 13.5,0 0,5.51 13.5,0 0,5.5 13.51,0 0,3.53 13.5,0 0,6.25 13.51,0 0,2.97 13.5,0 0,1.18 13.5,0 0,27.14 13.51,0 0,14.39 0,-29.55 0,-7.87 -13.51,0 0,-35.41 -13.5,0 0,10.59 -13.5,0 0,2.69 -13.51,0 0,-3.38 -13.5,0 0,0.3 -13.51,0 0,-3.43 -13.5,0 0,-4.56 -13.5,0 0,-4.08 -13.51,0 0,-0.48 -13.5,0 0,-0.82 -13.51,0 0,-5.03 -13.5,0 0,-0.1 -13.5,0 0,-3.98 -13.51,0 0,-1.29 -13.5,0 0,-1.75 -13.51,0 0,0.81 -13.5,0 0,2.16 -13.5,0 0,1.97 -13.51,0 0,-2.71 -13.5,0 0,3.35 -13.51,0 0,0.62 -13.5,0 0,6.98 -13.5,0 0,6.26 -13.51,0 0,3.1 z" /><path
           inkscape:connector-curvature="0"
           id="path17551"
           style="fill:#3191c9;fill-opacity:0.30199998;fill-rule:nonzero;stroke:none"
           d="m 81.95,256.51 13.5,0 0,-35 13.5,0 0,-18.18 13.51,0 0,-15.67 13.5,0 0,-11.24 13.51,0 0,-9.12 13.5,0 0,-8.9 13.5,0 0,-6.05 13.51,0 0,-11.73 13.5,0 0,-6.67 13.51,0 0,-4.23 13.5,0 0,-13.91 13.5,0 0,-5.65 13.51,0 0,-9.4 13.5,0 0,-7.16 13.51,0 0,-14.41 13.5,0 0,-14.33 13.5,0 0,-8.07 13.51,0 0,-4.63 13.5,0 0,-5.28 13.51,0 0,0.27 13.5,0 0,-3.17 13.5,0 0,-0.09 13.51,0 0,1.26 0,-6.33 0,-1.45 -13.51,0 0,0.08 -13.5,0 0,3.62 -13.5,0 0,-0.36 -13.51,0 0,5.92 -13.5,0 0,4.95 -13.51,0 0,8.37 -13.5,0 0,14.55 -13.5,0 0,14.42 -13.51,0 0,6.48 -13.5,0 0,9.19 -13.51,0 0,5.08 -13.5,0 0,14.55 -13.5,0 0,3.75 -13.51,0 0,6.57 -13.5,0 0,12.36 -13.51,0 0,5.89 -13.5,0 0,9.1 -13.5,0 0,9.25 -13.51,0 0,11.55 -13.5,0 0,16.18 -13.51,0 0,18.51 -13.5,0 0,35.85 -13.5,0 0,3.28 z" /><path
           inkscape:connector-curvature="0"
           id="path17553"
           style="fill:none;stroke:#d23737;stroke-width:1.07000005;stroke-linecap:butt;stroke-linejoin:round;stroke-miterlimit:1;stroke-dasharray:none;stroke-opacity:1"
           d="m 68.44,74.62 13.51,0 0,-6.03 13.5,0 0,-6.68 13.5,0 0,-0.59 13.51,0 0,-3.18 13.5,0 0,2.57 13.51,0 0,-1.87 13.5,0 0,-2.04 13.5,0 0,-0.76 13.51,0 0,1.66 13.5,0 0,1.24 13.51,0 0,3.79 13.5,0 0,0.12 13.5,0 0,4.83 13.51,0 0,0.83 13.5,0 0,0.58 13.51,0 0,4.18 13.5,0 0,5.08 13.5,0 0,4.6 13.51,0 0,1.99 13.5,0 0,5.2 13.51,0 0,1.11 13.5,0 0,-1.76 13.5,0 0,29.09 13.51,0 0,12.81" /><path
           inkscape:connector-curvature="0"
           id="path17557"
           style="fill:none;stroke:#000000;stroke-width:3.20000005;stroke-linecap:butt;stroke-linejoin:miter;stroke-miterlimit:10;stroke-dasharray:none;stroke-opacity:1"
           d="m 68.44,88.35 13.51,0 0,-5.53 13.5,0 0,-5.27 13.5,0 0,-1.88 13.51,0 0,-4.01 13.5,0 0,0.34 13.51,0 0,-1.57 13.5,0 0,-1.93 13.5,0 0,0.04 13.51,0 0,-1 13.5,0 0,0.98 13.51,0 0,3.65 13.5,0 0,-1.85 13.5,0 0,4.25 13.51,0 0,0.34 13.5,0 0,1.11 13.51,0 0,-1.2 13.5,0 0,-5.99 13.5,0 0,-7.97 13.51,0 0,-7.22 13.5,0 0,-5.94 13.51,0 0,-1.35 13.5,0 0,-4.29 13.5,0 0,0.77 13.51,0 0,0.65" /><path
           inkscape:connector-curvature="0"
           id="path17555"
           style="fill:none;stroke:#3191c9;stroke-width:1.07000005;stroke-linecap:butt;stroke-linejoin:round;stroke-miterlimit:1;stroke-dasharray:none;stroke-opacity:1"
           d="m 81.95,254.93 13.5,0 0,-35.39 13.5,0 0,-18.34 13.51,0 0,-15.89 13.5,0 0,-11.38 13.51,0 0,-9.18 13.5,0 0,-8.98 13.5,0 0,-5.98 13.51,0 0,-12.01 13.5,0 0,-6.63 13.51,0 0,-4.02 13.5,0 0,-14.19 13.5,0 0,-5.4 13.51,0 0,-9.31 13.5,0 0,-6.85 13.51,0 0,-14.42 13.5,0 0,-14.43 13.5,0 0,-8.2 13.51,0 0,-4.77 13.5,0 0,-5.56 13.51,0 0,0.31 13.5,0 0,-3.37 13.5,0 0,-0.08 13.51,0 0,1.34" /></g></g><g
       id="g17453" /><g
       id="g17455" /><g
       id="g17457" /><g
       id="g17459" /><g
       id="g17461" /><g
       id="g17463" /><g
       id="g17465" /><g
       id="g17467" /><g
       id="g17469" /><g
       id="g17471" /><g
       id="g17473" /><g
       id="g17475" /><g
       id="g17477" /><g
       id="g17479" /><g
       id="g17659" /><g
       id="g17661" /><g
       id="g17663" /><g
       id="g17665" /><g
       id="g17667" /><g
       id="g17669"><text
         id="text17671"
         style="font-variant:normal;font-weight:normal;font-size:10px;font-family:Roboto;-inkscape-font-specification:Roboto;writing-mode:lr-tb;fill:#000000;fill-opacity:1;fill-rule:nonzero;stroke:none"
         transform="scale(1,-1)"
         x="47.731915"
         y="-38.360001"><tspan
           id="tspan17673"
           sodipodi:role="line"
           y="-38.360001"
           x="47.731915">1</tspan></text>
<text
         id="text17675"
         style="font-variant:normal;font-weight:normal;font-size:10px;font-family:Roboto;-inkscape-font-specification:Roboto;writing-mode:lr-tb;fill:#000000;fill-opacity:1;fill-rule:nonzero;stroke:none"
         transform="scale(1,-1)"
         x="40.617657"
         y="-91.400002"><tspan
           id="tspan17677"
           sodipodi:role="line"
           y="-91.400002"
           x="40.617657">10</tspan></text>
<text
         id="text17679"
         style="font-variant:normal;font-weight:normal;font-size:10px;font-family:Roboto;-inkscape-font-specification:Roboto;writing-mode:lr-tb;fill:#000000;fill-opacity:1;fill-rule:nonzero;stroke:none"
         transform="scale(1,-1)"
         x="34.992657"
         y="-144.45"><tspan
           id="tspan17681"
           sodipodi:role="line"
           y="-144.45"
           x="34.992657">100</tspan></text>
<text
         id="text17683"
         style="font-variant:normal;font-weight:normal;font-size:10px;font-family:Roboto;-inkscape-font-specification:Roboto;writing-mode:lr-tb;fill:#000000;fill-opacity:1;fill-rule:nonzero;stroke:none"
         transform="scale(1,-1)"
         x="27.395"
         y="-197.5"><tspan
           id="tspan17685"
           sodipodi:role="line"
           y="-197.5"
           x="27.395">1,000</tspan></text>
<text
         id="text17687"
         style="font-variant:normal;font-weight:normal;font-size:10px;font-family:Roboto;-inkscape-font-specification:Roboto;writing-mode:lr-tb;fill:#000000;fill-opacity:1;fill-rule:nonzero;stroke:none"
         transform="matrix(1,0,0,-1,21.77,250.54)"><tspan
           id="tspan17689"
           sodipodi:role="line"
           y="0"
           x="0">10,000</tspan></text>
</g><g
       id="g17691" /><g
       id="g17693" /><g
       id="g17695" /><g
       id="g17697" /><g
       id="g17699" /><g
       id="g17701" /><g
       id="g17703" /><g
       id="g17705" /><g
       id="g17707" /><g
       id="g17709" /><g
       id="g17711" /><g
       id="g17713"><text
         id="text17715"
         style="font-variant:normal;font-weight:normal;font-size:10px;font-family:Roboto;-inkscape-font-specification:Roboto;writing-mode:lr-tb;fill:#000000;fill-opacity:1;fill-rule:nonzero;stroke:none"
         transform="matrix(1,0,0,-1,62.88,21.77)"><tspan
           id="tspan17717"
           sodipodi:role="line"
           y="0"
           x="0">23</tspan></text>
<text
         id="text17723"
         style="font-variant:normal;font-weight:normal;font-size:10px;font-family:Roboto;-inkscape-font-specification:Roboto;writing-mode:lr-tb;fill:#000000;fill-opacity:1;fill-rule:nonzero;stroke:none"
         transform="matrix(1,0,0,-1,89.89,21.77)"><tspan
           id="tspan17725"
           sodipodi:role="line"
           y="0"
           x="0">25</tspan></text>
<text
         id="text17743"
         style="font-variant:normal;font-weight:normal;font-size:10px;font-family:Roboto;-inkscape-font-specification:Roboto;writing-mode:lr-tb;fill:#000000;fill-opacity:1;fill-rule:nonzero;stroke:none"
         transform="matrix(1,0,0,-1,157.41,21.77)"><tspan
           id="tspan17745"
           sodipodi:role="line"
           y="0"
           x="0">30</tspan></text>
<text
         id="text17763"
         style="font-variant:normal;font-weight:normal;font-size:10px;font-family:Roboto;-inkscape-font-specification:Roboto;writing-mode:lr-tb;fill:#000000;fill-opacity:1;fill-rule:nonzero;stroke:none"
         transform="matrix(1,0,0,-1,224.93,21.77)"><tspan
           id="tspan17765"
           sodipodi:role="line"
           y="0"
           x="0">35</tspan></text>
<text
         id="text17783"
         style="font-variant:normal;font-weight:normal;font-size:10px;font-family:Roboto;-inkscape-font-specification:Roboto;writing-mode:lr-tb;fill:#000000;fill-opacity:1;fill-rule:nonzero;stroke:none"
         transform="matrix(1,0,0,-1,292.45,21.77)"><tspan
           id="tspan17785"
           sodipodi:role="line"
           y="0"
           x="0">40</tspan></text>
<text
         id="text17803"
         style="font-variant:normal;font-weight:normal;font-size:10px;font-family:Roboto;-inkscape-font-specification:Roboto;writing-mode:lr-tb;fill:#000000;fill-opacity:1;fill-rule:nonzero;stroke:none"
         transform="matrix(1,0,0,-1,359.97,21.77)"><tspan
           id="tspan17805"
           sodipodi:role="line"
           y="0"
           x="0">45</tspan></text>
<text
         id="text17811"
         style="font-variant:normal;font-weight:normal;font-size:10px;font-family:Roboto;-inkscape-font-specification:Roboto;writing-mode:lr-tb;fill:#000000;fill-opacity:1;fill-rule:nonzero;stroke:none"
         transform="matrix(1,0,0,-1,386.98,21.77)"><tspan
           id="tspan17813"
           sodipodi:role="line"
           y="0"
           x="0">47</tspan></text>
</g><g
       id="g17815" /><g
       id="g17817" /><g
       id="g17819" /><g
       id="g17821"><text
         id="text17823"
         style="font-variant:normal;font-weight:normal;font-size:12px;font-family:Roboto;-inkscape-font-specification:Roboto;writing-mode:lr-tb;fill:#000000;fill-opacity:1;fill-rule:nonzero;stroke:none"
         transform="matrix(1,0,0,-1,163.3,8.37)"><tspan
           id="tspan17825"
           sodipodi:role="line"
           y="0"
           x="0">Weeks of gestational age</tspan></text>
</g><g
       id="g17827" /><g
       id="g17829" /><g
       id="g17835" /><g
       id="g17837" /><g
       id="g17839" /><g
       id="g17841" /><g
       transform="translate(0.19598734,-0.13124455)"
       id="g23298" /><g
       transform="translate(0.19598734,-0.13124455)"
       id="g23300" /><g
       transform="translate(0.19598734,-0.13124455)"
       id="g23302" /><g
       transform="translate(0.19598734,-0.13124455)"
       id="g23304" /><g
       transform="translate(0.19598734,-0.13124455)"
       id="g23306" /><g
       transform="translate(0.19598734,-0.13124455)"
       id="g23308" /><g
       transform="translate(0.19598734,-0.13124455)"
       id="g23310" /><g
       transform="translate(0.19598734,-0.13124455)"
       id="g23312" /><g
       transform="translate(0.19598734,-0.13124455)"
       id="g23314" /><g
       transform="translate(0.19598734,-0.13124455)"
       id="g23316" /><g
       transform="translate(0.19598734,-0.13124455)"
       id="g23318" /><g
       transform="translate(0.19598734,-0.13124455)"
       id="g23320" /><g
       transform="translate(0.19598734,-0.13124455)"
       id="g23322" /><g
       transform="translate(0.19598734,-0.13124455)"
       id="g23324" /><g
       transform="translate(0.19598734,-0.13124455)"
       id="g23442" /><g
       transform="translate(0.19598734,-0.13124455)"
       id="g23444" /><g
       transform="translate(0.19598734,-0.13124455)"
       id="g23446" /><g
       transform="translate(0.19598734,-0.13124455)"
       id="g23448" /><g
       transform="translate(0.19598734,-0.13124455)"
       id="g23450" /><g
       transform="translate(0.19598734,-0.13124455)"
       id="g23474" /><g
       transform="translate(0.19598734,-0.13124455)"
       id="g23476" /><g
       transform="translate(0.19598734,-0.13124455)"
       id="g23478" /><g
       transform="translate(0.19598734,-0.13124455)"
       id="g23480" /><g
       transform="translate(0.19598734,-0.13124455)"
       id="g23482" /><g
       transform="translate(0.19598734,-0.13124455)"
       id="g23484" /><g
       transform="translate(0.19598734,-0.13124455)"
       id="g23486" /><g
       transform="translate(0.19598734,-0.13124455)"
       id="g23488" /><g
       transform="translate(0.19598734,-0.13124455)"
       id="g23490" /><g
       transform="translate(0.19598734,-0.13124455)"
       id="g23492" /><g
       transform="translate(0.19598734,-0.13124455)"
       id="g23494" /><g
       transform="translate(0.19598734,-0.13124455)"
       id="g23598" /><g
       transform="translate(0.19598734,-0.13124455)"
       id="g23600" /><g
       transform="translate(0.19598734,-0.13124455)"
       id="g23602" /><g
       transform="translate(0.19598734,-0.13124455)"
       id="g23610" /><g
       transform="translate(0.19598734,-0.13124455)"
       id="g23618" /><g
       transform="translate(0.19598734,-0.13124455)"
       id="g23620" /><g
       transform="translate(0.19598734,-0.13124455)"
       id="g23622" /><g
       transform="translate(0.19598734,-0.13124455)"
       id="g23624" /><text
       y="-39.115761"
       x="410.73914"
       id="text17671-4"
       style="font-variant:normal;font-weight:normal;font-size:10px;font-family:Roboto;-inkscape-font-specification:Roboto;writing-mode:lr-tb;fill:#000000;fill-opacity:1;fill-rule:nonzero;stroke:none"
       transform="scale(1,-1)"><tspan
         id="tspan17673-4"
         sodipodi:role="line"
         y="-39.115761"
         x="410.73914">0</tspan></text>
<text
       y="-92.155769"
       x="410.73914"
       id="text17675-4"
       style="font-variant:normal;font-weight:normal;font-size:10px;font-family:Roboto;-inkscape-font-specification:Roboto;writing-mode:lr-tb;fill:#000000;fill-opacity:1;fill-rule:nonzero;stroke:none"
       transform="scale(1,-1)"><tspan
         id="tspan17677-4"
         sodipodi:role="line"
         y="-92.155769"
         x="410.73914">25</tspan></text>
<text
       y="-145.20576"
       x="410.73914"
       id="text17679-7"
       style="font-variant:normal;font-weight:normal;font-size:10px;font-family:Roboto;-inkscape-font-specification:Roboto;writing-mode:lr-tb;fill:#000000;fill-opacity:1;fill-rule:nonzero;stroke:none"
       transform="scale(1,-1)"><tspan
         id="tspan17681-6"
         sodipodi:role="line"
         y="-145.20576"
         x="410.73914">50</tspan></text>
<text
       y="-198.25575"
       x="410.73914"
       id="text17683-3"
       style="font-variant:normal;font-weight:normal;font-size:10px;font-family:Roboto;-inkscape-font-specification:Roboto;writing-mode:lr-tb;fill:#000000;fill-opacity:1;fill-rule:nonzero;stroke:none"
       transform="scale(1,-1)"><tspan
         id="tspan17685-1"
         sodipodi:role="line"
         y="-198.25575"
         x="410.73914">75</tspan></text>
<text
       y="-251.29576"
       x="410.73914"
       id="text17687-7"
       style="font-variant:normal;font-weight:normal;font-size:10px;font-family:Roboto;-inkscape-font-specification:Roboto;writing-mode:lr-tb;fill:#000000;fill-opacity:1;fill-rule:nonzero;stroke:none"
       transform="scale(1,-1)"><tspan
         id="tspan17689-5"
         sodipodi:role="line"
         y="-251.29576"
         x="410.73914">100</tspan></text>
<text
       xml:space="preserve"
       style="font-style:normal;font-variant:normal;font-weight:normal;font-stretch:normal;font-size:10px;line-height:100%;font-family:Roboto;-inkscape-font-specification:Roboto;text-align:center;letter-spacing:0px;word-spacing:0px;text-anchor:middle;fill:#000000;fill-opacity:1;stroke:none;stroke-width:1px;stroke-linecap:butt;stroke-linejoin:miter;stroke-opacity:1"
       x="35.688457"
       y="-276.82349"
       id="text7319"
       sodipodi:linespacing="100%"
       transform="scale(1,-1)"><tspan
         sodipodi:role="line"
         x="35.688457"
         y="-276.82349"
         id="tspan7323">Deaths per 10,000</tspan><tspan
         sodipodi:role="line"
         x="35.688457"
         y="-266.82349"
         id="tspan7327">person-weeks</tspan></text>
<text
       xml:space="preserve"
       style="font-style:normal;font-weight:normal;font-size:10px;line-height:125%;font-family:sans-serif;text-align:center;letter-spacing:0px;word-spacing:0px;text-anchor:middle;fill:#000000;fill-opacity:1;stroke:none;stroke-width:1px;stroke-linecap:butt;stroke-linejoin:miter;stroke-opacity:1"
       x="414"
       y="-272.89389"
       id="text25596"
       sodipodi:linespacing="125%"
       transform="scale(1,-1)"><tspan
         sodipodi:role="line"
         id="tspan25598"
         x="414"
         y="-272.89389">% born</tspan></text>
</g></svg>