<?xml version="1.0" encoding="UTF-8" standalone="no"?>
<!-- Created with Inkscape (http://www.inkscape.org/) -->

<svg
   xmlns:dc="http://purl.org/dc/elements/1.1/"
   xmlns:cc="http://creativecommons.org/ns#"
   xmlns:rdf="http://www.w3.org/1999/02/22-rdf-syntax-ns#"
   xmlns:svg="http://www.w3.org/2000/svg"
   xmlns="http://www.w3.org/2000/svg"
   xmlns:sodipodi="http://sodipodi.sourceforge.net/DTD/sodipodi-0.dtd"
   xmlns:inkscape="http://www.inkscape.org/namespaces/inkscape"
   id="svg7044"
   version="1.1"
   inkscape:version="0.91 r13725"
   xml:space="preserve"
   width="525.67859"
   height="467.41104"
   viewBox="0 0 525.67859 467.41104"
   sodipodi:docname="plot_ilt_doc2009_linear.svg"><sodipodi:namedview
     pagecolor="#ffffff"
     bordercolor="#666666"
     borderopacity="1"
     objecttolerance="10"
     gridtolerance="10"
     guidetolerance="10"
     inkscape:pageopacity="0"
     inkscape:pageshadow="2"
     inkscape:window-width="1920"
     inkscape:window-height="1056"
     id="namedview7046"
     showgrid="false"
     inkscape:zoom="1.4833529"
     inkscape:cx="252.93835"
     inkscape:cy="244.70412"
     inkscape:window-x="0"
     inkscape:window-y="24"
     inkscape:window-maximized="1"
     inkscape:current-layer="g7052"
     fit-margin-top="0"
     fit-margin-left="0"
     fit-margin-right="0"
     fit-margin-bottom="0" /><metadata
     id="metadata7050"><rdf:RDF><cc:Work
         rdf:about=""><dc:format>image/svg+xml</dc:format><dc:type
           rdf:resource="http://purl.org/dc/dcmitype/StillImage" /><dc:title></dc:title></cc:Work></rdf:RDF></metadata><defs
     id="defs7048"><clipPath
       id="clipPath7078"
       clipPathUnits="userSpaceOnUse"><path
         inkscape:connector-curvature="0"
         id="path7080"
         d="m 29.69,0 444.61,0 0,360 -444.61,0 0,-360 z" /></clipPath><clipPath
       id="clipPath7092"
       clipPathUnits="userSpaceOnUse"><path
         inkscape:connector-curvature="0"
         id="path7094"
         d="m 64.97,31.34 403.36,0 0,322.68 -403.36,0 0,-322.68 z" /></clipPath></defs><g
     transform="matrix(1.25,0,0,-1.25,-59.733896,474.67285)"
     inkscape:label="plot_ilt_doc2009_linear"
     inkscape:groupmode="layer"
     id="g7052"><g
       id="g7054" /><g
       id="g7056" /><g
       id="g7058" /><g
       id="g7060" /><g
       id="g7062" /><g
       id="g7064" /><g
       id="g7066" /><g
       id="g7068" /><g
       id="g7070" /><g
       id="g7072" /><g
       id="g7074"><g
         clip-path="url(#clipPath7078)"
         id="g7076" /></g><g
       id="g7082" /><g
       id="g7084" /><g
       id="g7086" /><g
       id="g7088"><g
         clip-path="url(#clipPath7092)"
         id="g7090"><path
           inkscape:connector-curvature="0"
           id="path7096"
           style="fill:none;stroke:#e5e5e5;stroke-width:1.07000005;stroke-linecap:butt;stroke-linejoin:round;stroke-miterlimit:10;stroke-dasharray:none;stroke-opacity:1"
           d="m 64.97,45.98 403.36,0" /><path
           inkscape:connector-curvature="0"
           id="path7098"
           style="fill:none;stroke:#e5e5e5;stroke-width:1.07000005;stroke-linecap:butt;stroke-linejoin:round;stroke-miterlimit:10;stroke-dasharray:none;stroke-opacity:1"
           d="m 64.97,75.31 403.36,0" /><path
           inkscape:connector-curvature="0"
           id="path7100"
           style="fill:none;stroke:#e5e5e5;stroke-width:1.07000005;stroke-linecap:butt;stroke-linejoin:round;stroke-miterlimit:10;stroke-dasharray:none;stroke-opacity:1"
           d="m 64.97,339.35 403.36,0" /><path
           inkscape:connector-curvature="0"
           id="path7102"
           style="fill:none;stroke:#e5e5e5;stroke-width:1.07000005;stroke-linecap:butt;stroke-linejoin:round;stroke-miterlimit:10;stroke-dasharray:none;stroke-opacity:1"
           d="m 83.31,31.34 0,322.68" /><path
           inkscape:connector-curvature="0"
           id="path7104"
           style="fill:none;stroke:#e5e5e5;stroke-width:1.07000005;stroke-linecap:butt;stroke-linejoin:round;stroke-miterlimit:10;stroke-dasharray:none;stroke-opacity:1"
           d="m 113.53,31.34 0,322.68" /><path
           inkscape:connector-curvature="0"
           id="path7106"
           style="fill:none;stroke:#e5e5e5;stroke-width:1.07000005;stroke-linecap:butt;stroke-linejoin:round;stroke-miterlimit:10;stroke-dasharray:none;stroke-opacity:1"
           d="m 143.75,31.34 0,322.68" /><path
           inkscape:connector-curvature="0"
           id="path7108"
           style="fill:none;stroke:#e5e5e5;stroke-width:1.07000005;stroke-linecap:butt;stroke-linejoin:round;stroke-miterlimit:10;stroke-dasharray:none;stroke-opacity:1"
           d="m 173.97,31.34 0,322.68" /><path
           inkscape:connector-curvature="0"
           id="path7110"
           style="fill:none;stroke:#e5e5e5;stroke-width:1.07000005;stroke-linecap:butt;stroke-linejoin:round;stroke-miterlimit:10;stroke-dasharray:none;stroke-opacity:1"
           d="m 204.19,31.34 0,322.68" /><path
           inkscape:connector-curvature="0"
           id="path7112"
           style="fill:none;stroke:#e5e5e5;stroke-width:1.07000005;stroke-linecap:butt;stroke-linejoin:round;stroke-miterlimit:10;stroke-dasharray:none;stroke-opacity:1"
           d="m 234.41,31.34 0,322.68" /><path
           inkscape:connector-curvature="0"
           id="path7114"
           style="fill:none;stroke:#e5e5e5;stroke-width:1.07000005;stroke-linecap:butt;stroke-linejoin:round;stroke-miterlimit:10;stroke-dasharray:none;stroke-opacity:1"
           d="m 264.64,31.34 0,322.68" /><path
           inkscape:connector-curvature="0"
           id="path7116"
           style="fill:none;stroke:#e5e5e5;stroke-width:1.07000005;stroke-linecap:butt;stroke-linejoin:round;stroke-miterlimit:10;stroke-dasharray:none;stroke-opacity:1"
           d="m 294.86,31.34 0,322.68" /><path
           inkscape:connector-curvature="0"
           id="path7118"
           style="fill:none;stroke:#e5e5e5;stroke-width:1.07000005;stroke-linecap:butt;stroke-linejoin:round;stroke-miterlimit:10;stroke-dasharray:none;stroke-opacity:1"
           d="m 325.08,31.34 0,322.68" /><path
           inkscape:connector-curvature="0"
           id="path7120"
           style="fill:none;stroke:#e5e5e5;stroke-width:1.07000005;stroke-linecap:butt;stroke-linejoin:round;stroke-miterlimit:10;stroke-dasharray:none;stroke-opacity:1"
           d="m 355.3,31.34 0,322.68" /><path
           inkscape:connector-curvature="0"
           id="path7122"
           style="fill:none;stroke:#e5e5e5;stroke-width:1.07000005;stroke-linecap:butt;stroke-linejoin:round;stroke-miterlimit:10;stroke-dasharray:none;stroke-opacity:1"
           d="m 385.52,31.34 0,322.68" /><path
           inkscape:connector-curvature="0"
           id="path7124"
           style="fill:none;stroke:#e5e5e5;stroke-width:1.07000005;stroke-linecap:butt;stroke-linejoin:round;stroke-miterlimit:10;stroke-dasharray:none;stroke-opacity:1"
           d="m 415.74,31.34 0,322.68" /><path
           inkscape:connector-curvature="0"
           id="path7126"
           style="fill:none;stroke:#e5e5e5;stroke-width:1.07000005;stroke-linecap:butt;stroke-linejoin:round;stroke-miterlimit:10;stroke-dasharray:none;stroke-opacity:1"
           d="m 445.96,31.34 0,322.68" /><path
           inkscape:connector-curvature="0"
           id="path7128"
           style="fill:#bdbdbd;fill-opacity:1;fill-rule:nonzero;stroke:none"
           d="m 84.31,360 0,-253.88 1.01,0 0,-7.07 1.01,0 0,-18.28 1.01,0 0,-5.93 1,0 0,-4.72 1.01,0 0,-1.25 1.01,0 0,-2.25 1.01,0 0,-3.68 1,0 0,1.57 1.01,0 0,0.94 1.01,0 0,-1.88 1.01,0 0,-2.12 1,0 0,-2.05 1.01,0 0,-0.64 1.01,0 0,-0.24 1,0 0,2.3 1.01,0 0,-5.33 1.01,0 0,0.88 1.01,0 0,0.4 1,0 0,0 1.01,0 0,-0.72 1.01,0 0,-0.08 1.01,0 0,0.16 1,0 0,-0.8 1.01,0 0,-0.4 1.01,0 0,2.72 1.01,0 0,-3.53 1,0 0,1.29 1.01,0 0,-0.48 1.01,0 0,-0.08 1.01,0 0,-1.05 1,0 0,0.08 1.01,0 0,-0.73 1.01,0 0,-0.66 1,0 0,0.66 1.01,0 0,-0.33 1.01,0 0,0.08 1.01,0 0,-0.41 1,0 0,0 1.01,0 0,-0.74 1.01,0 0,0.09 1.01,0 0,1.47 1,0 0,-0.24 1.01,0 0,0.24 1.01,0 0,-0.57 1.01,0 0,-0.9 1,0 0,-0.17 1.01,0 0,-0.33 1.01,0 0,0.33 1.01,0 0,-0.16 1,0 0,0.49 1.01,0 0,0.58 1.01,0 0,-1.32 1.01,0 0,0.58 1,0 0,-0.67 1.01,0 0,0.5 1.01,0 0,0.99 1,0 0,-0.91 1.01,0 0,-1.24 1.01,0 0,1.08 1.01,0 0,-0.33 1,0 0,-0.67 1.01,0 0,0.42 1.01,0 0,-0.59 1.01,0 0,1.17 1,0 0,-1.42 1.01,0 0,0.42 1.01,0 0,0.33 1.01,0 0,0.75 1,0 0,-0.41 1.01,0 0,-1.01 1.01,0 0,1.01 1.01,0 0,-0.34 1,0 0,-1.17 1.01,0 0,0.92 1.01,0 0,-1.01 1,0 0,1.1 1.01,0 0,-0.42 1.01,0 0,-0.25 1.01,0 0,0.5 1,0 0,-0.84 1.01,0 0,0.84 1.01,0 0,-0.08 1.01,0 0,-0.34 1,0 0,0.34 1.01,0 0,0.67 1.01,0 0,-0.67 1.01,0 0,0.25 1,0 0,0 1.01,0 0,-1.36 1.01,0 0,0 1.01,0 0,1.53 1,0 0,-0.84 1.01,0 0,0.75 1.01,0 0,-0.5 1.01,0 0,-0.17 1,0 0,0.25 1.01,0 0,-1.36 1.01,0 0,1.28 1,0 0,0.34 1.01,0 0,-1.62 1.01,0 0,0.43 1.01,0 0,-0.52 1,0 0,1.45 1.01,0 0,0.59 1.01,0 0,-1.95 1.01,0 0,0.35 1,0 0,-0.26 1.01,0 0,0.26 1.01,0 0,-0.26 1.01,0 0,0 1,0 0,0.51 1.01,0 0,-0.6 1.01,0 0,-0.35 1.01,0 0,0.7 1,0 0,0.68 1.01,0 0,-1.2 1.01,0 0,-0.09 1,0 0,0.43 1.01,0 0,0.26 1.01,0 0,-1.4 1.01,0 0,1.14 1,0 0,0.09 1.01,0 0,-0.09 1.01,0 0,-0.26 1.01,0 0,-0.26 1,0 0,0.52 1.01,0 0,-0.87 1.01,0 0,0.18 1.01,0 0,0.09 1,0 0,0.52 1.01,0 0,-0.35 1.01,0 0,-0.17 1.01,0 0,1.03 1,0 0,-0.51 1.01,0 0,-0.7 1.01,0 0,0.26 1.01,0 0,0.78 1,0 0,-1.04 1.01,0 0,0 1.01,0 0,-0.63 1,0 0,0.81 1.01,0 0,-0.27 1.01,0 0,0.35 1.01,0 0,0.61 1,0 0,-1.23 1.01,0 0,0.18 1.01,0 0,-0.36 1.01,0 0,-0.18 1,0 0,0.45 1.01,0 0,-0.27 1.01,0 0,0.27 1.01,0 0,-0.63 1,0 0,0.72 1.01,0 0,0.88 1.01,0 0,-0.88 1.01,0 0,0.44 1,0 0,-0.62 1.01,0 0,0.45 1.01,0 0,0.17 1.01,0 0,-1.26 1,0 0,1.53 1.01,0 0,-0.98 1.01,0 0,0 1,0 0,0.54 1.01,0 0,-0.9 1.01,0 0,0.36 1.01,0 0,0.36 1,0 0,0.44 1.01,0 0,-0.62 1.01,0 0,0 1.01,0 0,0.09 1,0 0,-0.63 1.01,0 0,0.09 1.01,0 0,0.36 1.01,0 0,-0.92 1,0 0,0.38 1.01,0 0,0.63 1.01,0 0,-0.63 1.01,0 0,0.72 1,0 0,-0.36 1.01,0 0,-0.36 1.01,0 0,0.36 1,0 0,-0.27 1.01,0 0,-0.38 1.01,0 0,0.74 1.01,0 0,-0.45 1,0 0,0.63 1.01,0 0,0.27 1.01,0 0,-0.63 1.01,0 0,0.18 1,0 0,-0.27 1.01,0 0,0.27 1.01,0 0,-0.45 1.01,0 0,0.27 1,0 0,-0.18 1.01,0 0,-0.47 1.01,0 0,1.19 1.01,0 0,-1 1,0 0,0.19 1.01,0 0,-0.68 1.01,0 0,1.13 1.01,0 0,-0.36 1,0 0,0.18 1.01,0 0,-0.18 1.01,0 0,0 1,0 0,0.09 1.01,0 0,-0.56 1.01,0 0,0.47 1.01,0 0,-0.19 1,0 0,0.91 1.01,0 0,-0.91 1.01,0 0,-0.38 1.01,0 0,0.84 1,0 0,-0.55 1.01,0 0,0.09 1.01,0 0,-0.09 1.01,0 0,-0.1 1,0 0,-0.19 1.01,0 0,0.38 1.01,0 0,0.1 1.01,0 0,-0.29 1,0 0,0.38 1.01,0 0,-0.77 1.01,0 0,0.58 1,0 0,-0.09 1.01,0 0,0 1.01,0 0,0 1.01,0 0,-0.1 1,0 0,0.1 1.01,0 0,0.55 1.01,0 0,-0.55 1.01,0 0,-0.19 1,0 0,0.09 1.01,0 0,0.56 1.01,0 0,-0.46 1.01,0 0,-0.8 1,0 0,1.08 1.01,0 0,-0.57 1.01,0 0,0 1.01,0 0,0.38 1,0 0,0.1 1.01,0 0,-0.58 1.01,0 0,0.1 1.01,0 0,0 1,0 0,-0.1 1.01,0 0,-0.2 1.01,0 0,0.59 1,0 0,0.19 1.01,0 0,-0.29 1.01,0 0,0 1.01,0 0,-0.49 1,0 0,0.3 1.01,0 0,0.29 1.01,0 0,-0.1 1.01,0 0,-0.19 1,0 0,0.1 1.01,0 0,-0.1 1.01,0 0,-0.2 1.01,0 0,-0.31 1,0 0,0.21 1.01,0 0,-0.21 1.01,0 0,0.21 1.01,0 0,0.3 1,0 0,-0.3 1.01,0 0,0 1.01,0 0,-0.21 1,0 0,0.51 1.01,0 0,-0.2 1.01,0 0,0.3 1.01,0 0,0.09 1,0 0,-0.29 1.01,0 0,0.85 1.01,0 0,-0.95 1.01,0 0,0.1 1,0 0,-0.2 1.01,0 0,0.2 1.01,0 0,0.2 1.01,0 0,-0.4 1,0 0,0.1 1.01,0 0,-0.2 1.01,0 0,-0.22 1.01,0 0,0.81 1,0 0,-0.09 1.01,0 0,-0.1 1.01,0 0,-0.51 1.01,0 0,0.31 1,0 0,-0.1 1.01,0 0,0.1 1.01,0 0,0.1 1,0 0,-0.1 1.01,0 0,-0.2 1.01,0 0,-0.22 1.01,0 0,1.1 1,0 0,-0.19 1.01,0 0,-0.69 1.01,0 0,0.1 1.01,0 0,0.1 1,0 0,-0.2 1.01,0 0,0.1 1.01,0 0,0 1.01,0 0,0 1,0 0,-0.21 1.01,0 0,0.21 1.01,0 0,0.3 1.01,0 0,-0.3 1,0 0,0.3 1.01,0 0,-0.3 1.01,0 0,0.2 1.01,0 0,-0.1 1,0 0,0 1.01,0 0,0.1 1.01,0 0,0.1 1,0 0,-0.3 1.01,0 0,-0.1 1.01,0 0,-0.11 1.01,0 0,-0.11 1,0 0,0.32 1.01,0 0,0.2 1.01,0 0,0.2 1.01,0 0,-0.72 1,0 0,0.52 1.01,0 0,-0.1 1.01,0 0,-0.1 1.01,0 0,0.2 1,0 0,-0.1 1.01,0 0,0 1.01,0 0,-0.2 1.01,0 0,-0.22 1,0 0,0.11 1.01,0 0,0.21 1.01,0 0,0.49 1,0 0,-0.39 1.01,0 0,-0.31 1.01,0 0,0.51 1.01,0 0,-0.2 1,0 0,-0.1 1.01,0 0,0.1 1.01,0 0,0.1 1.01,0 0,-0.52 1,0 0,0.52 1.01,0 0,0.29 1.01,0 0,-0.59 1.01,0 0,-0.22 1,0 0,0.91 1.01,0 0,-0.49 1.01,0 0,-0.31 1.01,0 0,0.11 1,0 0,0 1.01,0 0,0.5 1.01,0 0,-0.5 1.01,0 0,0.6 1,0 0,-0.4 1.01,0 0,-0.54 1.01,0 0,0.64 1,0 0,-0.3 1.01,0 0,0 1.01,0 0,0.5 1.01,0 0,-0.72 1,0 0,0.11 1.01,0 0,0.11 1.01,0 0,0 1.01,0 0,-0.22 1,0 0,0 0,-0.5 0,0 -1,0 0,0.07 -1.01,0 0,0 -1.01,0 0,-0.04 -1.01,0 0,-0.03 -1,0 0,0.31 -1.01,0 0,-0.24 -1.01,0 0,0 -1.01,0 0,0.14 -1,0 0,-0.24 -1.01,0 0,0.19 -1.01,0 0,0.2 -1,0 0,-0.29 -1.01,0 0,0.24 -1.01,0 0,-0.24 -1.01,0 0,0 -1,0 0,-0.04 -1.01,0 0,0.13 -1.01,0 0,0.25 -1.01,0 0,-0.41 -1,0 0,0.07 -1.01,0 0,0.29 -1.01,0 0,-0.15 -1.01,0 0,-0.21 -1,0 0,0.21 -1.01,0 0,-0.05 -1.01,0 0,-0.05 -1.01,0 0,0.05 -1,0 0,0.1 -1.01,0 0,-0.23 -1.01,0 0,0.13 -1.01,0 0,0.2 -1,0 0,-0.25 -1.01,0 0,-0.08 -1.01,0 0,-0.03 -1,0 0,0.07 -1.01,0 0,0.09 -1.01,0 0,0 -1.01,0 0,0.05 -1,0 0,-0.1 -1.01,0 0,0.05 -1.01,0 0,0.05 -1.01,0 0,-0.21 -1,0 0,0.31 -1.01,0 0,-0.1 -1.01,0 0,-0.1 -1.01,0 0,-0.11 -1,0 0,0.03 -1.01,0 0,0.04 -1.01,0 0,0.04 -1.01,0 0,0.15 -1,0 0,-0.05 -1.01,0 0,-0.05 -1.01,0 0,0 -1,0 0,0.05 -1.01,0 0,-0.1 -1.01,0 0,0.15 -1.01,0 0,-0.15 -1,0 0,0.15 -1.01,0 0,-0.15 -1.01,0 0,-0.08 -1.01,0 0,0.08 -1,0 0,0 -1.01,0 0,0 -1.01,0 0,-0.04 -1.01,0 0,0.09 -1,0 0,-0.05 -1.01,0 0,-0.04 -1.01,0 0,0.34 -1.01,0 0,0.11 -1,0 0,-0.52 -1.01,0 0,0.07 -1.01,0 0,0.09 -1.01,0 0,0.05 -1,0 0,-0.05 -1.01,0 0,-0.05 -1.01,0 0,0.05 -1,0 0,-0.13 -1.01,0 0,0.23 -1.01,0 0,0.05 -1.01,0 0,0.05 -1,0 0,-0.36 -1.01,0 0,0.07 -1.01,0 0,0.09 -1.01,0 0,-0.05 -1,0 0,0.2 -1.01,0 0,-0.1 -1.01,0 0,-0.1 -1.01,0 0,0.1 -1,0 0,-0.05 -1.01,0 0,0.52 -1.01,0 0,-0.47 -1.01,0 0,0.15 -1,0 0,-0.05 -1.01,0 0,-0.15 -1.01,0 0,0.1 -1.01,0 0,-0.23 -1,0 0,0.08 -1.01,0 0,0 -1.01,0 0,0.15 -1,0 0,-0.15 -1.01,0 0,-0.08 -1.01,0 0,0.08 -1.01,0 0,-0.08 -1,0 0,0.13 -1.01,0 0,0.1 -1.01,0 0,0.05 -1.01,0 0,-0.05 -1,0 0,0.1 -1.01,0 0,0.05 -1.01,0 0,-0.15 -1.01,0 0,-0.15 -1,0 0,0.25 -1.01,0 0,0 -1.01,0 0,0.16 -1.01,0 0,-0.11 -1,0 0,-0.3 -1.01,0 0,0.1 -1.01,0 0,0.05 -1,0 0,0 -1.01,0 0,-0.05 -1.01,0 0,0.31 -1.01,0 0,-0.06 -1,0 0,-0.2 -1.01,0 0,0 -1.01,0 0,0.31 -1.01,0 0,-0.54 -1,0 0,0.38 -1.01,0 0,0.27 -1.01,0 0,-0.32 -1.01,0 0,-0.05 -1,0 0,0.1 -1.01,0 0,0.33 -1.01,0 0,-0.33 -1.01,0 0,-0.05 -1,0 0,0.05 -1.01,0 0,0 -1.01,0 0,0 -1.01,0 0,0.05 -1,0 0,-0.3 -1.01,0 0,0.41 -1.01,0 0,-0.21 -1,0 0,0.16 -1.01,0 0,-0.06 -1.01,0 0,-0.2 -1.01,0 0,0.1 -1,0 0,0.05 -1.01,0 0,0.05 -1.01,0 0,-0.05 -1.01,0 0,0.33 -1,0 0,-0.48 -1.01,0 0,0.2 -1.01,0 0,0.57 -1.01,0 0,-0.57 -1,0 0,0.11 -1.01,0 0,-0.26 -1.01,0 0,0.32 -1.01,0 0,-0.06 -1,0 0,0 -1.01,0 0,0.11 -1.01,0 0,-0.11 -1,0 0,0.23 -1.01,0 0,-0.64 -1.01,0 0,0.36 -1.01,0 0,-0.11 -1,0 0,0.62 -1.01,0 0,-0.72 -1.01,0 0,0.26 -1.01,0 0,0.11 -1,0 0,-0.16 -1.01,0 0,0.28 -1.01,0 0,-0.17 -1.01,0 0,0.17 -1,0 0,-0.12 -1.01,0 0,0.41 -1.01,0 0,-0.18 -1.01,0 0,-0.39 -1,0 0,0.28 -1.01,0 0,-0.44 -1.01,0 0,0.21 -1.01,0 0,0.17 -1,0 0,-0.22 -1.01,0 0,0.22 -1.01,0 0,0.23 -1,0 0,-0.45 -1.01,0 0,0.39 -1.01,0 0,-0.39 -1.01,0 0,-0.21 -1,0 0,0.54 -1.01,0 0,-0.22 -1.01,0 0,-0.06 -1.01,0 0,0.4 -1,0 0,-0.06 -1.01,0 0,0 -1.01,0 0,0.41 -1.01,0 0,-0.29 -1,0 0,-0.23 -1.01,0 0,-0.23 -1.01,0 0,0.58 -1.01,0 0,-0.35 -1,0 0,0 -1.01,0 0,0.64 -1.01,0 0,-0.98 -1,0 0,0.8 -1.01,0 0,-0.12 -1.01,0 0,-0.29 -1.01,0 0,0.41 -1,0 0,-0.29 -1.01,0 0,0.6 -1.01,0 0,-0.6 -1.01,0 0,-0.45 -1,0 0,0.39 -1.01,0 0,-0.17 -1.01,0 0,0.17 -1.01,0 0,-0.28 -1,0 0,0.11 -1.01,0 0,0.23 -1.01,0 0,-0.12 -1.01,0 0,0.84 -1,0 0,-0.43 -1.01,0 0,-0.23 -1.01,0 0,0.17 -1.01,0 0,-0.52 -1,0 0,0.41 -1.01,0 0,0 -1.01,0 0,0.72 -1,0 0,-0.55 -1.01,0 0,-0.17 -1.01,0 0,0.48 -1.01,0 0,0.36 -1,0 0,-0.73 -1.01,0 0,0.12 -1.01,0 0,0.25 -1.01,0 0,-0.37 -1,0 0,-0.06 -1.01,0 0,-0.11 -1.01,0 0,0.6 -1.01,0 0,-0.37 -1,0 0,0.18 -1.01,0 0,0.19 -1.01,0 0,0.06 -1.01,0 0,-0.06 -1,0 0,-0.78 -1.01,0 0,0.96 -1.01,0 0,-0.18 -1.01,0 0,-0.31 -1,0 0,0.06 -1.01,0 0,0.86 -1.01,0 0,-0.49 -1,0 0,-0.49 -1.01,0 0,0.24 -1.01,0 0,0.43 -1.01,0 0,-0.36 -1,0 0,0 -1.01,0 0,0.18 -1.01,0 0,-0.18 -1.01,0 0,0.18 -1,0 0,-0.25 -1.01,0 0,1.44 -1.01,0 0,-0.44 -1.01,0 0,-1.06 -1,0 0,0.37 -1.01,0 0,-0.31 -1.01,0 0,1.19 -1.01,0 0,-0.26 -1,0 0,-0.93 -1.01,0 0,1 -1.01,0 0,-0.19 -1,0 0,0.12 -1.01,0 0,0.38 -1.01,0 0,-0.57 -1.01,0 0,0.64 -1,0 0,-1.13 -1.01,0 0,0 -1.01,0 0,1 -1.01,0 0,0 -1,0 0,-0.19 -1.01,0 0,0.51 -1.01,0 0,-0.51 -1.01,0 0,-0.25 -1,0 0,0.25 -1.01,0 0,0.06 -1.01,0 0,-0.63 -1.01,0 0,0.63 -1,0 0,-0.38 -1.01,0 0,0.19 -1.01,0 0,0.32 -1.01,0 0,-0.82 -1,0 0,0.75 -1.01,0 0,-0.69 -1.01,0 0,0.89 -1,0 0,0.25 -1.01,0 0,-0.76 -1.01,0 0,0.76 -1.01,0 0,0.32 -1,0 0,-0.57 -1.01,0 0,-0.26 -1.01,0 0,-0.31 -1.01,0 0,1.08 -1,0 0,-0.9 -1.01,0 0,0.45 -1.01,0 0,-0.32 -1.01,0 0,0.51 -1,0 0,0.26 -1.01,0 0,-0.83 -1.01,0 0,0.96 -1.01,0 0,0.71 -1,0 0,-0.78 -1.01,0 0,-0.38 -1.01,0 0,0.51 -1,0 0,-0.45 -1.01,0 0,1.03 -1.01,0 0,-0.45 -1.01,0 0,-0.39 -1,0 0,0.13 -1.01,0 0,-0.26 -1.01,0 0,0.26 -1.01,0 0,0.13 -1,0 0,0.71 -1.01,0 0,0.46 -1.01,0 0,-0.2 -1.01,0 0,0.2 -1,0 0,-1.17 -1.01,0 0,-0.07 -1.01,0 0,0.59 -1.01,0 0,0 -1,0 0,0.32 -1.01,0 0,-0.06 -1.01,0 0,0.26 -1.01,0 0,-0.52 -1,0 0,0.52 -1.01,0 0,0.59 -1.01,0 0,-0.07 -1,0 0,0.86 -1.01,0 0,0.07 -1.01,0 0,0.4 -1.01,0 0,-1.06 -1,0 0,2.93 -1.01,0 0,-2.27 -1.01,0 0,0.33 -1.01,0 0,0.67 -1,0 0,-0.14 -1.01,0 0,0.07 -1.01,0 0,0.6 -1.01,0 0,0 -1,0 0,-0.33 -1.01,0 0,-0.74 -1.01,0 0,4.52 -1.01,0 0,-1.97 -1,0 0,0.2 -1.01,0 0,0.55 -1.01,0 0,1.76 -1,0 0,1.85 -1.01,0 0,1.64 -1.01,0 0,-0.82 -1.01,0 0,-1.37 -1,0 0,3.22 -1.01,0 0,2 -1.01,0 0,1.11 -1.01,0 0,4.24 -1,0 0,5.37 -1.01,0 0,16.81 -1.01,0 0,6.57 -1.01,0 0,261.84 z" /><path
           inkscape:connector-curvature="0"
           id="path7130"
           style="fill:none;stroke:#000000;stroke-width:1.07000005;stroke-linecap:butt;stroke-linejoin:round;stroke-miterlimit:1;stroke-dasharray:none;stroke-opacity:1"
           d="m 84.31,360 0,-257.86 1.01,0 0,-6.82 1.01,0 0,-17.55 1.01,0 0,-5.65 1,0 0,-4.48 1.01,0 0,-1.17 1.01,0 0,-2.13 1.01,0 0,-3.45 1,0 0,1.47 1.01,0 0,0.88 1.01,0 0,-1.76 1.01,0 0,-1.98 1,0 0,-1.91 1.01,0 0,-0.59 1.01,0 0,-0.22 1,0 0,2.13 1.01,0 0,-4.92 1.01,0 0,0.81 1.01,0 0,0.36 1,0 0,0 1.01,0 0,-0.66 1.01,0 0,-0.07 1.01,0 0,0.15 1,0 0,-0.74 1.01,0 0,-0.37 1.01,0 0,2.5 1.01,0 0,-3.23 1,0 0,1.18 1.01,0 0,-0.45 1.01,0 0,-0.07 1.01,0 0,-0.95 1,0 0,0.07 1.01,0 0,-0.66 1.01,0 0,-0.59 1,0 0,0.59 1.01,0 0,-0.3 1.01,0 0,0.08 1.01,0 0,-0.37 1,0 0,0 1.01,0 0,-0.66 1.01,0 0,0.07 1.01,0 0,1.33 1,0 0,-0.22 1.01,0 0,0.22 1.01,0 0,-0.52 1.01,0 0,-0.81 1,0 0,-0.14 1.01,0 0,-0.3 1.01,0 0,0.3 1.01,0 0,-0.15 1,0 0,0.44 1.01,0 0,0.51 1.01,0 0,-1.17 1.01,0 0,0.51 1,0 0,-0.59 1.01,0 0,0.45 1.01,0 0,0.88 1,0 0,-0.81 1.01,0 0,-1.1 1.01,0 0,0.95 1.01,0 0,-0.29 1,0 0,-0.59 1.01,0 0,0.37 1.01,0 0,-0.52 1.01,0 0,1.03 1,0 0,-1.25 1.01,0 0,0.37 1.01,0 0,0.29 1.01,0 0,0.67 1,0 0,-0.37 1.01,0 0,-0.88 1.01,0 0,0.88 1.01,0 0,-0.29 1,0 0,-1.03 1.01,0 0,0.8 1.01,0 0,-0.88 1,0 0,0.96 1.01,0 0,-0.37 1.01,0 0,-0.22 1.01,0 0,0.44 1,0 0,-0.73 1.01,0 0,0.73 1.01,0 0,-0.07 1.01,0 0,-0.3 1,0 0,0.3 1.01,0 0,0.59 1.01,0 0,-0.59 1.01,0 0,0.22 1,0 0,0 1.01,0 0,-1.18 1.01,0 0,0 1.01,0 0,1.33 1,0 0,-0.74 1.01,0 0,0.66 1.01,0 0,-0.44 1.01,0 0,-0.15 1,0 0,0.22 1.01,0 0,-1.17 1.01,0 0,1.1 1,0 0,0.3 1.01,0 0,-1.4 1.01,0 0,0.37 1.01,0 0,-0.45 1,0 0,1.25 1.01,0 0,0.52 1.01,0 0,-1.69 1.01,0 0,0.29 1,0 0,-0.22 1.01,0 0,0.22 1.01,0 0,-0.22 1.01,0 0,0 1,0 0,0.44 1.01,0 0,-0.51 1.01,0 0,-0.3 1.01,0 0,0.59 1,0 0,0.59 1.01,0 0,-1.03 1.01,0 0,-0.07 1,0 0,0.36 1.01,0 0,0.23 1.01,0 0,-1.18 1.01,0 0,0.95 1,0 0,0.08 1.01,0 0,-0.08 1.01,0 0,-0.22 1.01,0 0,-0.22 1,0 0,0.45 1.01,0 0,-0.74 1.01,0 0,0.15 1.01,0 0,0.07 1,0 0,0.44 1.01,0 0,-0.29 1.01,0 0,-0.15 1.01,0 0,0.88 1,0 0,-0.44 1.01,0 0,-0.59 1.01,0 0,0.22 1.01,0 0,0.67 1,0 0,-0.89 1.01,0 0,0 1.01,0 0,-0.51 1,0 0,0.66 1.01,0 0,-0.22 1.01,0 0,0.29 1.01,0 0,0.52 1,0 0,-1.03 1.01,0 0,0.15 1.01,0 0,-0.3 1.01,0 0,-0.15 1,0 0,0.37 1.01,0 0,-0.22 1.01,0 0,0.22 1.01,0 0,-0.51 1,0 0,0.59 1.01,0 0,0.73 1.01,0 0,-0.73 1.01,0 0,0.36 1,0 0,-0.51 1.01,0 0,0.37 1.01,0 0,0.14 1.01,0 0,-1.03 1,0 0,1.25 1.01,0 0,-0.81 1.01,0 0,0 1,0 0,0.45 1.01,0 0,-0.74 1.01,0 0,0.29 1.01,0 0,0.3 1,0 0,0.37 1.01,0 0,-0.52 1.01,0 0,0 1.01,0 0,0.08 1,0 0,-0.52 1.01,0 0,0.07 1.01,0 0,0.3 1.01,0 0,-0.74 1,0 0,0.3 1.01,0 0,0.51 1.01,0 0,-0.51 1.01,0 0,0.59 1,0 0,-0.3 1.01,0 0,-0.29 1.01,0 0,0.29 1,0 0,-0.22 1.01,0 0,-0.29 1.01,0 0,0.58 1.01,0 0,-0.36 1,0 0,0.51 1.01,0 0,0.22 1.01,0 0,-0.51 1.01,0 0,0.14 1,0 0,-0.22 1.01,0 0,0.22 1.01,0 0,-0.36 1.01,0 0,0.22 1,0 0,-0.15 1.01,0 0,-0.37 1.01,0 0,0.96 1.01,0 0,-0.81 1,0 0,0.15 1.01,0 0,-0.52 1.01,0 0,0.89 1.01,0 0,-0.3 1,0 0,0.15 1.01,0 0,-0.15 1.01,0 0,0 1,0 0,0.07 1.01,0 0,-0.44 1.01,0 0,0.37 1.01,0 0,-0.15 1,0 0,0.74 1.01,0 0,-0.74 1.01,0 0,-0.29 1.01,0 0,0.66 1,0 0,-0.44 1.01,0 0,0.07 1.01,0 0,-0.07 1.01,0 0,-0.07 1,0 0,-0.15 1.01,0 0,0.29 1.01,0 0,0.08 1.01,0 0,-0.22 1,0 0,0.29 1.01,0 0,-0.59 1.01,0 0,0.44 1,0 0,-0.07 1.01,0 0,0 1.01,0 0,0 1.01,0 0,-0.07 1,0 0,0.07 1.01,0 0,0.44 1.01,0 0,-0.44 1.01,0 0,-0.15 1,0 0,0.08 1.01,0 0,0.44 1.01,0 0,-0.37 1.01,0 0,-0.59 1,0 0,0.81 1.01,0 0,-0.44 1.01,0 0,0 1.01,0 0,0.29 1,0 0,0.08 1.01,0 0,-0.44 1.01,0 0,0.07 1.01,0 0,0 1,0 0,-0.07 1.01,0 0,-0.15 1.01,0 0,0.44 1,0 0,0.15 1.01,0 0,-0.22 1.01,0 0,0 1.01,0 0,-0.37 1,0 0,0.22 1.01,0 0,0.22 1.01,0 0,-0.07 1.01,0 0,-0.15 1,0 0,0.07 1.01,0 0,-0.07 1.01,0 0,-0.15 1.01,0 0,-0.22 1,0 0,0.15 1.01,0 0,-0.15 1.01,0 0,0.15 1.01,0 0,0.22 1,0 0,-0.22 1.01,0 0,0 1.01,0 0,-0.15 1,0 0,0.37 1.01,0 0,-0.15 1.01,0 0,0.22 1.01,0 0,0.08 1,0 0,-0.22 1.01,0 0,0.66 1.01,0 0,-0.74 1.01,0 0,0.08 1,0 0,-0.15 1.01,0 0,0.15 1.01,0 0,0.14 1.01,0 0,-0.29 1,0 0,0.07 1.01,0 0,-0.15 1.01,0 0,-0.14 1.01,0 0,0.59 1,0 0,-0.08 1.01,0 0,-0.07 1.01,0 0,-0.37 1.01,0 0,0.22 1,0 0,-0.07 1.01,0 0,0.07 1.01,0 0,0.08 1,0 0,-0.08 1.01,0 0,-0.15 1.01,0 0,-0.14 1.01,0 0,0.81 1,0 0,-0.15 1.01,0 0,-0.52 1.01,0 0,0.08 1.01,0 0,0.07 1,0 0,-0.15 1.01,0 0,0.08 1.01,0 0,0 1.01,0 0,0 1,0 0,-0.15 1.01,0 0,0.15 1.01,0 0,0.22 1.01,0 0,-0.22 1,0 0,0.22 1.01,0 0,-0.22 1.01,0 0,0.15 1.01,0 0,-0.08 1,0 0,0 1.01,0 0,0.08 1.01,0 0,0.07 1,0 0,-0.22 1.01,0 0,-0.08 1.01,0 0,-0.07 1.01,0 0,-0.07 1,0 0,0.22 1.01,0 0,0.15 1.01,0 0,0.14 1.01,0 0,-0.51 1,0 0,0.37 1.01,0 0,-0.08 1.01,0 0,-0.07 1.01,0 0,0.15 1,0 0,-0.08 1.01,0 0,0 1.01,0 0,-0.15 1.01,0 0,-0.14 1,0 0,0.07 1.01,0 0,0.15 1.01,0 0,0.37 1,0 0,-0.3 1.01,0 0,-0.22 1.01,0 0,0.37 1.01,0 0,-0.15 1,0 0,-0.07 1.01,0 0,0.07 1.01,0 0,0.08 1.01,0 0,-0.37 1,0 0,0.37 1.01,0 0,0.22 1.01,0 0,-0.45 1.01,0 0,-0.14 1,0 0,0.66 1.01,0 0,-0.37 1.01,0 0,-0.22 1.01,0 0,0.07 1,0 0,0 1.01,0 0,0.37 1.01,0 0,-0.37 1.01,0 0,0.45 1,0 0,-0.3 1.01,0 0,-0.37 1.01,0 0,0.45 1,0 0,-0.23 1.01,0 0,0 1.01,0 0,0.37 1.01,0 0,-0.51 1,0 0,0.07 1.01,0 0,0.07 1.01,0 0,0 1.01,0 0,-0.14 1,0 0,0" /></g></g><g
       id="g7132" /><g
       id="g7134" /><g
       id="g7136" /><g
       id="g7138" /><g
       id="g7140" /><g
       id="g7142"><text
         id="text7144"
         style="font-variant:normal;font-weight:normal;font-size:10px;font-family:Roboto;-inkscape-font-specification:Roboto;writing-mode:lr-tb;fill:#000000;fill-opacity:1;fill-rule:nonzero;stroke:none"
         transform="matrix(1,0,0,-1,57.02,42.39)"><tspan
           id="tspan7146"
           y="0"
           x="0">0</tspan></text>
<text
         id="text7148"
         style="font-variant:normal;font-weight:normal;font-size:10px;font-family:Roboto;-inkscape-font-specification:Roboto;writing-mode:lr-tb;fill:#000000;fill-opacity:1;fill-rule:nonzero;stroke:none"
         transform="matrix(1,0,0,-1,57.02,71.72)"><tspan
           id="tspan7150"
           y="0"
           x="0">1</tspan></text>
<text
         id="text7152"
         style="font-variant:normal;font-weight:normal;font-size:10px;font-family:Roboto;-inkscape-font-specification:Roboto;writing-mode:lr-tb;fill:#000000;fill-opacity:1;fill-rule:nonzero;stroke:none"
         transform="matrix(1,0,0,-1,51.46,335.76)"><tspan
           id="tspan7154"
           sodipodi:role="line"
           y="0"
           x="0">10</tspan></text>
</g><g
       id="g7156" /><g
       id="g7158" /><g
       id="g7160" /><g
       id="g7162" /><g
       id="g7164" /><g
       id="g7166" /><g
       id="g7168" /><g
       id="g7170" /><g
       id="g7172" /><g
       id="g7174" /><g
       id="g7176" /><g
       id="g7178"><text
         id="text7180"
         style="font-variant:normal;font-weight:normal;font-size:10px;font-family:Roboto;-inkscape-font-specification:Roboto;writing-mode:lr-tb;fill:#000000;fill-opacity:1;fill-rule:nonzero;stroke:none"
         transform="matrix(1,0,0,-1,80.53,21.77)"><tspan
           id="tspan7182"
           y="0"
           x="0">0</tspan></text>
<text
         id="text7184"
         style="font-variant:normal;font-weight:normal;font-size:10px;font-family:Roboto;-inkscape-font-specification:Roboto;writing-mode:lr-tb;fill:#000000;fill-opacity:1;fill-rule:nonzero;stroke:none"
         transform="matrix(1,0,0,-1,107.97,21.77)"><tspan
           id="tspan7186"
           sodipodi:role="line"
           y="0"
           x="0">30</tspan></text>
<text
         id="text7188"
         style="font-variant:normal;font-weight:normal;font-size:10px;font-family:Roboto;-inkscape-font-specification:Roboto;writing-mode:lr-tb;fill:#000000;fill-opacity:1;fill-rule:nonzero;stroke:none"
         transform="matrix(1,0,0,-1,138.19,21.77)"><tspan
           id="tspan7190"
           sodipodi:role="line"
           y="0"
           x="0">60</tspan></text>
<text
         id="text7192"
         style="font-variant:normal;font-weight:normal;font-size:10px;font-family:Roboto;-inkscape-font-specification:Roboto;writing-mode:lr-tb;fill:#000000;fill-opacity:1;fill-rule:nonzero;stroke:none"
         transform="matrix(1,0,0,-1,168.41,21.77)"><tspan
           id="tspan7194"
           sodipodi:role="line"
           y="0"
           x="0">90</tspan></text>
<text
         id="text7196"
         style="font-variant:normal;font-weight:normal;font-size:10px;font-family:Roboto;-inkscape-font-specification:Roboto;writing-mode:lr-tb;fill:#000000;fill-opacity:1;fill-rule:nonzero;stroke:none"
         transform="matrix(1,0,0,-1,195.85,21.77)"><tspan
           id="tspan7198"
           sodipodi:role="line"
           y="0"
           x="0">120</tspan></text>
<text
         id="text7200"
         style="font-variant:normal;font-weight:normal;font-size:10px;font-family:Roboto;-inkscape-font-specification:Roboto;writing-mode:lr-tb;fill:#000000;fill-opacity:1;fill-rule:nonzero;stroke:none"
         transform="matrix(1,0,0,-1,226.07,21.77)"><tspan
           id="tspan7202"
           sodipodi:role="line"
           y="0"
           x="0">150</tspan></text>
<text
         id="text7204"
         style="font-variant:normal;font-weight:normal;font-size:10px;font-family:Roboto;-inkscape-font-specification:Roboto;writing-mode:lr-tb;fill:#000000;fill-opacity:1;fill-rule:nonzero;stroke:none"
         transform="matrix(1,0,0,-1,256.3,21.77)"><tspan
           id="tspan7206"
           sodipodi:role="line"
           y="0"
           x="0">180</tspan></text>
<text
         id="text7208"
         style="font-variant:normal;font-weight:normal;font-size:10px;font-family:Roboto;-inkscape-font-specification:Roboto;writing-mode:lr-tb;fill:#000000;fill-opacity:1;fill-rule:nonzero;stroke:none"
         transform="matrix(1,0,0,-1,286.52,21.77)"><tspan
           id="tspan7210"
           sodipodi:role="line"
           y="0"
           x="0">210</tspan></text>
<text
         id="text7212"
         style="font-variant:normal;font-weight:normal;font-size:10px;font-family:Roboto;-inkscape-font-specification:Roboto;writing-mode:lr-tb;fill:#000000;fill-opacity:1;fill-rule:nonzero;stroke:none"
         transform="matrix(1,0,0,-1,316.74,21.77)"><tspan
           id="tspan7214"
           sodipodi:role="line"
           y="0"
           x="0">240</tspan></text>
<text
         id="text7216"
         style="font-variant:normal;font-weight:normal;font-size:10px;font-family:Roboto;-inkscape-font-specification:Roboto;writing-mode:lr-tb;fill:#000000;fill-opacity:1;fill-rule:nonzero;stroke:none"
         transform="matrix(1,0,0,-1,346.96,21.77)"><tspan
           id="tspan7218"
           sodipodi:role="line"
           y="0"
           x="0">270</tspan></text>
<text
         id="text7220"
         style="font-variant:normal;font-weight:normal;font-size:10px;font-family:Roboto;-inkscape-font-specification:Roboto;writing-mode:lr-tb;fill:#000000;fill-opacity:1;fill-rule:nonzero;stroke:none"
         transform="matrix(1,0,0,-1,377.18,21.77)"><tspan
           id="tspan7222"
           sodipodi:role="line"
           y="0"
           x="0">300</tspan></text>
<text
         id="text7224"
         style="font-variant:normal;font-weight:normal;font-size:10px;font-family:Roboto;-inkscape-font-specification:Roboto;writing-mode:lr-tb;fill:#000000;fill-opacity:1;fill-rule:nonzero;stroke:none"
         transform="matrix(1,0,0,-1,407.4,21.77)"><tspan
           id="tspan7226"
           sodipodi:role="line"
           y="0"
           x="0">330</tspan></text>
<text
         id="text7228"
         style="font-variant:normal;font-weight:normal;font-size:10px;font-family:Roboto;-inkscape-font-specification:Roboto;writing-mode:lr-tb;fill:#000000;fill-opacity:1;fill-rule:nonzero;stroke:none"
         transform="matrix(1,0,0,-1,437.62,21.77)"><tspan
           id="tspan7230"
           sodipodi:role="line"
           y="0"
           x="0">360</tspan></text>
</g><g
       id="g7232" /><g
       id="g7234" /><g
       id="g7236" /><g
       id="g7238"><text
         id="text7240"
         style="font-variant:normal;font-weight:normal;font-size:12px;font-family:Roboto;-inkscape-font-specification:Roboto;writing-mode:lr-tb;fill:#000000;fill-opacity:1;fill-rule:nonzero;stroke:none"
         transform="matrix(1,0,0,-1,255.98,8.37)"><tspan
           id="tspan7242"
           sodipodi:role="line"
           y="0"
           x="0">Days after birth</tspan></text>
</g><g
       id="g7244" /><g
       id="g7246" /><g
       id="g7252" /><g
       id="g7254" /><g
       id="g7256" /><g
       id="g7258" /><text
       xml:space="preserve"
       style="font-style:normal;font-variant:normal;font-weight:normal;font-stretch:normal;font-size:10px;line-height:100%;font-family:Roboto;-inkscape-font-specification:Roboto;text-align:center;letter-spacing:0px;word-spacing:0px;text-anchor:middle;fill:#000000;fill-opacity:1;stroke:none;stroke-width:1px;stroke-linecap:butt;stroke-linejoin:miter;stroke-opacity:1"
       x="87.245125"
       y="-372.23828"
       id="text7319"
       sodipodi:linespacing="100%"
       transform="scale(1,-1)"><tspan
         sodipodi:role="line"
         x="87.245125"
         y="-372.23828"
         id="tspan7323">Deaths per 10,000</tspan><tspan
         sodipodi:role="line"
         x="87.245125"
         y="-362.23828"
         id="tspan7327">person-days</tspan></text>
<path
       style="fill:none;fill-rule:evenodd;stroke:#000000;stroke-width:0.80000001px;stroke-linecap:butt;stroke-linejoin:miter;stroke-opacity:1"
       d="M 90.837754,92.941888 110.678,109.47544"
       id="path7311"
       inkscape:connector-curvature="0" /><text
       xml:space="preserve"
       style="font-style:normal;font-weight:normal;font-size:10px;line-height:100%;font-family:sans-serif;text-align:center;letter-spacing:0px;word-spacing:0px;text-anchor:middle;fill:#000000;fill-opacity:1;stroke:none;stroke-width:1px;stroke-linecap:butt;stroke-linejoin:miter;stroke-opacity:1"
       x="161.97757"
       y="-110.73395"
       id="text7313"
       sodipodi:linespacing="100%"
       transform="scale(1,-1)"><tspan
         sodipodi:role="line"
         x="161.97757"
         y="-110.73395"
         style="font-style:normal;font-variant:normal;font-weight:normal;font-stretch:normal;font-size:10px;line-height:100%;font-family:'Roboto Condensed';-inkscape-font-specification:'Roboto Condensed, '"
         id="tspan5822">Daily infant mortality rate</tspan></text>
</g></svg>